<svg width="77" height="77" viewBox="0 0 77 77" fill="none" xmlns="http://www.w3.org/2000/svg">
<path d="M0 0H77V77H0V0Z" fill="#2C2C2C"/>
<path d="M19.3516 13.5625H18.4609C17.7231 13.5625 17.125 14.1606 17.125 14.8984V17.5703C17.125 18.3081 17.7231 18.9062 18.4609 18.9062H19.3516C20.0894 18.9062 20.6875 18.3081 20.6875 17.5703V14.8984C20.6875 14.1606 20.0894 13.5625 19.3516 13.5625Z" fill="white"/>
<path d="M29.1484 13.5625H28.2578C27.52 13.5625 26.9219 14.1606 26.9219 14.8984V17.5703C26.9219 18.3081 27.52 18.9062 28.2578 18.9062H29.1484C29.8863 18.9062 30.4844 18.3081 30.4844 17.5703V14.8984C30.4844 14.1606 29.8863 13.5625 29.1484 13.5625Z" fill="white"/>
<path d="M57.2031 45.625C57.2036 47.492 56.7149 49.3265 55.7856 50.9458C54.8564 52.5651 53.5191 53.9126 51.9069 54.8542C50.2947 55.7957 48.464 56.2984 46.597 56.3122C44.7301 56.3259 42.8922 55.8503 41.2663 54.9326C40.8648 55.397 40.434 55.8352 39.9766 56.2446C41.9406 57.4601 44.206 58.1007 46.5156 58.0938C49.8226 58.0938 52.994 56.7801 55.3324 54.4417C57.6707 52.1034 58.9844 48.9319 58.9844 45.625C58.9844 42.3181 57.6707 39.1466 55.3324 36.8083C52.994 34.4699 49.8226 33.1563 46.5156 33.1562H46.4426C46.3305 33.8061 46.079 34.424 45.7055 34.9674C45.974 34.9475 46.2441 34.9375 46.5156 34.9375C49.3492 34.9407 52.0657 36.0677 54.0693 38.0713C56.0729 40.0749 57.2 42.7915 57.2031 45.625Z" fill="white"/>
<path d="M48.7422 13.5625H47.8516C47.1137 13.5625 46.5156 14.1606 46.5156 14.8984V17.5703C46.5156 18.3081 47.1137 18.9062 47.8516 18.9062H48.7422C49.48 18.9062 50.0781 18.3081 50.0781 17.5703V14.8984C50.0781 14.1606 49.48 13.5625 48.7422 13.5625Z" fill="white"/>
<path d="M38.9453 13.5625H38.0547C37.3169 13.5625 36.7188 14.1606 36.7188 14.8984V17.5703C36.7188 18.3081 37.3169 18.9062 38.0547 18.9062H38.9453C39.6831 18.9062 40.2812 18.3081 40.2812 17.5703V14.8984C40.2812 14.1606 39.6831 13.5625 38.9453 13.5625Z" fill="white"/>
<path d="M58.5391 13.5625H57.6484C56.9106 13.5625 56.3125 14.1606 56.3125 14.8984V17.5703C56.3125 18.3081 56.9106 18.9062 57.6484 18.9062H58.5391C59.2769 18.9062 59.875 18.3081 59.875 17.5703V14.8984C59.875 14.1606 59.2769 13.5625 58.5391 13.5625Z" fill="white"/>
<path d="M42.6471 38.1961C44.0601 40.51 44.7833 43.1791 44.7318 45.8899C44.6803 48.6006 43.8562 51.2403 42.3563 53.4989C43.662 54.188 45.1185 54.5418 46.5948 54.5282C48.0711 54.5147 49.5208 54.1343 50.8136 53.4213C52.1064 52.7083 53.2016 51.685 54.0007 50.4436C54.7998 49.2023 55.2777 47.7817 55.3915 46.3097C55.5052 44.8377 55.2512 43.3606 54.6523 42.0111C54.0533 40.6617 53.1283 39.4824 51.9604 38.5793C50.7925 37.6761 49.4184 37.0776 47.9617 36.8374C46.505 36.5972 45.0115 36.723 43.6154 37.2034L42.6471 38.1961Z" fill="white"/>
<path d="M30.4844 58.0938C32.6605 58.093 34.7985 57.523 36.6862 56.4403C38.5738 55.3576 40.1453 53.7998 41.2446 51.9218C42.3439 50.0438 42.9327 47.9108 42.9526 45.7348C42.9725 43.5588 42.4227 41.4154 41.3579 39.5176L40.0491 40.8593C41.0855 42.9398 41.4153 45.3016 40.9885 47.5865C40.5616 49.8714 39.4014 51.9548 37.6838 53.5209C35.9662 55.0871 33.7848 56.0504 31.4703 56.2651C29.1558 56.4797 26.8344 55.9338 24.8581 54.7103C22.8818 53.4867 21.3583 51.6521 20.5186 49.4846C19.6789 47.3172 19.5688 44.9351 20.205 42.6994C20.8411 40.4637 22.1889 38.4964 24.0439 37.0957C25.8988 35.695 28.16 34.9373 30.4844 34.9375C30.7558 34.9375 31.0258 34.9476 31.2945 34.9678C30.921 34.4242 30.6695 33.8062 30.5574 33.1562H30.4844C27.1775 33.1563 24.006 34.4699 21.6676 36.8083C19.3293 39.1466 18.0156 42.3181 18.0156 45.625C18.0156 48.9319 19.3293 52.1034 21.6676 54.4417C24.006 56.7801 27.1775 58.0938 30.4844 58.0938Z" fill="white"/>
<path d="M21.5781 45.6249C21.5778 47.1594 21.974 48.6679 22.7283 50.0042C23.4826 51.3404 24.5695 52.4591 25.8834 53.2516C27.1974 54.0441 28.6939 54.4836 30.2277 54.5275C31.7615 54.5714 33.2807 54.2182 34.6378 53.5021C33.1406 51.2416 32.3186 48.6013 32.2681 45.8904C32.2176 43.1796 32.9408 40.5105 34.3529 38.1959L33.3844 37.2033C32.0429 36.7418 30.6107 36.6074 29.2068 36.8111C27.803 37.0149 26.4681 37.551 25.3132 38.3748C24.1583 39.1985 23.2169 40.2862 22.5672 41.5473C21.9176 42.8084 21.5785 44.2064 21.5781 45.6249Z" fill="white"/>
<path d="M13.5625 62.7695C13.5625 62.9467 13.6329 63.1166 13.7581 63.2419C13.8834 63.3671 14.0533 63.4375 14.2305 63.4375H62.7695C62.9467 63.4375 63.1166 63.3671 63.2419 63.2419C63.3671 63.1166 63.4375 62.9467 63.4375 62.7695V24.25H13.5625V62.7695ZM30.4844 31.375H30.592C30.7702 30.5361 31.1824 29.7648 31.7809 29.1504C32.1904 28.7271 32.6809 28.3904 33.2232 28.1605C33.7655 27.9306 34.3485 27.8121 34.9375 27.8121C35.5265 27.8121 36.1095 27.9306 36.6518 28.1605C37.1941 28.3904 37.6846 28.7271 38.0941 29.1504L38.5 29.567L38.9059 29.1509C39.3154 28.7275 39.8059 28.3909 40.3482 28.1609C40.8905 27.931 41.4735 27.8125 42.0625 27.8125C42.6515 27.8125 43.2345 27.931 43.7768 28.1609C44.3191 28.3909 44.8096 28.7275 45.2191 29.1509C45.8175 29.7651 46.2297 30.5362 46.408 31.375H46.5156C50.295 31.375 53.9195 32.8763 56.5919 35.5487C59.2643 38.2211 60.7656 41.8457 60.7656 45.625C60.7656 49.4043 59.2643 53.0289 56.5919 55.7013C53.9195 58.3737 50.295 59.875 46.5156 59.875C43.6534 59.8836 40.8561 59.0222 38.4945 57.4051C36.6507 58.659 34.5382 59.4626 32.3271 59.7513C30.116 60.04 27.8681 59.8057 25.764 59.0673C23.66 58.3288 21.7587 57.1068 20.213 55.4997C18.6673 53.8925 17.5204 51.9449 16.8645 49.8137C16.2087 47.6825 16.0622 45.4271 16.4369 43.2289C16.8116 41.0308 17.697 38.9513 19.0218 37.1577C20.3467 35.3641 22.074 33.9065 24.0649 32.9021C26.0557 31.8978 28.2545 31.3747 30.4844 31.375ZM62.7695 16.2344H61.6562V17.5703C61.6562 18.397 61.3278 19.1899 60.7432 19.7745C60.1587 20.3591 59.3658 20.6875 58.5391 20.6875H57.6484C56.8217 20.6875 56.0288 20.3591 55.4443 19.7745C54.8597 19.1899 54.5312 18.397 54.5312 17.5703V16.2344H51.8594V17.5703C51.8594 18.397 51.531 19.1899 50.9464 19.7745C50.3618 20.3591 49.5689 20.6875 48.7422 20.6875H47.8516C47.0248 20.6875 46.232 20.3591 45.6474 19.7745C45.0628 19.1899 44.7344 18.397 44.7344 17.5703V16.2344H42.0625V17.5703C42.0625 18.397 41.7341 19.1899 41.1495 19.7745C40.5649 20.3591 39.772 20.6875 38.9453 20.6875H38.0547C37.228 20.6875 36.4351 20.3591 35.8505 19.7745C35.2659 19.1899 34.9375 18.397 34.9375 17.5703V16.2344H32.2656V17.5703C32.2656 18.397 31.9372 19.1899 31.3526 19.7745C30.768 20.3591 29.9752 20.6875 29.1484 20.6875H28.2578C27.4311 20.6875 26.6382 20.3591 26.0536 19.7745C25.469 19.1899 25.1406 18.397 25.1406 17.5703V16.2344H22.4688V17.5703C22.4688 18.397 22.1403 19.1899 21.5557 19.7745C20.9712 20.3591 20.1783 20.6875 19.3516 20.6875H18.4609C17.6342 20.6875 16.8413 20.3591 16.2568 19.7745C15.6722 19.1899 15.3438 18.397 15.3438 17.5703V16.2344H14.2305C14.0533 16.2344 13.8834 16.3047 13.7581 16.43C13.6329 16.5553 13.5625 16.7252 13.5625 16.9023V22.4688H63.4375V16.9023C63.4375 16.7252 63.3671 16.5553 63.2419 16.43C63.1166 16.3047 62.9467 16.2344 62.7695 16.2344Z" fill="white"/>
<path d="M38.5 39.8964L42.5809 35.7128L42.5724 35.6912L42.6207 35.6721L43.9439 34.3156C44.4513 33.7891 44.7349 33.0864 44.7349 32.3552C44.7349 31.6239 44.4513 30.9212 43.9439 30.3947C43.7004 30.1415 43.4082 29.94 43.0849 29.8023C42.7616 29.6647 42.4139 29.5938 42.0625 29.5938C41.7111 29.5937 41.3634 29.6647 41.0401 29.8023C40.7168 29.94 40.4246 30.1415 40.181 30.3947L39.1376 31.4645C39.0546 31.5495 38.9554 31.6171 38.8459 31.6633C38.7364 31.7095 38.6188 31.7332 38.5 31.7332C38.3812 31.7332 38.2635 31.7095 38.154 31.6633C38.0445 31.6171 37.9454 31.5495 37.8624 31.4645L36.8189 30.3953C36.5754 30.142 36.2832 29.9405 35.9599 29.8029C35.6366 29.6652 35.2889 29.5943 34.9375 29.5943C34.5861 29.5943 34.2384 29.6652 33.9151 29.8029C33.5918 29.9405 33.2996 30.142 33.056 30.3953C32.5486 30.9218 32.2651 31.6245 32.2651 32.3558C32.2651 33.087 32.5486 33.7897 33.056 34.3163L38.5 39.8964ZM38.3586 42.0513C37.8417 43.2302 37.5867 44.5072 37.6111 45.7942C37.6355 47.0812 37.9388 48.3475 38.5 49.506C39.0614 48.3476 39.3648 47.0811 39.3892 45.7941C39.4137 44.507 39.1585 43.23 38.6415 42.0511C38.5479 42.0663 38.4524 42.0663 38.3588 42.0511L38.3586 42.0513ZM35.6421 39.5176C34.5198 41.519 33.9707 43.7909 34.0552 46.0839C34.1396 48.3769 34.8543 50.6022 36.1208 52.5156C36.5937 52.128 37.0258 51.6931 37.4104 51.2178C36.4598 49.6725 35.9187 47.9105 35.8383 46.0981C35.7578 44.2857 36.1406 42.4826 36.9505 40.8592L35.6421 39.5176Z" fill="white"/>
</svg>
