<svg width="77" height="77" viewBox="0 0 77 77" fill="none" xmlns="http://www.w3.org/2000/svg">
<mask id="path-1-inside-1_149_61" fill="white">
<path d="M0 0H77V77H0V0Z"/>
</mask>

<path d="M77 75H0V79H77V75Z" fill="white" mask="url(#path-1-inside-1_149_61)"/>
<path d="M35.6967 30.5678C35.4506 30.6713 35.2122 30.7925 34.9836 30.9304C35.7973 31.0882 36.9063 31.0974 37.5419 30.2281C39.0857 28.1176 39.8566 27.6551 40.9221 27.6119C40.6507 26.7799 40.5315 25.9057 40.5703 25.0313C40.6293 23.6397 40.2821 22.2992 39.9614 21.3824C39.9255 21.437 39.8888 21.4905 39.8517 21.5431C39.7469 21.6919 39.6005 21.8066 39.4309 21.8728C39.2613 21.939 39.076 21.9537 38.8981 21.9152C38.7201 21.8768 38.5575 21.7867 38.4304 21.6564C38.3033 21.526 38.2174 21.3611 38.1835 21.1823C37.9967 20.1996 37.4981 18.9156 36.1845 18.378C35.9518 18.2827 35.7261 18.1711 35.509 18.044C35.5869 18.564 35.5303 19.0952 35.3445 19.5869C35.203 19.9255 35.0634 20.2649 34.9256 20.605C35.2293 20.7134 35.5033 20.8919 35.7252 21.1259C35.9471 21.3599 36.1108 21.643 36.2028 21.9521C36.3152 22.3263 36.3356 22.7221 36.2622 23.1058C36.2516 23.1597 36.3103 23.2778 36.4483 23.3598C36.5636 23.4283 36.875 23.5513 37.2788 23.2151C37.8189 22.7656 38.5118 22.8135 39.0871 23.3401C39.9375 24.1194 40.3996 25.782 39.7328 26.7766C39.5717 27.0529 38.038 29.6019 35.6967 30.5678ZM36.6058 17.3476C38.2301 18.0122 38.9012 19.4851 39.1775 20.5328C39.4689 20.0042 39.5757 19.3769 39.009 18.353C38.9724 18.289 38.9489 18.2183 38.9399 18.1451C38.9308 18.072 38.9364 17.9977 38.9563 17.9268C38.9762 17.8558 39.01 17.7894 39.0557 17.7316C39.1014 17.6738 39.1582 17.6256 39.2227 17.5899C39.2872 17.5542 39.3582 17.5317 39.4314 17.5236C39.5047 17.5155 39.5789 17.5221 39.6496 17.5429C39.7203 17.5638 39.7862 17.5984 39.8434 17.6449C39.9006 17.6914 39.948 17.7488 39.9829 17.8138C40.417 18.5985 40.5581 19.2557 40.5265 19.8199C40.5756 19.9224 40.6456 20.0746 40.7269 20.2672C41.8742 16.0359 38.7408 13.8119 38.1671 13.446C37.2899 13.3087 36.3809 13.5108 35.4638 14.0491C35.2914 14.1513 35.1419 14.2879 35.0247 14.4504C34.9075 14.613 34.825 14.7979 34.7825 14.9938C34.7388 15.1851 34.7356 15.3834 34.7731 15.576C34.8106 15.7687 34.888 15.9513 35.0003 16.1123C35.4037 16.6716 35.9617 17.101 36.6058 17.3476ZM31.8604 52.3892C31.7348 52.5692 31.6841 52.7909 31.7189 53.0076C31.7537 53.2242 31.8713 53.4189 32.0469 53.5505C32.212 53.6726 32.416 53.7298 32.6205 53.7113C32.8249 53.6928 33.0154 53.6 33.1559 53.4503L42.4852 42.9736L44.773 36.3322C44.9779 35.3441 45.3001 32.5026 44.2275 31.8235C43.0284 31.0566 42.0505 29.9897 41.3907 28.7285C41.3342 28.7256 41.2794 28.7231 41.2259 28.7213L40.5185 40.5741C40.4838 41.1216 40.311 41.6513 40.0161 42.114C40.0123 42.12 40.0084 42.1259 40.0043 42.1318L33.4086 51.5522C33.2867 51.6277 33.1502 51.6764 33.0081 51.6953C32.866 51.7141 32.7215 51.7026 32.5842 51.6616L31.9981 51.4862C32.0752 51.5804 32.1194 51.6974 32.1237 51.8191C32.128 51.9408 32.0924 52.0605 32.0221 52.16L31.8604 52.3892ZM31.3143 38.3042L32.3087 38.7707C32.5035 38.8615 32.724 38.881 32.9317 38.8257C33.1394 38.7703 33.3211 38.6437 33.4448 38.468C33.5686 38.2922 33.6266 38.0785 33.6088 37.8643C33.5909 37.6501 33.4982 37.449 33.347 37.2962L32.6457 36.5852C32.5941 36.533 32.5327 36.4915 32.465 36.4632C32.3973 36.4349 32.3246 36.4203 32.2512 36.4202C32.2056 36.4202 32.1602 36.4259 32.1161 36.4372C31.5125 36.5922 31.1226 36.9542 30.957 37.513C30.9131 37.6658 30.9249 37.8293 30.9903 37.9742C31.0557 38.1192 31.1706 38.2361 31.3143 38.3042Z" fill="white"/>
<path d="M31.2866 50.122C31.332 50.1287 31.3768 50.1385 31.4208 50.1513L32.7962 50.5627L39.0833 41.5052C39.2732 41.204 39.3845 40.86 39.4071 40.5047L40.0914 29.0317C39.6821 29.322 39.1835 29.8684 38.4402 30.8843C37.7312 31.8537 36.722 32.1303 35.8018 32.1303C35.1437 32.1196 34.4917 32.0018 33.8715 31.7815C33.4806 32.1712 33.1701 32.6214 33.0595 33.1034C32.9087 33.7621 33.1357 34.4183 33.7537 35.1099C33.9934 35.3776 34.1756 35.6917 34.2887 36.0327C34.3768 36.2923 34.4146 36.5663 34.4 36.8401C34.64 37.2098 34.7528 37.6476 34.7216 38.0873C34.6903 38.5269 34.5166 38.9444 34.2268 39.2765C33.9369 39.6085 33.5468 39.8371 33.1154 39.9275C32.684 40.0179 32.2349 39.9652 31.8362 39.7775L31.2055 39.4815C30.0346 40.2372 28.6929 41.4848 28.4124 43.3315C28.112 45.3057 29.0794 47.5891 31.2866 50.122ZM44.8591 49.1138C43.6258 47.4041 42.9833 45.5735 42.6747 44.4431L33.9678 54.211C33.7114 54.4839 33.3815 54.6769 33.018 54.7666C31.5326 56.4967 29.271 59.4671 29.1342 60.5575C29.2364 60.7516 29.9469 61.2711 31.6318 61.7682C33.6194 62.3356 35.6796 62.6079 37.7465 62.5763C40.1565 62.5289 42.0958 62.0116 43.3546 61.0799C45.7633 59.2973 46.367 56.7883 46.4495 54.9975C46.5474 52.8641 45.938 50.6097 44.8591 49.1138ZM42.2971 49.7199C42.2228 49.6019 42.1449 49.4862 42.0633 49.3731C41.9775 49.2533 41.9426 49.1044 41.9664 48.959C41.9902 48.8135 42.0707 48.6835 42.1902 48.5973C42.3097 48.5111 42.4585 48.4758 42.604 48.4992C42.7495 48.5226 42.8798 48.6026 42.9663 48.7219C43.0613 48.8538 43.1522 48.9886 43.2388 49.1261C43.2778 49.188 43.3042 49.2569 43.3166 49.3289C43.329 49.401 43.327 49.4747 43.3109 49.546C43.2947 49.6173 43.2647 49.6847 43.2225 49.7444C43.1803 49.8041 43.1267 49.8549 43.0649 49.8939C43.003 49.9329 42.9341 49.9593 42.8621 49.9717C42.79 49.984 42.7163 49.9821 42.645 49.9659C42.5737 49.9498 42.5063 49.9197 42.4466 49.8775C42.3869 49.8353 42.3361 49.7818 42.2971 49.7199ZM44.5898 57.858C44.5603 57.9791 44.491 58.0868 44.393 58.1639C44.2951 58.2409 44.174 58.2829 44.0494 58.283C44.0048 58.283 43.9605 58.2776 43.9171 58.2672C43.8461 58.2499 43.7792 58.2188 43.7202 58.1756C43.6612 58.1324 43.6112 58.0781 43.5732 58.0156C43.5353 57.9531 43.5099 57.8838 43.4987 57.8115C43.4876 57.7393 43.4907 57.6656 43.508 57.5945C43.9961 55.5913 43.834 53.2861 43.0627 51.2711C43.036 51.2027 43.023 51.1297 43.0247 51.0563C43.0263 50.9828 43.0424 50.9105 43.0721 50.8433C43.1018 50.7761 43.1445 50.7155 43.1978 50.6649C43.251 50.6144 43.3137 50.5748 43.3823 50.5486C43.4509 50.5223 43.524 50.5099 43.5974 50.5121C43.6708 50.5142 43.7431 50.5309 43.81 50.5611C43.877 50.5913 43.9373 50.6344 43.9875 50.688C44.0377 50.7416 44.0768 50.8046 44.1025 50.8734C44.9526 53.0951 45.13 55.641 44.5897 57.8585L44.5898 57.858ZM41.0494 14.8532C41.9561 16.3046 42.7221 18.7059 41.3042 21.9559C41.5863 22.9716 41.7139 24.024 41.6827 25.0777C41.5663 27.8201 43.228 29.8743 44.8221 30.8821C46.0545 31.6614 46.1749 33.5849 46.0751 34.9946C46.675 34.3542 47.2004 33.648 47.6413 32.8894C49.0663 30.4012 49.1068 27.9265 47.7604 25.5327C47.414 25.1364 45.2619 22.556 45.5653 19.9381C45.839 17.5755 45.0662 16.134 45.0583 16.1196C45.043 16.0918 45.0301 16.0627 45.0199 16.0327C43.6605 12.0811 41.5294 12.709 39.8168 13.213L39.7068 13.2453C40.2245 13.7186 40.6761 14.2594 41.0494 14.8532ZM41.2536 14.0806C41.289 13.9368 41.3798 13.8129 41.5062 13.7359C41.6327 13.6589 41.7844 13.635 41.9284 13.6696C42.0031 13.6874 43.7653 14.136 44.3377 16.6984C44.3699 16.8424 44.3436 16.9934 44.2644 17.1181C44.1853 17.2427 44.0599 17.3308 43.9158 17.363C43.7717 17.3952 43.6208 17.3688 43.4961 17.2897C43.3715 17.2105 43.2834 17.0851 43.2512 16.9411C42.8376 15.0901 41.7095 14.7634 41.6617 14.7503C41.5908 14.7333 41.524 14.7024 41.4651 14.6595C41.4062 14.6165 41.3563 14.5623 41.3184 14.5C41.2805 14.4377 41.2553 14.3685 41.2442 14.2965C41.2332 14.2244 41.2365 14.1508 41.254 14.08L41.2536 14.0806ZM16.7199 24.5175C17.7441 24.4361 18.6748 23.8294 19.3396 22.8092C20.0339 21.7436 20.3533 20.3667 20.239 18.932C20.0158 16.1309 18.1919 13.9626 16.1162 13.9626C16.0374 13.9626 15.9585 13.9657 15.8794 13.9719C14.8552 14.0533 13.9246 14.6601 13.2598 15.6803C12.5655 16.7463 12.2461 18.1232 12.3602 19.5579C12.5922 22.4652 14.5496 24.6905 16.7199 24.5175ZM16.0704 15.8376C16.0941 15.7684 16.1311 15.7046 16.1794 15.6497C16.2278 15.5949 16.2864 15.5501 16.3521 15.5179C16.4177 15.4857 16.489 15.4668 16.562 15.4622C16.6349 15.4575 16.7081 15.4673 16.7772 15.491C17.4969 15.7371 18.1472 16.2823 18.6085 17.0261C18.6863 17.1516 18.711 17.3028 18.6773 17.4466C18.6436 17.5903 18.5542 17.7148 18.4287 17.7926C18.3032 17.8704 18.1519 17.8952 18.0082 17.8615C17.8645 17.8277 17.74 17.7383 17.6622 17.6128C17.336 17.087 16.894 16.7076 16.4168 16.5441C16.2772 16.4962 16.1623 16.395 16.0974 16.2625C16.0324 16.13 16.0227 15.9772 16.0704 15.8376ZM19.8971 48.5905C19.8592 47.9331 19.8623 47.274 19.9062 46.617C19.9106 46.5711 19.9174 46.5272 19.9235 46.4834C19.9417 46.4 19.9582 46.3183 19.9746 46.2368C20.1628 45.5306 20.6648 45.0783 21.2791 44.5284C22.0309 43.8547 22.883 43.0911 23.2911 41.6976C23.715 40.2493 23.4143 38.051 23.2416 37.0613L23.7466 37.1925L23.8002 35.1038C23.5904 35.0712 23.3824 35.0285 23.1767 34.9759C22.889 34.9008 22.6064 34.8073 22.3306 34.696L21.3509 36.5694L22.0523 36.7519C22.054 36.763 22.0536 36.7742 22.0561 36.7853C22.0625 36.815 22.6936 39.7766 22.2231 41.3847C21.9043 42.4738 21.2401 43.069 20.5368 43.6992C20.43 43.795 20.3228 43.8913 20.2168 43.9893C20.2152 41.4399 19.1326 40.0922 18.2909 39.0455C17.8332 38.4763 17.4378 37.9847 17.2989 37.4241C17.0794 36.5386 17.4451 35.9681 17.9513 35.1785C18.4609 34.3837 19.095 33.3943 19.0212 31.9151C18.9577 30.6442 18.2321 29.0382 17.7133 28.039L18.3323 27.9899L17.5583 25.5666C17.3042 25.6112 17.0479 25.6469 16.7882 25.6676C16.5688 25.685 16.3495 25.6936 16.1322 25.6936C15.9889 25.6936 15.8463 25.6879 15.7042 25.6804L15.3264 28.2287L16.5005 28.1346C16.9539 28.9567 17.8459 30.7194 17.9082 31.9699C17.9639 33.0931 17.5023 33.8139 17.013 34.5771C16.4831 35.4037 15.8826 36.3405 16.2173 37.6912C16.4153 38.4904 16.9045 39.0986 17.4224 39.7425C18.4406 41.0084 19.5903 42.4388 18.8948 45.9621C18.8477 46.1425 18.8152 46.3263 18.7976 46.5119C18.749 47.2165 18.7445 47.9235 18.7843 48.6286C18.8439 50.3416 18.9002 51.9595 17.8294 52.7092C17.7682 52.7506 17.7158 52.8037 17.6753 52.8655C17.6348 52.9273 17.607 52.9966 17.5935 53.0692C17.5801 53.1419 17.5812 53.2165 17.5969 53.2887C17.6126 53.3609 17.6425 53.4293 17.6848 53.4898C17.7272 53.5503 17.7812 53.6018 17.8437 53.6413C17.9062 53.6807 17.9759 53.7073 18.0488 53.7196C18.1217 53.7318 18.1962 53.7294 18.2682 53.7125C18.3401 53.6956 18.408 53.6645 18.4678 53.6211C20.0338 52.5253 19.9611 50.4348 19.8971 48.5905Z" fill="white"/>
<path d="M23.5477 33.9563C23.7944 34.0204 24.0484 34.0527 24.3033 34.0526C26.1831 34.0526 28.0584 32.3203 28.7074 29.8322C29.0708 28.4395 28.9969 27.0281 28.4995 25.8577C28.0232 24.7374 27.2133 23.9781 26.2189 23.7193C25.9722 23.6553 25.7183 23.6229 25.4633 23.623C23.5835 23.623 21.7082 25.3553 21.0591 27.8435C20.6958 29.2361 20.7696 30.6475 21.2671 31.8179C21.7433 32.9382 22.5533 33.6977 23.5477 33.9563ZM25.7854 25.5437C25.8304 25.4861 25.8864 25.438 25.95 25.402C26.0137 25.366 26.0838 25.3429 26.1563 25.3341C26.2289 25.3252 26.3025 25.3307 26.3729 25.3503C26.4433 25.3699 26.5092 25.4031 26.5668 25.4482C27.1656 25.9165 27.6012 26.6446 27.7926 27.4984C27.8087 27.5697 27.8105 27.6435 27.798 27.7155C27.7855 27.7876 27.7589 27.8564 27.7198 27.9182C27.6806 27.9799 27.6297 28.0334 27.57 28.0755C27.5102 28.1176 27.4427 28.1474 27.3714 28.1635C27.3 28.1795 27.2262 28.1813 27.1542 28.1688C27.0822 28.1562 27.0133 28.1297 26.9516 28.0905C26.8898 28.0514 26.8363 28.0005 26.7943 27.9407C26.7522 27.8809 26.7223 27.8134 26.7063 27.7421C26.571 27.1387 26.2779 26.6355 25.8809 26.3251C25.7648 26.234 25.6896 26.1005 25.6719 25.954C25.6541 25.8074 25.6953 25.6598 25.7864 25.5437H25.7854ZM60.7833 49.5834C61.1144 48.2335 60.515 47.2974 59.9861 46.4716C59.4973 45.7083 59.0358 44.9875 59.0919 43.8634C59.1607 42.4829 60.2441 40.4724 60.6271 39.8013L61.3964 39.8624L61.0606 37.5972C60.9342 37.6039 60.8074 37.6083 60.6801 37.6083C60.4865 37.6083 60.2922 37.6006 60.0971 37.5853C59.8662 37.5669 59.6384 37.5345 59.4124 37.4954L58.7245 39.6496L59.4078 39.7038C58.8894 40.6714 58.0484 42.4347 57.9799 43.8074C57.9061 45.2872 58.5396 46.2765 59.0487 47.0713C59.5542 47.8609 59.9195 48.4313 59.7021 49.3176C59.5606 49.8949 59.1438 50.3707 58.6611 50.9217C57.7553 51.9558 56.6752 53.1917 56.7179 55.679C56.6253 55.6017 56.532 55.5259 56.4396 55.4504C55.7482 54.8894 55.0953 54.3594 54.7785 53.2771C54.3443 51.7931 54.8498 49.1468 54.9334 48.7339L55.7614 48.5186L54.6926 46.4748C54.3919 46.5963 54.0836 46.6983 53.7697 46.7802C53.5437 46.839 53.3165 46.8828 53.0891 46.9197L53.1474 49.1983L53.7433 49.0434C53.5692 50.0716 53.298 52.1844 53.7099 53.5899C54.1244 55.0054 55.0192 55.7314 55.7381 56.3149C56.3636 56.8223 56.8373 57.207 57.0048 57.906V57.9083C57.0299 58.0146 57.0475 58.1225 57.0574 58.2312C57.1015 58.8937 57.1073 59.5583 57.0746 60.2215C57.0203 62.186 56.9588 64.4126 58.5323 65.5142C58.6533 65.5969 58.8021 65.6285 58.9462 65.6022C59.0904 65.5759 59.2184 65.4939 59.3025 65.3738C59.3865 65.2537 59.4198 65.1054 59.3951 64.9609C59.3705 64.8164 59.2898 64.6875 59.1707 64.6022C58.0881 63.8443 58.1386 62.0182 58.1874 60.2522C58.2223 59.5439 58.215 58.834 58.1657 58.1265C58.1505 57.9615 58.1236 57.7978 58.085 57.6367C57.3121 54.1521 58.4232 52.883 59.4989 51.6549C60.0532 51.0227 60.5764 50.4246 60.7833 49.5834ZM61.1207 25.8656C58.9467 25.6924 56.9927 27.9178 56.7611 30.8251C56.6468 32.2598 56.9662 33.6367 57.6605 34.7023C58.3253 35.7225 59.2555 36.3292 60.2802 36.4105C60.3593 36.4169 60.4384 36.42 60.5169 36.42C62.5926 36.42 64.4164 34.2523 64.6397 31.4509C64.754 30.0164 64.4346 28.6395 63.7403 27.5739C63.0755 26.5536 62.1453 25.9469 61.1207 25.8656ZM60.5831 28.4373C60.1061 28.6004 59.6639 28.9799 59.3377 29.5061C59.2992 29.5682 59.2488 29.6221 59.1894 29.6648C59.13 29.7075 59.0628 29.738 58.9916 29.7547C58.9205 29.7714 58.8467 29.7739 58.7745 29.7621C58.7024 29.7503 58.6333 29.7243 58.5711 29.6858C58.509 29.6473 58.4551 29.5969 58.4124 29.5375C58.3698 29.4781 58.3392 29.4109 58.3225 29.3398C58.3058 29.2686 58.3033 29.1948 58.3151 29.1227C58.327 29.0505 58.3529 28.9814 58.3914 28.9193C58.8526 28.1755 59.503 27.6304 60.2226 27.3843C60.3623 27.3365 60.5153 27.3462 60.6478 27.4112C60.7804 27.4762 60.8817 27.5911 60.9295 27.7308C60.9772 27.8705 60.9676 28.0235 60.9026 28.156C60.8376 28.2886 60.7226 28.3899 60.5829 28.4377L60.5831 28.4373Z" fill="white"/>
<path d="M48.2927 41.7238C49.0288 44.5463 51.3439 46.3964 53.4524 45.8479C54.4468 45.5893 55.2569 44.8299 55.733 43.7095C56.2305 42.5393 56.3043 41.128 55.9411 39.7351C55.292 37.2471 53.4165 35.5146 51.5367 35.5146C51.2818 35.5145 51.028 35.5469 50.7812 35.6109C49.7869 35.8697 48.9769 36.629 48.5007 37.7493C48.0033 38.9198 47.9296 40.3311 48.2927 41.7238ZM49.207 39.3904C49.3985 38.5366 49.834 37.8085 50.4328 37.3402C50.5491 37.2492 50.6968 37.2082 50.8433 37.2261C50.9899 37.2441 51.1233 37.3195 51.2143 37.4358C51.3052 37.5521 51.3462 37.6997 51.3283 37.8463C51.3104 37.9928 51.235 38.1263 51.1187 38.2172C50.7217 38.5275 50.4284 39.0307 50.2933 39.6342C50.261 39.7783 50.1727 39.9036 50.048 39.9826C49.9233 40.0616 49.7723 40.0878 49.6282 40.0555C49.4842 40.0232 49.3588 39.9349 49.2798 39.8102C49.2008 39.6855 49.1746 39.5345 49.207 39.3904ZM26.1863 53.4536C26.1867 53.0786 26.0759 52.7118 25.8678 52.3998C25.6598 52.0877 25.3638 51.8444 25.0175 51.7006C24.6711 51.5568 24.2898 51.5189 23.9219 51.5919C23.554 51.6648 23.216 51.8452 22.9507 52.1102C22.6854 52.3753 22.5046 52.713 22.4313 53.0809C22.3579 53.4487 22.3954 53.83 22.5388 54.1765C22.6822 54.523 22.9252 54.8192 23.237 55.0276C23.5488 55.2361 23.9154 55.3473 24.2905 55.3473C24.7928 55.347 25.2745 55.1475 25.63 54.7924C25.9854 54.4374 26.1854 53.9559 26.1863 53.4536ZM23.5081 53.4536C23.5077 53.2987 23.5532 53.1472 23.6389 53.0183C23.7247 52.8893 23.8467 52.7887 23.9897 52.7291C24.1327 52.6696 24.2901 52.6538 24.442 52.6838C24.5939 52.7137 24.7336 52.7881 24.8432 52.8974C24.9529 53.0068 25.0276 53.1463 25.0579 53.2981C25.0883 53.45 25.0729 53.6074 25.0137 53.7505C24.9545 53.8936 24.8542 54.016 24.7255 54.102C24.5967 54.1881 24.4454 54.234 24.2905 54.234C24.0833 54.234 23.8846 54.1519 23.7379 54.0056C23.5912 53.8593 23.5086 53.6608 23.5081 53.4536ZM15.7918 58.6739C15.6613 58.6739 15.5338 58.7127 15.4253 58.7852C15.3169 58.8577 15.2324 58.9608 15.1825 59.0813C15.1326 59.2019 15.1195 59.3345 15.145 59.4625C15.1705 59.5904 15.2333 59.708 15.3256 59.8002C15.4179 59.8924 15.5354 59.9553 15.6634 59.9807C15.7914 60.0061 15.924 59.993 16.0446 59.9431C16.1651 59.8932 16.2681 59.8086 16.3406 59.7001C16.4131 59.5916 16.4518 59.4641 16.4518 59.3336C16.4516 59.1587 16.382 58.991 16.2582 58.8673C16.1345 58.7436 15.9668 58.674 15.7918 58.6739ZM52.9009 20.0058C53.3032 20.0054 53.6963 19.8857 54.0306 19.6619C54.3649 19.4381 54.6253 19.1202 54.7789 18.7484C54.9325 18.3766 54.9725 17.9676 54.8937 17.5731C54.815 17.1786 54.621 16.8164 54.3364 16.5321C54.0518 16.2478 53.6893 16.0542 53.2947 15.9759C52.9001 15.8976 52.4912 15.9381 52.1196 16.0921C51.748 16.2462 51.4304 16.507 51.2069 16.8415C50.9835 17.176 50.8643 17.5693 50.8643 17.9715C50.8651 18.5112 51.08 19.0286 51.4618 19.41C51.8437 19.7914 52.3612 20.0057 52.9009 20.0058ZM52.9009 17.0504C53.083 17.0509 53.2609 17.1053 53.4121 17.2067C53.5633 17.3082 53.681 17.4522 53.7504 17.6206C53.8197 17.7889 53.8377 17.9741 53.8019 18.1526C53.7661 18.3311 53.6782 18.4951 53.5493 18.6237C53.4203 18.7523 53.2562 18.8398 53.0776 18.8751C52.899 18.9105 52.7139 18.8921 52.5457 18.8223C52.3775 18.7526 52.2338 18.6345 52.1327 18.4831C52.0315 18.3316 51.9776 18.1536 51.9776 17.9715C51.9781 17.727 52.0757 17.4927 52.2488 17.32C52.4219 17.1474 52.6564 17.0504 52.9009 17.0504ZM58.3092 15.0534C58.3106 15.1589 58.3429 15.2617 58.4021 15.349C58.4613 15.4363 58.5448 15.5043 58.6423 15.5447C58.7398 15.585 58.847 15.5959 58.9506 15.576C59.0541 15.556 59.1496 15.5061 59.2251 15.4325L59.2585 15.3991C59.3116 15.3457 59.3533 15.2822 59.3812 15.2124C59.4092 15.1425 59.4227 15.0677 59.4211 14.9925C59.4211 14.8279 59.4811 14.5649 59.7465 14.2028C60.0358 13.8281 60.1925 13.3679 60.192 12.8946C60.1916 12.4212 60.034 11.9614 59.744 11.5872C59.6979 11.5299 59.6408 11.4824 59.5762 11.4473C59.5115 11.4122 59.4405 11.3903 59.3673 11.3828C59.2941 11.3753 59.2202 11.3824 59.1498 11.4036C59.0793 11.4249 59.0138 11.4599 58.957 11.5067C58.9002 11.5534 58.8532 11.6109 58.8188 11.676C58.7843 11.741 58.7631 11.8122 58.7564 11.8854C58.7496 11.9587 58.7574 12.0326 58.7794 12.1028C58.8014 12.173 58.8371 12.2381 58.8844 12.2945C58.9612 12.4045 59.0174 12.5275 59.0504 12.6576C59.0883 12.811 59.0898 12.9711 59.0547 13.1251C59.0196 13.2792 58.949 13.4229 58.8484 13.5447C58.4366 14.1078 58.3041 14.6153 58.3092 15.0534ZM23.8149 16.8465C23.8293 16.9448 23.8707 17.0372 23.9345 17.1134C23.9983 17.1895 24.0821 17.2464 24.1764 17.2778C24.2707 17.3091 24.3719 17.3136 24.4686 17.2908C24.5653 17.2679 24.6538 17.2187 24.7241 17.1485L24.7668 17.1063C24.8276 17.0446 24.8729 16.9695 24.8992 16.887C24.9255 16.8045 24.932 16.717 24.918 16.6315C24.8801 16.3739 24.9229 15.9169 25.3955 15.2719C25.7616 14.7998 25.9629 14.2206 25.9685 13.6232C25.9742 13.0258 25.784 12.4429 25.427 11.9638C25.3447 11.8536 25.2256 11.7766 25.0914 11.7468C24.9571 11.717 24.8166 11.7364 24.6954 11.8015C24.6258 11.8416 24.5656 11.8962 24.519 11.9617C24.4724 12.0272 24.4405 12.1019 24.4254 12.1808C24.4103 12.2597 24.4125 12.341 24.4317 12.419C24.4509 12.497 24.4867 12.57 24.5366 12.6329C24.6118 12.7278 25.2491 13.5888 24.4977 14.6139C23.8611 15.4828 23.7371 16.2405 23.8149 16.8465ZM15.3461 46.6547C15.3422 46.6497 15.0058 46.0856 15.7542 45.0642C16.7802 43.6641 16.2053 42.2656 15.7581 41.7218C15.6644 41.6086 15.5298 41.537 15.3836 41.5226C15.2373 41.5082 15.0913 41.5522 14.9774 41.6451C14.8635 41.7379 14.7909 41.8721 14.7755 42.0182C14.7601 42.1644 14.8031 42.3107 14.8952 42.4252C14.9703 42.5201 15.6077 43.3812 14.8562 44.4069C13.8393 45.7943 14.1301 46.8985 14.4621 47.3321C14.5066 47.3902 14.562 47.4389 14.6253 47.4755C14.6885 47.5121 14.7584 47.5359 14.8309 47.5455C14.9033 47.5551 14.977 47.5504 15.0476 47.5315C15.1183 47.5127 15.1845 47.4801 15.2425 47.4356C15.3006 47.3912 15.3493 47.3358 15.3859 47.2725C15.4225 47.2092 15.4463 47.1394 15.4559 47.0669C15.4655 46.9944 15.4608 46.9208 15.4419 46.8501C15.4231 46.7795 15.3905 46.7133 15.3461 46.6552V46.6547ZM63.4543 42.0101C63.5013 41.952 63.5362 41.885 63.5568 41.8131C63.5774 41.7412 63.5833 41.6659 63.5742 41.5917C63.565 41.5174 63.541 41.4458 63.5036 41.3811C63.4662 41.3163 63.4161 41.2598 63.3563 41.2149C63.2349 41.1288 63.0847 41.0933 62.9376 41.1159C62.7905 41.1385 62.6579 41.2174 62.5679 41.336C62.2092 41.815 62.0177 42.3985 62.0228 42.9969C62.0278 43.5953 62.2291 44.1755 62.5958 44.6484C63.0684 45.2935 63.1112 45.7506 63.0732 46.008C63.0593 46.0935 63.0657 46.1812 63.0921 46.2637C63.1184 46.3463 63.1639 46.4215 63.2248 46.4831L63.2471 46.5054C63.321 46.5782 63.414 46.6287 63.5153 46.651C63.6167 46.6734 63.7223 46.6666 63.82 46.6316C63.9176 46.5966 64.0035 46.5348 64.0676 46.4531C64.1316 46.3715 64.1714 46.2735 64.1823 46.1703C64.2462 45.5731 64.1113 44.8344 63.4931 43.9905C62.7441 42.9674 63.3772 42.1076 63.4543 42.0101ZM61.2647 53.2683C61.1342 53.2684 61.0067 53.3071 60.8982 53.3796C60.7897 53.4522 60.7052 53.5552 60.6553 53.6758C60.6054 53.7963 60.5924 53.929 60.6179 54.0569C60.6434 54.1849 60.7062 54.3024 60.7985 54.3947C60.8908 54.4869 61.0083 54.5497 61.1363 54.5751C61.2642 54.6006 61.3969 54.5875 61.5174 54.5376C61.638 54.4876 61.741 54.4031 61.8135 54.2946C61.8859 54.1861 61.9246 54.0586 61.9246 53.9281C61.9244 53.7531 61.8548 53.5854 61.7311 53.4617C61.6074 53.338 61.4396 53.2685 61.2647 53.2683ZM51.9435 27.9817C51.9435 28.1122 51.9822 28.2398 52.0547 28.3483C52.1271 28.4569 52.2302 28.5415 52.3508 28.5914C52.4713 28.6414 52.604 28.6545 52.732 28.629C52.86 28.6036 52.9776 28.5407 53.0699 28.4485C53.1622 28.3562 53.225 28.2386 53.2505 28.1106C53.276 27.9826 53.2629 27.8499 53.213 27.7294C53.163 27.6088 53.0785 27.5057 52.97 27.4332C52.8614 27.3607 52.7339 27.322 52.6034 27.322C52.4284 27.3222 52.2607 27.3917 52.137 27.5154C52.0133 27.6391 51.9437 27.8068 51.9435 27.9817ZM28.7842 19.0196C28.9147 19.0195 29.0423 18.9808 29.1508 18.9082C29.2593 18.8357 29.3438 18.7326 29.3937 18.612C29.4435 18.4914 29.4565 18.3587 29.431 18.2308C29.4055 18.1028 29.3426 17.9853 29.2502 17.893C29.1579 17.8008 29.0403 17.7381 28.9122 17.7127C28.7842 17.6873 28.6516 17.7005 28.531 17.7506C28.4105 17.8006 28.3075 17.8853 28.2351 17.9938C28.1627 18.1024 28.1242 18.23 28.1243 18.3605C28.1247 18.5354 28.1944 18.7029 28.3181 18.8264C28.4418 18.95 28.6094 19.0194 28.7842 19.0196Z" fill="white"/>
</svg>
