<svg width="77" height="77" viewBox="0 0 77 77" fill="none" xmlns="http://www.w3.org/2000/svg">
<path d="M0 0H77V77H0V0Z" fill="#2C2C2C"/>
<path d="M60.4407 27.888C60.3887 27.801 60.3364 27.7153 60.2837 27.6309C57.8549 23.7494 53.1527 21.7691 48.5819 22.7027C47.5348 22.9166 45.9779 23.3531 44.5066 24.2182C43.0205 25.0918 41.9801 26.1908 41.4141 27.4846C40.476 29.6292 40.8883 32.1826 42.6397 35.0746C45.0222 39.0094 44.4488 43.0575 43.9423 46.629C43.6357 48.7912 43.3709 50.6585 43.7786 52.2495C44.2462 54.0731 45.5799 55.2506 47.8572 55.8494C48.2609 55.9561 48.6766 56.0102 49.0941 56.0104C51.2549 56.0104 53.4786 54.5607 55.5945 51.7518C60.3844 45.3933 63.5613 33.1326 60.4407 27.888ZM43.802 22.3427C43.9985 22.3427 44.1946 22.3244 44.3877 22.2881C45.4181 22.0946 46.2861 21.4198 46.8315 20.388C47.3547 19.3984 47.5179 18.19 47.2915 16.9857C46.8151 14.4521 44.7373 12.7087 42.6602 13.0984C41.6299 13.2919 40.762 13.9668 40.2166 14.9986C39.6933 15.9882 39.53 17.1965 39.7566 18.4009C40.1877 20.6958 41.933 22.3427 43.802 22.3427ZM50.9525 21.109C51.0182 21.1138 51.0836 21.1162 51.1487 21.1162C52.8074 21.1162 54.2358 19.591 54.3791 17.6165C54.459 16.6769 54.2116 15.7387 53.6788 14.9607C53.1333 14.1887 52.3565 13.7289 51.4923 13.6663C49.752 13.5395 48.2146 15.107 48.0658 17.1589C47.9859 18.0984 48.2333 19.0365 48.7659 19.8145C49.3119 20.5869 50.0884 21.0464 50.9525 21.109ZM57.0843 21.6571C57.1331 21.6607 57.1816 21.6624 57.2299 21.6623C58.4457 21.6623 59.4918 20.5579 59.5956 19.1271C59.6525 18.45 59.4737 17.774 59.0892 17.2137C58.9091 16.944 58.6704 16.7184 58.3911 16.5537C58.1117 16.3889 57.7988 16.2892 57.4757 16.262C56.1995 16.1699 55.0722 17.3044 54.9643 18.792C54.9072 19.4693 55.0861 20.1455 55.4706 20.706C55.6509 20.9756 55.8896 21.2011 56.1689 21.3657C56.4483 21.5304 56.7612 21.63 57.0843 21.6571ZM59.2836 23.2767C59.3761 23.5504 59.529 23.7997 59.7311 24.0061C59.9332 24.2125 60.1792 24.3706 60.4509 24.4688C60.6421 24.5355 60.8432 24.5694 61.0457 24.569C61.9446 24.569 62.8315 23.9106 63.1876 22.8925C63.3918 22.3293 63.3949 21.7129 63.1964 21.1477C63.1039 20.874 62.9509 20.6247 62.7489 20.4183C62.5468 20.2119 62.3007 20.0537 62.0291 19.9555C60.9551 19.5803 59.7276 20.2873 59.2923 21.5314C59.088 22.0947 59.085 22.7114 59.2836 23.2767ZM65.1037 24.5824C64.2309 23.8532 62.8327 24.0823 61.9866 25.0933C61.597 25.5483 61.3768 26.124 61.3631 26.7229C61.3531 27.0116 61.4084 27.2988 61.5248 27.5632C61.6411 27.8276 61.8157 28.0624 62.0353 28.25C62.3767 28.5311 62.8066 28.6821 63.2488 28.6763C63.6151 28.6676 63.9751 28.5793 64.3039 28.4174C64.6326 28.2556 64.9222 28.0241 65.1525 27.7391C65.5421 27.284 65.7624 26.7082 65.7759 26.1092C65.7859 25.8206 65.7307 25.5334 65.6143 25.269C65.4979 25.0046 65.3234 24.7699 65.1037 24.5824ZM26.8423 32.9156C22.1942 33.3153 18.2465 36.547 17.0189 40.9573C16.9922 41.0533 16.9662 41.1504 16.941 41.2486C15.4917 46.9453 20.7493 56.3795 26.4184 61.0094C28.8018 62.9555 31.1176 63.9559 33.1585 63.9558C33.9981 63.9624 34.8282 63.7773 35.5854 63.4145C37.7372 62.3741 38.7827 61.0697 38.8757 59.3096C38.9568 57.7805 38.3031 56.1235 37.5461 54.2049C36.3043 51.0573 34.8965 47.4896 36.0511 43.0963C36.9099 39.8274 36.5809 37.2619 35.0731 35.4711C34.1633 34.3907 32.8538 33.6316 31.1807 33.2148C29.5239 32.8014 27.907 32.8239 26.8423 32.9156ZM19.1162 44.8787C19.0931 44.7438 19.0719 44.6096 19.0529 44.4761C19.032 44.33 19.07 44.1815 19.1586 44.0634C19.2472 43.9453 19.3791 43.8672 19.5252 43.8464C19.6714 43.8255 19.8198 43.8635 19.938 43.9521C20.0561 44.0407 20.1341 44.1726 20.155 44.3187C20.1726 44.4419 20.1921 44.5657 20.2136 44.6903C20.2259 44.7624 20.224 44.8362 20.2079 44.9075C20.1917 44.9788 20.1617 45.0462 20.1195 45.1059C20.0773 45.1656 20.0237 45.2164 19.9619 45.2553C19.9001 45.2943 19.8312 45.3208 19.7591 45.3332C19.6871 45.3455 19.6133 45.3436 19.542 45.3274C19.4707 45.3113 19.4033 45.2813 19.3436 45.2391C19.2839 45.1969 19.2331 45.1433 19.1941 45.0815C19.1551 45.0197 19.1286 44.9508 19.1162 44.8787ZM23.2598 53.4101C23.1975 53.4483 23.1283 53.4739 23.0561 53.4853C22.9839 53.4968 22.9101 53.4939 22.8391 53.4768C22.768 53.4598 22.7009 53.4289 22.6418 53.3859C22.5827 53.3429 22.5326 53.2888 22.4944 53.2264C21.2038 51.1212 20.2028 48.9394 19.5998 46.9171C19.5789 46.8471 19.572 46.7736 19.5795 46.7009C19.587 46.6282 19.6088 46.5576 19.6435 46.4933C19.7137 46.3634 19.8326 46.2668 19.9741 46.2246C20.1156 46.1824 20.268 46.1981 20.3979 46.2683C20.5278 46.3385 20.6245 46.4574 20.6667 46.5988C21.2428 48.5301 22.203 50.6206 23.4439 52.6446C23.4821 52.707 23.5076 52.7762 23.5191 52.8485C23.5305 52.9207 23.5276 52.9945 23.5105 53.0656C23.4934 53.1367 23.4625 53.2037 23.4195 53.2628C23.3764 53.322 23.3222 53.3719 23.2598 53.4101ZM30.4238 31.346C30.5316 31.346 30.6394 31.3406 30.7467 31.3296C31.7896 31.2232 32.711 30.6235 33.3412 29.6411C33.9455 28.6989 34.2095 27.5085 34.0852 26.2894C33.8231 23.7249 31.9001 21.8125 29.7963 22.0275C28.7532 22.1339 27.8318 22.7335 27.2016 23.716C26.5974 24.6583 26.3333 25.8486 26.4576 27.0678C26.7058 29.5006 28.45 31.3461 30.4238 31.346ZM23.1562 32.2327C23.4841 32.2332 23.8094 32.1744 24.1163 32.0591C24.9272 31.7541 25.5413 31.0933 25.8459 30.198C26.136 29.3009 26.107 28.3311 25.7637 27.453C25.0388 25.5275 23.1203 24.4607 21.4871 25.0748C20.6761 25.3796 20.0621 26.0405 19.7575 26.9357C19.4673 27.8328 19.4963 28.8027 19.8395 29.6809C20.4257 31.2373 21.7915 32.2327 23.1562 32.2327ZM17.6799 34.4509C17.923 34.4513 18.1641 34.4076 18.3917 34.3221C18.6939 34.2045 18.9657 34.0202 19.1868 33.7831C19.408 33.5459 19.5729 33.2619 19.6692 32.9522C19.8789 32.3057 19.8586 31.6065 19.6116 30.9732C19.0862 29.5773 17.6838 28.8081 16.4858 29.2587C16.1835 29.3764 15.9117 29.5607 15.6905 29.7978C15.4693 30.035 15.3045 30.319 15.2081 30.6287C14.9985 31.2753 15.0188 31.9744 15.2657 32.6077C15.6894 33.7331 16.6829 34.4509 17.6799 34.4509ZM14.8713 38.3151C15.2616 38.3188 15.6431 38.1989 15.9611 37.9724C16.1938 37.8012 16.3849 37.5798 16.5201 37.3245C16.6554 37.0693 16.7314 36.7868 16.7424 36.4982C16.7723 35.8999 16.5944 35.3096 16.2389 34.8275C15.4687 33.7579 14.0903 33.4281 13.1675 34.0918C12.9348 34.263 12.7437 34.4844 12.6085 34.7397C12.4732 34.9949 12.3972 35.2773 12.3862 35.566C12.3562 36.1643 12.5341 36.7546 12.8897 37.2367C13.3907 37.9324 14.1485 38.3153 14.8713 38.3151ZM12.3806 42.4406C12.8095 42.7299 13.314 42.8864 13.8312 42.8907C14.5131 42.8907 15.1463 42.6005 15.5143 42.0473C15.6718 41.8051 15.7726 41.5305 15.8092 41.2439C15.8458 40.9573 15.8173 40.6662 15.7257 40.3922C15.5427 39.8217 15.1681 39.3321 14.6654 39.0062C13.5674 38.2765 12.1617 38.453 11.5316 39.3995C11.3742 39.6417 11.2734 39.9163 11.2368 40.2028C11.2002 40.4894 11.2287 40.7805 11.3201 41.0545C11.5031 41.625 11.8777 42.1146 12.3804 42.4405L12.3806 42.4406Z" fill="white"/>
</svg>
