<svg width="77" height="77" viewBox="0 0 77 77" fill="none" xmlns="http://www.w3.org/2000/svg">
<path d="M0 0H77V77H0V0Z" fill="#2C2C2C"/>
<path d="M65.8311 49.4244C65.2008 46.7826 63.3692 44.2188 60.7599 42.2914C61.7752 41.5796 62.6486 40.7419 63.3318 39.7967C63.5851 39.4473 63.7215 39.0268 63.7215 38.5952C63.7215 38.1637 63.5851 37.7431 63.3318 37.3937C62.6186 36.4071 61.6995 35.5369 60.6269 34.8056C63.3082 32.8671 65.1881 30.2683 65.8307 27.5776C66.0389 26.7058 65.6572 25.8017 64.8808 25.3279C63.4654 24.464 61.722 23.9217 59.839 23.7599C59.4705 23.7272 59.1479 24.0007 59.1164 24.3682C59.1012 24.5447 59.1567 24.72 59.2708 24.8555C59.3848 24.9911 59.5481 25.0758 59.7246 25.091C61.4027 25.2351 62.945 25.7113 64.1848 26.4681C64.4654 26.6393 64.6045 26.9605 64.5313 27.2672C63.926 29.8023 62.0486 32.267 59.3715 34.0511L59.3626 34.0464V31.4142C59.3626 30.5039 59.001 29.6308 58.3573 28.9871L56.4621 27.0918C56.9922 25.3595 57.1512 23.6104 56.8932 21.9664C56.8255 21.5298 56.6207 21.126 56.3084 20.8135C55.9961 20.5009 55.5924 20.2959 55.1558 20.228C54.2703 20.0887 53.3535 20.0715 52.4251 20.1674C52.4316 19.9868 52.4359 19.8071 52.4359 19.63C52.4359 17.2601 51.8759 15.09 50.8165 13.3544C50.3427 12.5781 49.44 12.1955 48.5717 12.4021C46.3051 12.9412 44.093 14.3597 42.2837 16.4202C41.5731 15.4085 40.7375 14.5382 39.795 13.8568C39.4456 13.6035 39.0251 13.4671 38.5935 13.4671C38.162 13.4671 37.7414 13.6035 37.392 13.8568C36.4127 14.5649 35.5481 15.4761 34.82 16.5389C32.9922 14.414 30.746 12.954 28.4319 12.4028C27.561 12.1956 26.6581 12.578 26.1842 13.3544C25.1241 15.0908 24.5637 17.2605 24.5637 19.6289C24.5637 19.8018 24.567 19.976 24.573 20.1503C23.7081 20.075 22.855 20.0983 22.0299 20.2283C21.5934 20.2962 21.19 20.5013 20.8779 20.8138C20.5658 21.1263 20.3612 21.53 20.2938 21.9665C20.1992 22.5693 20.1615 23.1864 20.1766 23.8115C17.1529 23.4597 14.3133 23.99 12.1219 25.3268C11.344 25.801 10.9617 26.7065 11.1702 27.5798C11.609 29.4156 12.628 31.2292 14.1171 32.8243C14.1795 32.8913 14.2551 32.9447 14.3391 32.9812C14.4231 33.0177 14.5138 33.0365 14.6054 33.0363C14.7355 33.0363 14.8628 32.9983 14.9716 32.9269C15.0805 32.8555 15.166 32.7539 15.2179 32.6345C15.2698 32.5152 15.2856 32.3832 15.2635 32.255C15.2414 32.1267 15.1824 32.0077 15.0936 31.9126C13.7621 30.4864 12.8548 28.8807 12.4696 27.2693C12.3961 26.9614 12.5358 26.6391 12.8175 26.4673C14.7884 25.265 17.4977 24.801 20.2914 25.1746C20.3834 25.8118 20.5294 26.4527 20.7249 27.0915L18.8293 28.9871C18.1856 29.6308 17.824 30.5039 17.824 31.4142V34.0465C16.2027 34.9039 14.8345 36.0389 13.8551 37.3937C13.6019 37.7431 13.4655 38.1637 13.4655 38.5952C13.4655 39.0268 13.6019 39.4473 13.8551 39.7967C14.5169 40.7122 15.3565 41.5268 16.3311 42.224C13.6727 44.1597 11.8062 46.7531 11.1691 49.4247C10.9616 50.2955 11.3441 51.1991 12.1212 51.6731C13.872 52.7412 16.0362 53.2947 18.3768 53.2947C18.9689 53.2947 19.5723 53.2592 20.1829 53.1878C20.1542 53.8785 20.1896 54.5602 20.2938 55.2244C20.3612 55.6607 20.5657 56.0643 20.8778 56.3768C21.1898 56.6892 21.5931 56.8942 22.0294 56.9622C22.5518 57.0438 23.0798 57.0844 23.6085 57.0836C24.7709 57.0836 25.9668 56.8935 27.1554 56.5296L28.9845 58.3587C29.3032 58.6775 29.6816 58.9303 30.0981 59.1028C30.5145 59.2753 30.9608 59.3641 31.4116 59.3641H33.9958C32.3161 61.3989 30.2383 62.7932 28.1206 63.2972C27.822 63.368 27.5013 63.2362 27.3411 62.9759C26.7763 62.0592 26.3701 60.9937 26.1336 59.8092C26.0989 59.6355 25.9967 59.4826 25.8493 59.3843C25.7019 59.286 25.5215 59.2503 25.3478 59.285C25.174 59.3196 25.0212 59.4219 24.9229 59.5693C24.8246 59.7167 24.7888 59.8971 24.8235 60.0708C25.0913 61.4112 25.5555 62.6245 26.2037 63.6765C26.3871 63.9751 26.644 64.2216 26.9498 64.3926C27.2557 64.5636 27.6002 64.6533 27.9506 64.6532C28.1094 64.6532 28.2701 64.6348 28.4298 64.5969C30.7107 64.0541 32.9319 62.6234 34.7473 60.5437C35.4902 61.6527 36.3797 62.6018 37.392 63.3336C37.7414 63.5869 38.1619 63.7233 38.5935 63.7233C39.025 63.7233 39.4455 63.5869 39.7949 63.3336C40.7709 62.6281 41.6326 61.7207 42.3592 60.6628C44.1549 62.6775 46.3367 64.0655 48.5717 64.5971C48.7288 64.6344 48.8868 64.6525 49.0433 64.6525C49.7527 64.6525 50.4284 64.2807 50.8165 63.645C51.8766 61.9084 52.437 59.7387 52.437 57.3702C52.437 57.255 52.4348 57.1394 52.4321 57.024C52.8151 57.0633 53.1959 57.0841 53.5736 57.0841C54.1091 57.0841 54.6383 57.0439 55.1562 56.9623C55.5927 56.8945 55.9963 56.6895 56.3085 56.3771C56.6208 56.0647 56.8255 55.661 56.8932 55.2245C56.9965 54.5666 57.032 53.8917 57.0047 53.2078C57.5495 53.2648 58.0884 53.2938 58.6183 53.2938C60.973 53.2937 63.1508 52.7345 64.9019 51.6594C65.6649 51.1911 66.0383 50.2929 65.8311 49.4243V49.4244ZM62.2491 38.1764C62.4275 38.4231 62.4275 38.7675 62.2491 39.0141C60.1996 41.8495 56.1851 43.6108 51.7728 43.6108C50.0562 43.6108 48.4077 43.3459 46.9134 42.8599C46.4795 42.1816 45.7112 41.5435 44.5081 41.0452C51.4555 43.9229 51.4555 33.2676 44.5081 36.1453C45.7112 35.6469 46.4795 35.0087 46.9134 34.3304C48.4077 33.8446 50.0562 33.5795 51.7728 33.5795C56.1852 33.5795 60.1995 35.341 62.2491 38.1764ZM54.948 21.5478C55.1052 21.5723 55.2505 21.6462 55.3629 21.7587C55.4753 21.8712 55.549 22.0166 55.5734 22.1738C56.0769 25.381 54.6863 29.2319 51.9424 32.2459C51.8858 32.2454 51.8295 32.2437 51.7728 32.2437C50.2403 32.2437 48.7547 32.4416 47.3662 32.8096C47.3553 31.2339 45.9548 29.8334 44.3793 29.8225C44.7471 28.4342 44.9451 26.9485 44.9451 25.4159C44.9451 25.3171 44.9429 25.2187 44.9413 25.1201C47.9438 22.4153 51.7686 21.0475 54.948 21.5478ZM48.8808 13.7019C49.1846 13.6294 49.5049 13.7696 49.6763 14.0506C50.6077 15.5765 51.1 17.5058 51.1 19.6301C51.1 19.8777 51.0904 20.1309 51.0765 20.3852C50.7276 20.4614 50.3785 20.5529 50.0298 20.6597L48.2021 18.8319C47.5584 18.1882 46.6854 17.8266 45.775 17.8266H43.1426C43.104 17.7538 43.0658 17.6807 43.0262 17.6089C44.7017 15.5888 46.7734 14.2031 48.8808 13.7019ZM38.1747 14.9396C38.298 14.8506 38.4457 14.8059 38.5935 14.8059C38.7412 14.8059 38.8889 14.8505 39.0124 14.9397C41.8477 16.9893 43.6091 21.0036 43.6091 25.4159C43.6091 27.1326 43.3441 28.7811 42.8582 30.2754C42.1799 30.7093 41.5418 31.4774 41.0434 32.6807C43.9211 25.7332 33.2658 25.7332 36.1435 32.6807C35.6452 31.4775 35.007 30.7093 34.3288 30.2754C33.8429 28.7811 33.5778 27.1326 33.5778 25.4159C33.5778 21.0037 35.3392 16.9894 38.1747 14.9396ZM25.8996 19.629C25.8996 17.5063 26.3922 15.5773 27.3243 14.0507C27.496 13.7696 27.8169 13.6293 28.1223 13.7025C30.2815 14.2168 32.3924 15.6511 34.0872 17.7465C34.0729 17.7731 34.0586 17.7999 34.0445 17.8267H31.4116C30.5013 17.8267 29.6283 18.1883 28.9846 18.832L27.1555 20.6609C26.7492 20.5359 26.3371 20.4306 25.9206 20.3455C25.9073 20.1069 25.9004 19.868 25.8996 19.629ZM21.6136 22.1738C21.6377 22.0168 21.7112 21.8715 21.8234 21.7589C21.9356 21.6464 22.0807 21.5725 22.2377 21.548C25.413 21.048 29.2463 22.4161 32.2457 25.119C32.244 25.2179 32.2419 25.3167 32.2419 25.4159C32.2419 26.9485 32.4398 28.4342 32.8078 29.8225C31.232 29.8334 29.8315 31.2338 29.8206 32.8095C28.4323 32.4416 26.9467 32.2437 25.4142 32.2437C25.3575 32.2437 25.3011 32.2454 25.2445 32.2459C22.5008 29.2319 21.1101 25.3811 21.6136 22.1738ZM14.9378 39.0141C14.7595 38.7674 14.7595 38.423 14.9378 38.1764C16.9874 35.341 21.0019 33.5796 25.4141 33.5796C27.1308 33.5796 28.7791 33.8446 30.2736 34.3304C30.7073 35.0087 31.4756 35.6469 32.6788 36.1453C25.7314 33.2676 25.7314 43.9229 32.6788 41.0452C31.4756 41.5435 30.7073 42.1816 30.2735 42.8599C28.7791 43.3459 27.1308 43.611 25.4141 43.611C21.0019 43.611 16.9876 41.8495 14.9378 39.0141ZM12.817 50.5327C12.5357 50.3611 12.3959 50.0404 12.4686 49.7347C13.0663 47.2282 14.9178 44.7782 17.5542 42.9982C17.6432 43.0478 17.7335 43.096 17.8239 43.1438V45.7764C17.8239 46.6868 18.1856 47.5599 18.8292 48.2036L20.7253 50.0995C20.552 50.6634 20.4175 51.2385 20.3229 51.8207C17.5184 52.2028 14.7958 51.7399 12.817 50.5327ZM22.2374 55.6425C22.0805 55.618 21.9355 55.5441 21.8233 55.4317C21.7112 55.3192 21.6377 55.174 21.6136 55.0171C21.1102 51.8119 22.5011 47.9575 25.2442 44.9447C25.3009 44.9452 25.3573 44.9469 25.4141 44.9469C26.9467 44.9469 28.4322 44.749 29.8206 44.381C29.8315 45.9566 31.232 47.3571 32.8078 47.3679C32.4398 48.7564 32.2419 50.2421 32.2419 51.7747C32.2419 51.8747 32.2441 51.9744 32.2457 52.0741C32.2412 52.078 32.236 52.0805 32.2315 52.0845C29.2353 54.7785 25.405 56.1417 22.2374 55.6425ZM39.0123 62.251C38.7656 62.4291 38.4214 62.4291 38.1745 62.251C35.3391 60.2012 33.5778 56.1869 33.5778 51.7747C33.5778 50.058 33.8429 48.4094 34.3288 46.9152C35.007 46.4812 35.6452 45.7131 36.1435 44.5099C33.2658 51.4573 43.9211 51.4573 41.0434 44.5099C41.5418 45.7131 42.1799 46.4813 42.8581 46.9152C43.3441 48.4095 43.6091 50.058 43.6091 51.7747C43.6091 56.1869 41.8477 60.2013 39.0124 62.251H39.0123ZM51.1011 57.3703C51.1011 59.493 50.6083 61.422 49.6763 62.9489C49.5049 63.2296 49.1848 63.3697 48.8808 63.2973C46.8 62.8025 44.7534 61.4445 43.0887 59.4647C43.1067 59.4314 43.1246 59.3978 43.1425 59.3641H45.775C46.2258 59.3641 46.6721 59.2753 47.0886 59.1029C47.505 58.9304 47.8834 58.6775 48.2021 58.3588L50.0299 56.531C50.3823 56.639 50.7354 56.7321 51.0881 56.8088C51.0958 56.9953 51.1011 57.1829 51.1011 57.3702V57.3703ZM55.5732 55.0171C55.549 55.1742 55.4754 55.3195 55.3631 55.432C55.2507 55.5445 55.1055 55.6183 54.9485 55.6427C51.7694 56.1433 47.943 54.7752 44.9412 52.0706C44.943 51.972 44.9451 51.8735 44.9451 51.7747C44.9451 50.2421 44.7471 48.7564 44.3792 47.3681C45.9548 47.3571 47.3553 45.9566 47.3662 44.3811C48.7546 44.749 50.2403 44.9469 51.7728 44.9469C51.8296 44.9469 51.8862 44.9452 51.9428 44.9447C54.686 47.9575 56.0768 51.8119 55.5732 55.0171ZM64.203 50.5209C62.243 51.7243 59.6474 52.1897 56.8681 51.8457C56.7732 51.2548 56.6374 50.6713 56.4615 50.0993L58.3574 48.2036C58.6762 47.8848 58.929 47.5064 59.1015 47.09C59.274 46.6735 59.3628 46.2272 59.3627 45.7764V43.144C59.4184 43.1145 59.4741 43.0852 59.5293 43.055C62.121 44.8292 63.9398 47.2537 64.5317 49.7345C64.6034 50.0347 64.4683 50.3581 64.203 50.5209Z" fill="white"/>
</svg>
