<svg width="139" height="36" viewBox="0 0 139 36" fill="none" xmlns="http://www.w3.org/2000/svg">
<g clip-path="url(#clip0_148_39)">
<path d="M138.338 18.5825H110.969C110.644 18.5825 110.381 18.3207 110.381 17.9967C110.381 17.6726 110.644 17.4108 110.969 17.4108H136.916L133.344 13.8555C133.114 13.6266 133.114 13.255 133.344 13.0261C133.574 12.7973 133.948 12.7973 134.178 13.0261L138.756 17.5829C138.925 17.7513 138.974 18.0022 138.883 18.2218C138.791 18.4397 138.575 18.5825 138.338 18.5825Z" fill="#CDA961"/>
<path d="M133.754 23.1445C133.604 23.1445 133.453 23.0878 133.339 22.9724C133.109 22.7436 133.109 22.3719 133.339 22.1431L137.922 17.5808C138.152 17.352 138.526 17.352 138.755 17.5808C138.985 17.8097 138.985 18.1813 138.755 18.4102L134.172 22.9724C134.056 23.0878 133.905 23.1445 133.754 23.1445Z" fill="#CDA961"/>
</g>
<path d="M125.037 7.8529V1H1V35.2645H125.037V28.4116" stroke="#CDA961" stroke-width="1.37058"/>
<path d="M33.4179 23.2236V21.6696H35.9799C36.4372 21.6696 36.7919 21.5296 37.0439 21.2496C37.3052 20.9696 37.4359 20.6383 37.4359 20.2556C37.4359 19.9943 37.3799 19.7563 37.2679 19.5416C37.1559 19.327 36.9879 19.159 36.7639 19.0376C36.5492 18.907 36.2879 18.8416 35.9799 18.8416H33.4179V17.3016H35.7699C36.1619 17.3016 36.4746 17.2036 36.7079 17.0076C36.9506 16.8116 37.0719 16.5176 37.0719 16.1256C37.0719 15.7243 36.9506 15.4256 36.7079 15.2296C36.4746 15.0336 36.1619 14.9356 35.7699 14.9356H33.4179V13.3816H35.9939C36.6472 13.3816 37.1932 13.503 37.6319 13.7456C38.0799 13.979 38.4159 14.2916 38.6399 14.6836C38.8639 15.0663 38.9759 15.4863 38.9759 15.9436C38.9759 16.5036 38.8032 16.989 38.4579 17.3996C38.1219 17.801 37.6272 18.0996 36.9739 18.2956L37.0579 17.6796C37.7859 17.885 38.3459 18.2256 38.7379 18.7016C39.1392 19.1683 39.3399 19.733 39.3399 20.3956C39.3399 20.9183 39.2092 21.3943 38.9479 21.8236C38.6959 22.2436 38.3226 22.5843 37.8279 22.8456C37.3426 23.0976 36.7499 23.2236 36.0499 23.2236H33.4179ZM32.0179 23.2236V13.3816H33.9079V23.2236H32.0179ZM43.8319 23.3636C43.1506 23.3636 42.5346 23.2096 41.9839 22.9016C41.4426 22.5843 41.0086 22.1596 40.6819 21.6276C40.3646 21.0863 40.2059 20.4843 40.2059 19.8216C40.2059 19.159 40.3646 18.5663 40.6819 18.0436C40.9993 17.5116 41.4333 17.0916 41.9839 16.7836C42.5346 16.4663 43.1459 16.3076 43.8179 16.3076C44.5086 16.3076 45.1246 16.4663 45.6659 16.7836C46.2166 17.0916 46.6506 17.5116 46.9679 18.0436C47.2853 18.5663 47.4439 19.159 47.4439 19.8216C47.4439 20.4843 47.2853 21.0863 46.9679 21.6276C46.6506 22.1596 46.2166 22.5843 45.6659 22.9016C45.1246 23.2096 44.5133 23.3636 43.8319 23.3636ZM43.8179 21.6556C44.1633 21.6556 44.4666 21.581 44.7279 21.4316C44.9986 21.273 45.2039 21.0583 45.3439 20.7876C45.4933 20.5076 45.5679 20.1903 45.5679 19.8356C45.5679 19.481 45.4933 19.1683 45.3439 18.8976C45.1946 18.627 44.9893 18.417 44.7279 18.2676C44.4666 18.109 44.1633 18.0296 43.8179 18.0296C43.4819 18.0296 43.1833 18.109 42.9219 18.2676C42.6606 18.417 42.4553 18.627 42.3059 18.8976C42.1566 19.1683 42.0819 19.481 42.0819 19.8356C42.0819 20.1903 42.1566 20.5076 42.3059 20.7876C42.4553 21.0583 42.6606 21.273 42.9219 21.4316C43.1833 21.581 43.4819 21.6556 43.8179 21.6556ZM51.8026 23.3636C51.1213 23.3636 50.5053 23.2096 49.9546 22.9016C49.4133 22.5843 48.9793 22.1596 48.6526 21.6276C48.3353 21.0863 48.1766 20.4843 48.1766 19.8216C48.1766 19.159 48.3353 18.5663 48.6526 18.0436C48.97 17.5116 49.404 17.0916 49.9546 16.7836C50.5053 16.4663 51.1166 16.3076 51.7886 16.3076C52.4793 16.3076 53.0953 16.4663 53.6366 16.7836C54.1873 17.0916 54.6213 17.5116 54.9386 18.0436C55.256 18.5663 55.4146 19.159 55.4146 19.8216C55.4146 20.4843 55.256 21.0863 54.9386 21.6276C54.6213 22.1596 54.1873 22.5843 53.6366 22.9016C53.0953 23.2096 52.484 23.3636 51.8026 23.3636ZM51.7886 21.6556C52.134 21.6556 52.4373 21.581 52.6986 21.4316C52.9693 21.273 53.1746 21.0583 53.3146 20.7876C53.464 20.5076 53.5386 20.1903 53.5386 19.8356C53.5386 19.481 53.464 19.1683 53.3146 18.8976C53.1653 18.627 52.96 18.417 52.6986 18.2676C52.4373 18.109 52.134 18.0296 51.7886 18.0296C51.4526 18.0296 51.154 18.109 50.8926 18.2676C50.6313 18.417 50.426 18.627 50.2766 18.8976C50.1273 19.1683 50.0526 19.481 50.0526 19.8356C50.0526 20.1903 50.1273 20.5076 50.2766 20.7876C50.426 21.0583 50.6313 21.273 50.8926 21.4316C51.154 21.581 51.4526 21.6556 51.7886 21.6556ZM60.9073 23.2236L58.2893 19.7376L60.8933 16.4616H63.0073L59.9553 20.1576L60.0253 19.2616L63.1473 23.2236H60.9073ZM56.5953 23.2236V13.1016H58.4293V23.2236H56.5953ZM66.9222 23.2236V13.3816H68.2522L68.8262 15.2856V23.2236H66.9222ZM73.7262 23.2236L67.8882 15.6636L68.2522 13.3816L74.0902 20.9416L73.7262 23.2236ZM73.7262 23.2236L73.1802 21.3756V13.3816H75.0982V23.2236H73.7262ZM80.0761 23.3636C79.3947 23.3636 78.7787 23.2096 78.2281 22.9016C77.6867 22.5843 77.2527 22.1596 76.9261 21.6276C76.6087 21.0863 76.4501 20.4843 76.4501 19.8216C76.4501 19.159 76.6087 18.5663 76.9261 18.0436C77.2434 17.5116 77.6774 17.0916 78.2281 16.7836C78.7787 16.4663 79.3901 16.3076 80.0621 16.3076C80.7527 16.3076 81.3687 16.4663 81.9101 16.7836C82.4607 17.0916 82.8947 17.5116 83.2121 18.0436C83.5294 18.5663 83.6881 19.159 83.6881 19.8216C83.6881 20.4843 83.5294 21.0863 83.2121 21.6276C82.8947 22.1596 82.4607 22.5843 81.9101 22.9016C81.3687 23.2096 80.7574 23.3636 80.0761 23.3636ZM80.0621 21.6556C80.4074 21.6556 80.7107 21.581 80.9721 21.4316C81.2427 21.273 81.4481 21.0583 81.5881 20.7876C81.7374 20.5076 81.8121 20.1903 81.8121 19.8356C81.8121 19.481 81.7374 19.1683 81.5881 18.8976C81.4387 18.627 81.2334 18.417 80.9721 18.2676C80.7107 18.109 80.4074 18.0296 80.0621 18.0296C79.7261 18.0296 79.4274 18.109 79.1661 18.2676C78.9047 18.417 78.6994 18.627 78.5501 18.8976C78.4007 19.1683 78.3261 19.481 78.3261 19.8356C78.3261 20.1903 78.4007 20.5076 78.5501 20.7876C78.6994 21.0583 78.9047 21.273 79.1661 21.4316C79.4274 21.581 79.7261 21.6556 80.0621 21.6556ZM86.5244 23.2236L83.9904 16.4616H85.8384L87.4904 21.3756L86.9304 21.3896L88.6244 16.4616H89.9544L91.6484 21.3896L91.0884 21.3756L92.7404 16.4616H94.5884L92.0684 23.2236H90.7384L89.0304 18.5476H89.5484L87.8404 23.2236H86.5244Z" fill="#CDA961"/>
<defs>
<clipPath id="clip0_148_39">
<rect width="28.6931" height="28.56" fill="white" transform="translate(110.307 3.7207)"/>
</clipPath>
</defs>
</svg>
