<svg width="77" height="77" viewBox="0 0 77 77" fill="none" xmlns="http://www.w3.org/2000/svg">
<path d="M0 0H77V77H0V0Z" fill="#2C2C2C"/>
<g clip-path="url(#clip0_142_2496)">
<path d="M26.0205 51.2025L32.3217 48.2857C32.4776 48.2078 32.7447 48.0631 32.7447 47.8516V44.701C31.8319 44.0664 30.9858 43.2648 30.2176 42.3297C28.7926 40.593 27.7684 38.4889 27.2785 36.3625C26.9668 36.9303 26.4547 37.3199 26.0428 37.6316C25.3526 38.1549 24.9963 38.4666 24.9963 39.168C24.9963 39.8693 25.3526 40.1811 26.0428 40.7043C26.6885 41.1941 27.568 41.8621 27.568 43.1424V44.0553C27.568 44.5451 27.1672 44.9459 26.6774 44.9459C26.1875 44.9459 25.7867 44.5451 25.7867 44.0553V43.1424C25.7867 42.7861 25.5641 42.5746 24.9629 42.1182C24.2281 41.5615 23.2151 40.7822 23.2151 39.168C23.2151 37.5426 24.2281 36.7744 24.9629 36.2066C25.5641 35.7502 25.7867 35.5498 25.7867 35.1824V34.9598C25.0965 34.6258 24.6289 33.9244 24.6289 33.1117V29.2486C24.6289 28.4248 25.1188 27.7123 25.8201 27.3895V25.2631C25.8201 24.7176 25.8535 24.1832 25.9315 23.66C22.4024 29.0928 19.9197 36.6297 19.274 44.3447L18.6395 51.915C18.6061 52.3826 18.2053 52.7277 17.7488 52.7277H17.6709C17.1811 52.6832 16.8137 52.2602 16.8582 51.7703L17.4928 44.2C18.3834 33.5904 22.6584 23.2592 28.4029 17.8375C29.5051 16.4348 30.919 15.2881 32.5332 14.4977V14.1748C28.2248 15.9672 24.3283 19.7078 21.2111 25.085C18.1385 30.3842 16.0233 37.0639 15.4109 43.4096L13.6965 61.4893C13.5518 62.9811 14.5537 64.3393 16.0121 64.651C16.4018 64.74 16.8137 64.818 17.2479 64.907V62.9254C17.2479 57.9824 20.365 53.8187 26.0205 51.2025Z" fill="white"/>
<path d="M26.4102 29.2709V33.134C26.4102 33.2787 26.5326 33.4012 26.6773 33.4012H26.9445V29.0037H26.6773C26.5326 29.0037 26.4102 29.1262 26.4102 29.2709ZM43.0092 23.0922C42.3189 24.083 41.317 25.1852 39.8586 26.1982C36.9641 28.2244 33.2346 29.3154 28.7369 29.449V33.6016C28.7369 38.7895 33.0008 44.8234 38.5004 44.8234C44 44.8234 48.2639 38.7895 48.2639 33.6016V29.2041C48.2527 29.193 48.2305 29.1818 48.2193 29.1596C46.2488 27.5453 43.8887 25.6082 43.0092 23.0922ZM32.3551 32.5105V30.9854C32.3551 30.4955 32.7559 30.0947 33.2457 30.0947C33.7355 30.0947 34.1363 30.4955 34.1363 30.9854V32.5105C34.1363 33.0004 33.7355 33.4012 33.2457 33.4012C32.7559 33.4012 32.3551 33.0004 32.3551 32.5105ZM43.243 40.2256C41.8402 41.7396 40.2037 42.5412 38.5004 42.5412C36.7971 42.5412 35.1605 41.7396 33.7578 40.2256C33.4238 39.8693 33.4461 39.3016 33.8023 38.9676C34.1586 38.6336 34.7264 38.6559 35.0604 39.0121C35.7951 39.8025 36.9863 40.7488 38.4893 40.7488C39.9922 40.7488 41.1834 39.8025 41.9182 39.0121C42.2522 38.6559 42.8199 38.6336 43.1762 38.9676C43.5547 39.3016 43.577 39.8582 43.243 40.2256ZM44.6568 32.5105C44.6568 33.0004 44.2561 33.4012 43.7662 33.4012C43.2764 33.4012 42.8756 33.0004 42.8756 32.5105V30.9854C42.8756 30.4955 43.2764 30.0947 43.7662 30.0947C44.2561 30.0947 44.6568 30.4955 44.6568 30.9854V32.5105ZM39.1906 13.2953C40.4041 13.2953 41.573 13.4734 42.6752 13.8186C42.6418 11.7033 40.9162 10 38.801 10H38.2109C36.0957 10 34.3701 11.7033 34.3256 13.8186C35.4277 13.4846 36.5967 13.2953 37.8102 13.2953H39.1906Z" fill="white"/>
<path d="M49.3995 27.2783V25.2855C49.3995 22.9477 48.6091 20.7768 47.2732 19.0623C47.2286 19.0178 47.1952 18.9732 47.1618 18.9176C45.2915 16.5797 42.4193 15.0879 39.2019 15.0879H37.8214C34.604 15.0879 31.7318 16.5797 29.8615 18.9176C29.8281 18.9732 29.7947 19.0178 29.7501 19.0623C28.4142 20.7879 27.6238 22.9477 27.6238 25.2855V27.2783C27.8798 27.3562 28.1136 27.4898 28.3029 27.6791C37.8882 27.5344 41.8181 22.7695 42.6642 19.8527V18.873C42.6642 18.3832 43.065 17.9824 43.5548 17.9824C44.0447 17.9824 44.4454 18.3832 44.4454 18.873V21.0328C44.4454 23.5934 46.8724 25.7309 48.9988 27.4787C49.099 27.3896 49.2437 27.3229 49.3995 27.2783ZM43.5325 65.2746C42.8089 63.9387 42.7755 62.3912 43.4435 61.3113C44.0001 60.4207 44.9576 59.9531 46.1488 59.9977C47.0617 60.0311 47.6406 60.4986 48.0191 60.8103C48.0636 60.8437 48.1081 60.8771 48.1527 60.9217C48.1972 60.8883 48.2417 60.8437 48.2863 60.8103C48.6648 60.4986 49.2437 60.0422 50.1566 59.9977C50.3792 59.9865 50.6019 59.9977 50.8134 60.0311C50.5462 59.5189 50.2234 59.0625 49.8226 58.6729C48.7093 57.5818 47.1396 57.0697 45.1579 57.1477C43.4324 57.2145 42.3525 58.0939 41.2949 58.9289C40.4265 59.6525 39.5915 60.3205 38.5005 60.3205C37.4095 60.3205 36.5745 59.6414 35.695 58.9289C34.6486 58.0828 33.5575 57.2145 31.8431 57.1477C29.8615 57.0697 28.2917 57.5818 27.1784 58.6729C26.0206 59.7973 25.4083 61.534 25.4417 63.5602V67.0002H44.9019C44.3341 66.477 43.8665 65.898 43.5325 65.2746Z" fill="white"/>
<path d="M51.359 62.2576C51.2811 62.1352 51.0473 61.7566 50.2346 61.79C49.9229 61.8012 49.7225 61.957 49.4107 62.202C49.099 62.458 48.7094 62.7697 48.1527 62.7697C47.5961 62.7697 47.2176 62.458 46.9059 62.202C46.5941 61.957 46.3937 61.8012 46.082 61.79H45.9818C45.492 61.79 45.158 61.9459 44.9576 62.2688C44.6348 62.792 44.6904 63.6826 45.1023 64.4397C45.6478 65.4527 46.75 66.3768 48.1082 67.0002C48.1305 67.0113 48.1416 67.0113 48.1527 67.0113H48.1639C48.175 67.0113 48.1861 67.0113 48.1973 67.0002C49.5666 66.3768 50.6576 65.4527 51.2143 64.4397C51.4258 64.0611 51.5371 63.6381 51.5594 63.2596C51.5594 63.1037 51.5482 62.9479 51.5371 62.792C51.5148 62.5805 51.448 62.4023 51.359 62.2576ZM63.3045 61.4783L61.5789 43.432C60.9777 37.0863 58.8625 30.4066 55.7787 25.1074C52.6615 19.7303 48.765 15.9896 44.4566 14.1973V14.5201C46.0709 15.3105 47.4848 16.4572 48.5869 17.86C54.3203 23.2816 58.5953 33.6129 59.4859 44.2225L60.1205 51.7928C60.165 52.2826 59.7977 52.7168 59.3078 52.7502H59.2299C58.7734 52.7502 58.3838 52.3939 58.3393 51.9375L57.7047 44.3672C57.059 36.6521 54.5764 29.1152 51.0584 23.6824C51.1252 24.2057 51.1697 24.74 51.1697 25.2855V27.4119C51.8711 27.7348 52.3609 28.4473 52.3609 29.2711V33.1342C52.3609 33.9469 51.8822 34.6482 51.2031 34.9822V35.2049C51.2031 35.5611 51.4258 35.7727 52.027 36.2291C52.7617 36.7969 53.7748 37.565 53.7748 39.1904C53.7748 40.8158 52.7617 41.584 52.027 42.1406C51.4258 42.5971 51.2031 42.7975 51.2031 43.1648V44.0777C51.2031 44.5676 50.8023 44.9684 50.3125 44.9684C49.8227 44.9684 49.4219 44.5676 49.4219 44.0777V43.1648C49.4219 41.8846 50.3014 41.2166 50.9471 40.7268C51.6373 40.2035 51.9936 39.8918 51.9936 39.1904C51.9936 38.4779 51.6373 38.1773 50.9471 37.6541C50.5352 37.3424 50.0342 36.9639 49.7225 36.3961C49.2326 38.567 48.1861 40.6711 46.7055 42.4412C45.9484 43.3318 45.1246 44.1 44.2451 44.7123V47.8518C44.2451 48.0522 44.4789 48.1969 44.6682 48.2859L50.9693 51.2027C56.6359 53.8301 59.7643 57.9826 59.7643 62.9256V64.8961C60.1539 64.8182 60.5658 64.7291 60.9889 64.64C62.4473 64.3283 63.4492 62.9701 63.3045 61.4783Z" fill="white"/>
<path d="M50.5908 33.1342V29.2711C50.5908 29.1264 50.4684 29.0039 50.3236 29.0039H50.0564V33.4014H50.3236C50.4684 33.4014 50.5908 33.2789 50.5908 33.1342ZM50.2234 52.817L43.9223 49.9002C42.9982 49.4771 42.4639 48.7313 42.4639 47.8518V45.7254C41.1947 46.3043 39.8588 46.6049 38.5006 46.6049C37.1312 46.6049 35.7953 46.3043 34.5373 45.7365V47.8518C34.5373 48.7201 34.0029 49.466 33.0789 49.9002L26.7777 52.817C23.2486 54.4535 19.0293 57.5373 19.0293 62.9145V66.8889C19.0293 66.9445 19.0738 66.9891 19.1295 66.9891H23.6494V63.5713C23.6049 61.0553 24.4176 58.851 25.9205 57.3814C27.3789 55.9564 29.4496 55.2551 31.8988 55.3553C34.2033 55.4443 35.7063 56.6578 36.7973 57.5373C37.4541 58.0717 38.033 58.5281 38.4895 58.5281C38.9459 58.5281 39.5137 58.0717 40.1705 57.5373C41.2615 56.6578 42.7645 55.4443 45.0801 55.3553C47.5404 55.2551 49.6 55.9564 51.0584 57.3814C52.3721 58.6617 53.1514 60.4875 53.2961 62.6027C53.3184 62.8143 53.3295 63.0258 53.3184 63.2484V66.9779H57.8717C57.9273 66.9779 57.9719 66.9334 57.9719 66.8777V62.9033C57.983 57.5373 53.7637 54.4535 50.2234 52.817Z" fill="white"/>
</g>
<defs>
<clipPath id="clip0_142_2496">
<rect width="57" height="57" fill="white" transform="translate(10 10)"/>
</clipPath>
</defs>
</svg>
