<svg width="106" height="106" viewBox="0 0 106 106" fill="none" xmlns="http://www.w3.org/2000/svg">
<mask id="path-1-inside-1_142_1815" fill="white">
<path d="M0 0H106V106H0V0Z"/>
</mask>
<path d="M0 0H106V106H0V0Z" fill="#2C2C2C"/>
<path d="M106 104H0V108H106V104Z" fill="#CDA961" mask="url(#path-1-inside-1_142_1815)"/>
<g clip-path="url(#clip0_142_1815)">
<path d="M31.9998 73.2498C28.9665 73.2498 26.5002 70.7835 26.5002 67.7502C26.5002 64.7169 28.9665 62.25 31.9998 62.25C35.0331 62.25 37.5 64.7169 37.5 67.7502C37.5 70.7835 35.0331 73.2498 31.9998 73.2498ZM31.9998 64.9998C30.4831 64.9998 29.25 66.2335 29.25 67.7502C29.25 69.2669 30.4831 70.5 31.9998 70.5C33.5165 70.5 34.7502 69.2669 34.7502 67.7502C34.7502 66.2335 33.5165 64.9998 31.9998 64.9998ZM38.8752 87H22.3752C21.6159 87 21 86.3851 21 85.6248V82.875C21 81.0396 21.715 79.314 23.0131 78.0143C24.3122 76.7162 26.0395 76.0002 27.8748 76.0002H36.1248C37.9623 76.0002 39.6888 76.7162 40.987 78.0143C41.5233 78.5537 41.5233 79.4222 40.9855 79.96C40.4482 80.4963 39.5776 80.4947 39.0413 79.9585C38.2634 79.179 37.2276 78.75 36.1248 78.75H27.8748C26.7736 78.75 25.7383 79.1805 24.9588 79.9585C24.179 80.7384 23.7498 81.7738 23.7498 82.875V84.2502H38.8752C39.634 84.2502 40.2498 84.8645 40.2498 85.6248C40.2498 86.3851 39.634 87 38.8752 87ZM54 73.2498C50.9667 73.2498 48.4998 70.7835 48.4998 67.7502C48.4998 64.7169 50.9667 62.25 54 62.25C57.0333 62.25 59.5002 64.7169 59.5002 67.7502C59.5002 70.7835 57.0333 73.2498 54 73.2498ZM54 64.9998C52.4833 64.9998 51.2502 66.2335 51.2502 67.7502C51.2502 69.2669 52.4833 70.5 54 70.5C55.5167 70.5 56.7498 69.2669 56.7498 67.7502C56.7498 66.2335 55.5167 64.9998 54 64.9998ZM63.6252 87H44.3748C43.616 87 43.0002 86.3851 43.0002 85.6248V82.875C43.0002 81.0396 43.7152 79.314 45.0128 78.0143C46.3124 76.7162 48.0395 76.0002 49.875 76.0002H58.125C59.9619 76.0002 61.689 76.7162 62.9872 78.0143C64.2838 79.3124 64.9998 81.0396 64.9998 82.875V85.6248C65 85.8054 64.9646 85.9843 64.8956 86.1512C64.8266 86.3181 64.7254 86.4698 64.5977 86.5975C64.47 86.7252 64.3184 86.8265 64.1515 86.8956C63.9846 86.9647 63.8058 87.0001 63.6252 87ZM45.75 84.2502H62.25V82.875C62.25 81.7738 61.8195 80.737 61.0415 79.9585C60.2629 79.179 59.2278 78.75 58.125 78.75H49.875C48.7738 78.75 47.7385 79.1805 46.9585 79.9585C46.179 80.7384 45.75 81.7738 45.75 82.875V84.2502ZM76.0002 73.2498C72.9669 73.2498 70.5 70.7835 70.5 67.7502C70.5 64.7169 72.9669 62.25 76.0002 62.25C79.0335 62.25 81.4998 64.7169 81.4998 67.7502C81.4998 70.7835 79.0335 73.2498 76.0002 73.2498ZM76.0002 64.9998C74.4835 64.9998 73.2498 66.2335 73.2498 67.7502C73.2498 69.2669 74.4835 70.5 76.0002 70.5C77.5169 70.5 78.75 69.2669 78.75 67.7502C78.75 66.2335 77.5169 64.9998 76.0002 64.9998ZM85.6248 87H69.1248C68.9442 87.0001 68.7654 86.9647 68.5985 86.8956C68.4316 86.8265 68.28 86.7252 68.1523 86.5975C68.0246 86.4698 67.9234 86.3181 67.8544 86.1512C67.7854 85.9843 67.75 85.8054 67.7502 85.6248C67.75 85.4443 67.7854 85.2654 67.8544 85.0985C67.9235 84.9317 68.0247 84.7801 68.1524 84.6524C68.2801 84.5247 68.4317 84.4235 68.5985 84.3544C68.7654 84.2854 68.9443 84.25 69.1248 84.2502H84.2502V82.875C84.2502 81.7738 83.8196 80.737 83.0412 79.9585C82.2632 79.179 81.228 78.75 80.1252 78.75H71.8752C70.7734 78.75 69.7366 79.1805 68.9587 79.9585C68.8311 80.0863 68.6796 80.1878 68.5128 80.257C68.346 80.3262 68.1672 80.3618 67.9866 80.3618C67.806 80.3618 67.6272 80.3262 67.4604 80.257C67.2936 80.1878 67.1421 80.0863 67.0145 79.9585C66.8867 79.8309 66.7852 79.6794 66.716 79.5126C66.6468 79.3458 66.6112 79.167 66.6112 78.9864C66.6112 78.8058 66.6468 78.627 66.716 78.4602C66.7852 78.2934 66.8867 78.1419 67.0145 78.0143C68.3126 76.7162 70.0393 76.0002 71.8752 76.0002H80.1252C81.9621 76.0002 83.6892 76.7162 84.9869 78.0143C86.2833 79.3124 87 81.0396 87 82.875V85.6248C87.0001 85.8055 86.9647 85.9843 86.8956 86.1512C86.8265 86.3181 86.7252 86.4698 86.5975 86.5975C86.4698 86.7252 86.3181 86.8265 86.1512 86.8956C85.9843 86.9647 85.8055 87.0001 85.6248 87ZM66.375 48.4998H63.6252V45.75C63.6252 42.7167 61.1583 40.2498 58.125 40.2498H49.875C46.8417 40.2498 44.3748 42.7167 44.3748 45.75V48.4998H41.625V45.75C41.625 41.2 45.325 37.5 49.875 37.5H58.125C62.675 37.5 66.375 41.2 66.375 45.75V48.4998ZM54 34.7502C50.2094 34.7502 47.1252 31.666 47.1252 27.8748C47.1252 24.0842 50.2094 21 54 21C57.7906 21 60.8748 24.0842 60.8748 27.8748C60.8748 31.666 57.7906 34.7502 54 34.7502ZM54 23.7498C51.7254 23.7498 49.875 25.6009 49.875 27.8748C49.875 30.1494 51.7254 31.9998 54 31.9998C56.2746 31.9998 58.125 30.1494 58.125 27.8748C58.125 25.6009 56.2746 23.7498 54 23.7498Z" fill="#CDA961"/>
<path d="M65.9722 60.4718L64.028 58.5277L69.1248 53.4307V49.8748H38.8752V53.4308L43.972 58.5277L42.0278 60.4718L36.5277 54.9722C36.3999 54.8446 36.2985 54.693 36.2293 54.5261C36.1602 54.3593 36.1247 54.1804 36.1248 53.9998V48.4997C36.1248 47.7408 36.7411 47.125 37.5 47.125H70.5C71.2603 47.125 71.8752 47.7408 71.8752 48.4997V53.9998C71.8752 54.3644 71.7307 54.7149 71.4723 54.9722L65.9722 60.4718Z" fill="#CDA961"/>
<path d="M43.0002 64.9998C42.2409 64.9998 41.625 64.3855 41.625 63.6252V54C41.625 53.2411 42.2408 52.6248 43.0002 52.6248C43.759 52.6248 44.3748 53.2411 44.3748 54V63.6252C44.3748 64.3855 43.759 64.9998 43.0002 64.9998ZM64.9998 64.9998C64.8193 65 64.6404 64.9646 64.4735 64.8956C64.3067 64.8265 64.1551 64.7253 64.0274 64.5976C63.8997 64.4699 63.7985 64.3183 63.7294 64.1515C63.6604 63.9846 63.625 63.8057 63.6252 63.6252V54C63.6252 53.2411 64.2395 52.6248 64.9998 52.6248C65.7601 52.6248 66.375 53.2411 66.375 54V63.6252C66.375 64.3855 65.7601 64.9998 64.9998 64.9998ZM59.5002 59.5002C59.3195 59.5003 59.1407 59.4648 58.9738 59.3958C58.8069 59.3267 58.6552 59.2254 58.5275 59.0977C58.3998 58.97 58.2985 58.8183 58.2294 58.6514C58.1603 58.4845 58.1249 58.3056 58.125 58.125V55.3752H49.875V58.125C49.875 58.8853 49.2592 59.5002 48.4998 59.5002C47.741 59.5002 47.1252 58.8853 47.1252 58.125V54C47.1252 53.2411 47.741 52.6248 48.4998 52.6248H59.5002C60.2605 52.6248 60.8748 53.2411 60.8748 54V58.125C60.875 58.3056 60.8396 58.4845 60.7706 58.6514C60.7016 58.8183 60.6004 58.9699 60.4727 59.0977C60.345 59.2254 60.1934 59.3267 60.0265 59.3958C59.8596 59.4648 59.6808 59.5003 59.5002 59.5002ZM84.2502 59.5002H73.2498C72.4895 59.5002 71.8752 58.8853 71.8752 58.125C71.8752 57.3647 72.4895 56.7498 73.2498 56.7498H84.2502V23.7498H63.6252C62.8649 23.7498 62.25 23.134 62.25 22.3752C62.25 21.6159 62.8649 21 63.6252 21H84.2502C85.7669 21 87 22.2331 87 23.7498V56.7498C87 58.2665 85.7669 59.5002 84.2502 59.5002ZM34.7502 59.5002H23.7498C22.2331 59.5002 21 58.2665 21 56.7498V23.7498C21 22.2331 22.2331 21 23.7498 21H44.3748C45.1341 21 45.75 21.6158 45.75 22.3752C45.75 23.134 45.1342 23.7498 44.3748 23.7498H23.7498V56.7498H34.7502C35.509 56.7498 36.1248 57.3647 36.1248 58.125C36.1248 58.8853 35.509 59.5002 34.7502 59.5002Z" fill="#CDA961"/>
</g>
<defs>
<clipPath id="clip0_142_1815">
<rect width="66" height="66" fill="white" transform="translate(21 21)"/>
</clipPath>
</defs>
</svg>
