<svg width="30" height="30" viewBox="0 0 30 30" fill="none" xmlns="http://www.w3.org/2000/svg">
<circle cx="15" cy="15" r="14.5" stroke="white"/>
<g clip-path="url(#clip0_163_2314)">
<path d="M20.3301 13.7946C20.3482 11.6798 18.547 9.74103 16.315 9.47294C16.2706 9.46768 16.2222 9.45967 16.1711 9.45119C16.0606 9.43288 15.9463 9.41406 15.831 9.41406C15.3735 9.41406 15.2513 9.7354 15.2191 9.92704C15.1878 10.1134 15.2176 10.2699 15.3077 10.3923C15.4592 10.5983 15.7257 10.6349 15.9398 10.6642C16.0026 10.6729 16.0618 10.6809 16.1113 10.692C18.1167 11.1401 18.7919 11.8446 19.1219 13.8329C19.13 13.8815 19.1336 13.9414 19.1375 14.0049C19.1519 14.2425 19.1819 14.737 19.7135 14.737H19.7135C19.7578 14.737 19.8053 14.7332 19.8549 14.7256C20.3499 14.6504 20.3344 14.1984 20.3269 13.9812C20.3248 13.9201 20.3228 13.8622 20.328 13.8237C20.3294 13.814 20.3301 13.8043 20.3301 13.7946Z" fill="white"/>
<path d="M15.7011 8.69665C15.7605 8.70093 15.8167 8.70503 15.8636 8.7122C19.1565 9.21862 20.6709 10.7788 21.0906 14.0975C21.0977 14.1539 21.0988 14.2227 21.1 14.2956C21.1042 14.5549 21.1128 15.0943 21.6921 15.1055L21.7101 15.1057C21.8917 15.1057 22.0362 15.0509 22.1396 14.9427C22.3199 14.7541 22.3074 14.4739 22.2972 14.2487C22.2947 14.1934 22.2924 14.1414 22.293 14.0959C22.3348 10.7017 19.3968 7.62382 16.0056 7.50936C15.9916 7.5089 15.9782 7.50964 15.9646 7.51155C15.9513 7.51323 15.9379 7.51396 15.9244 7.51374C15.8906 7.51374 15.849 7.51081 15.8049 7.50783C15.7516 7.50419 15.6911 7.5 15.6298 7.5C15.0898 7.5 14.9871 7.88385 14.9739 8.11267C14.9437 8.64149 15.4553 8.67871 15.7011 8.69665ZM20.9317 18.3868C20.8609 18.3332 20.7909 18.2787 20.7215 18.2234C20.362 17.934 19.9795 17.6673 19.6096 17.4094C19.5328 17.356 19.4561 17.3024 19.3795 17.2487C18.9057 16.9159 18.4797 16.7542 18.0772 16.7542C17.5351 16.7542 17.0624 17.0537 16.6723 17.6443C16.4995 17.9062 16.2899 18.0335 16.0314 18.0335C15.8787 18.0335 15.705 17.9899 15.5155 17.9038C13.986 17.2103 12.8938 16.1468 12.2693 14.7431C11.9674 14.0647 12.0653 13.6212 12.5966 13.2603C12.8983 13.0555 13.4599 12.6743 13.4201 11.9442C13.3751 11.1151 11.5458 8.62062 10.7751 8.3373C10.4488 8.2173 10.1059 8.21618 9.75423 8.3345C8.86821 8.63236 8.23238 9.15545 7.91533 9.84713C7.60895 10.5155 7.62279 11.3002 7.95535 12.1166C8.91675 14.4768 10.2684 16.5346 11.973 18.2327C13.6414 19.895 15.6921 21.2566 18.068 22.2797C18.2821 22.3718 18.5067 22.4221 18.6708 22.4587C18.7267 22.4713 18.7749 22.482 18.8101 22.4917C18.8294 22.4969 18.8494 22.4998 18.8693 22.5L18.8881 22.5H18.8882C20.0057 22.5 21.3474 21.4789 21.7595 20.3148C22.1205 19.2954 21.4614 18.7916 20.9317 18.3868ZM16.1954 11.3927C16.0041 11.3976 15.6059 11.4075 15.4662 11.813C15.4008 12.0025 15.4087 12.167 15.4895 12.302C15.6081 12.5001 15.8353 12.5608 16.042 12.5941C16.7916 12.7144 17.1766 13.1289 17.2536 13.8984C17.2894 14.2573 17.531 14.5078 17.8412 14.5078C17.8642 14.5078 17.8876 14.5065 17.911 14.5036C18.2841 14.4593 18.465 14.1851 18.4486 13.6889C18.4546 13.171 18.1836 12.5831 17.7226 12.1148C17.2601 11.645 16.7025 11.3805 16.1954 11.3927Z" fill="white"/>
</g>
<defs>
<clipPath id="clip0_163_2314">
<rect width="15" height="15" fill="white" transform="translate(7.5 7.5)"/>
</clipPath>
</defs>
</svg>
