<svg width="20" height="20" viewBox="0 0 20 20" fill="none" xmlns="http://www.w3.org/2000/svg">
<path d="M17.1084 8.39244C17.1325 5.57269 14.7308 2.98772 11.7549 2.63027C11.6957 2.62325 11.6312 2.61257 11.5629 2.60126C11.4156 2.57685 11.2633 2.55176 11.1095 2.55176C10.4996 2.55176 10.3366 2.9802 10.2936 3.23573C10.2519 3.48418 10.2917 3.69281 10.4118 3.85611C10.6138 4.13076 10.9692 4.17952 11.2546 4.21859C11.3383 4.23014 11.4172 4.24089 11.4833 4.25573C14.1571 4.85319 15.0574 5.7925 15.4974 8.44356C15.5082 8.50834 15.513 8.58815 15.5182 8.67281C15.5374 8.98971 15.5774 9.64902 16.2862 9.64902H16.2862C16.3452 9.64902 16.4087 9.64393 16.4747 9.63387C17.1347 9.53356 17.1141 8.93089 17.1041 8.64132C17.1013 8.55977 17.0987 8.48263 17.1056 8.43132C17.1074 8.4184 17.1084 8.40542 17.1084 8.39244Z" fill="#7F7F7F"/>
<path d="M10.9365 1.59553C11.0157 1.60124 11.0907 1.60671 11.1531 1.61627C15.5437 2.29149 17.5629 4.37174 18.1225 8.79671C18.132 8.87193 18.1335 8.96367 18.135 9.06081C18.1406 9.40652 18.1521 10.1257 18.9245 10.1406L18.9484 10.1409C19.1907 10.1409 19.3833 10.0678 19.5212 9.9236C19.7616 9.67211 19.7448 9.29851 19.7313 8.99826C19.728 8.9246 19.7248 8.85522 19.7256 8.79447C19.7815 4.26888 15.8641 0.165093 11.3425 0.0124845C11.3238 0.0118634 11.3059 0.0128571 11.2878 0.0154037C11.2701 0.0176421 11.2522 0.0186176 11.2343 0.018323C11.1892 0.018323 11.1337 0.0144099 11.0749 0.0104348C11.0038 0.00559006 10.9231 0 10.8414 0C10.1213 0 9.98445 0.511801 9.96694 0.816894C9.92656 1.52199 10.6087 1.57161 10.9365 1.59553ZM17.9106 14.5157C17.8163 14.4443 17.7228 14.3716 17.6304 14.2978C17.151 13.9121 16.641 13.5565 16.1477 13.2125C16.0454 13.1413 15.9432 13.0699 15.841 12.9983C15.2092 12.5545 14.6412 12.3389 14.1046 12.3389C13.3818 12.3389 12.7516 12.7383 12.2315 13.5258C12.001 13.8749 11.7215 14.0447 11.3769 14.0447C11.1732 14.0447 10.9417 13.9865 10.689 13.8718C8.64967 12.947 7.19346 11.5291 6.36073 9.65752C5.95818 8.75292 6.08868 8.16162 6.79712 7.68037C7.19942 7.40733 7.94824 6.89901 7.8952 5.92559C7.83514 4.82019 5.39613 1.49416 4.36849 1.1164C3.9334 0.956398 3.47625 0.954907 3.00731 1.11267C1.82594 1.50981 0.97818 2.20727 0.555447 3.1295C0.146938 4.02062 0.165385 5.06696 0.608801 6.1554C1.89066 9.30236 3.6929 12.0461 5.96563 14.3102C8.19023 16.5266 10.9245 18.3422 14.0923 19.7062C14.3778 19.8291 14.6773 19.8961 14.896 19.945C14.9705 19.9617 15.0349 19.976 15.0818 19.9889C15.1076 19.9959 15.1341 19.9997 15.1608 19.9999L15.1858 20.0001H15.1859C16.6759 20.0001 18.4649 18.6386 19.0143 17.0864C19.4957 15.7273 18.6168 15.0555 17.9106 14.5157ZM11.5955 5.19031C11.3404 5.19677 10.8095 5.20994 10.6233 5.75062C10.5361 6.00329 10.5466 6.22267 10.6543 6.40267C10.8125 6.66677 11.1154 6.7477 11.391 6.79211C12.3905 6.95248 12.9038 7.50516 13.0064 8.53124C13.0541 9.00969 13.3763 9.34379 13.79 9.34379C13.8205 9.34379 13.8518 9.34199 13.883 9.3382C14.3805 9.27901 14.6217 8.91348 14.5999 8.25186C14.6078 7.56137 14.2464 6.77745 13.6318 6.15304C13.0151 5.52671 12.2717 5.17398 11.5955 5.19031Z" fill="#7F7F7F"/>
</svg>
