<svg width="80" height="80" viewBox="0 0 80 80" fill="none" xmlns="http://www.w3.org/2000/svg">
<circle opacity="0.1" cx="40" cy="40" r="40" fill="#D9D9D9"/>
<g clip-path="url(#clip0_146_3252)">
<path d="M43.2981 40.0292L57.316 26.0111C58.2282 25.0993 58.2282 23.6249 57.316 22.7132C56.4042 21.8013 54.9298 21.8013 54.0181 22.7132L39.9998 36.7312L25.9821 22.7132C25.0699 21.8013 23.596 21.8013 22.6842 22.7132C21.7719 23.625 21.7719 25.0993 22.6842 26.0111L36.7018 40.0292L22.6843 54.0473C21.772 54.9591 21.772 56.4335 22.6843 57.3452C22.9006 57.5621 23.1576 57.7341 23.4406 57.8514C23.7236 57.9687 24.027 58.0289 24.3333 58.0285C24.9302 58.0285 25.5274 57.8 25.9822 57.3452L39.9998 43.3272L54.0181 57.3452C54.2344 57.5621 54.4914 57.7341 54.7744 57.8513C55.0574 57.9686 55.3607 58.0288 55.667 58.0285C56.264 58.0285 56.8612 57.8 57.316 57.3452C58.2282 56.4334 58.2282 54.9591 57.316 54.0473L43.2981 40.0292Z" fill="#CDA961"/>
</g>
<defs>
<clipPath id="clip0_146_3252">
<rect width="36" height="36" fill="white" transform="translate(22 22)"/>
</clipPath>
</defs>
</svg>
