<svg width="77" height="77" viewBox="0 0 77 77" fill="none" xmlns="http://www.w3.org/2000/svg">
<path d="M0 0H77V77H0V0Z" fill="#2C2C2C"/>
<path d="M34.1887 29.2467C36.3431 29.2561 37.4101 30.3706 38.442 31.4484C39.4214 32.4712 40.3464 33.4374 42.2164 33.4455C42.9737 33.4422 43.6246 33.2828 44.228 32.9493C44.3801 32.8652 44.4578 32.6899 44.4251 32.5192L42.9307 24.7214C42.8939 24.5294 42.726 24.3906 42.5305 24.3906H32.4352C32.2397 24.3906 32.0718 24.5294 32.035 24.7214L31.0404 29.911C31.0038 30.1018 31.2179 30.2393 31.3765 30.1271C32.0964 29.6177 32.9768 29.252 34.1887 29.2467ZM32.8316 28.2229L33.3371 25.5849C33.3697 25.4149 33.5231 25.2869 33.6955 25.3032C33.8932 25.3219 34.0274 25.5054 33.9909 25.6957L33.4798 28.3624C33.4494 28.5211 33.3105 28.6316 33.1547 28.6316C33.1293 28.6316 33.1035 28.6286 33.0777 28.6225C32.9024 28.5813 32.7977 28.3997 32.8316 28.2229ZM21.589 40.5596C23.5581 41.6523 25.458 42.5328 26.2417 42.886C26.3186 42.9208 26.4021 42.9387 26.4865 42.9387C26.571 42.9387 26.6544 42.9208 26.7314 42.886C27.4202 42.5756 28.9712 41.8579 30.6737 40.9466C31.049 40.7458 31.1182 40.3261 30.8287 40.0141C29.6004 38.6902 29.0382 36.8358 29.393 34.985L29.5177 34.3343C29.5688 34.0676 29.4351 33.7966 29.1884 33.6832C28.2621 33.2576 27.6055 32.5735 26.9672 31.9069C25.9876 30.884 25.0623 29.9178 23.1922 29.9096C21.6018 29.9166 20.7091 30.5974 19.8504 31.457C19.7668 31.5407 19.7109 31.6482 19.6887 31.7644L19.0475 35.1097C18.629 37.2935 19.6503 39.4837 21.589 40.5596ZM20.6715 34.2943L21.2493 31.2795C21.2819 31.1095 21.4352 30.9815 21.6076 30.9978C21.8053 31.0165 21.9395 31.2 21.903 31.3903L21.3226 34.419C20.9965 36.1203 21.7899 37.8265 23.2973 38.668C23.4542 38.7556 23.5225 38.9549 23.44 39.1147C23.3808 39.2294 23.2648 39.2943 23.1451 39.2943C23.0906 39.2943 23.0355 39.2809 22.9845 39.2526C21.2203 38.2735 20.2907 36.281 20.6715 34.2943Z" fill="white"/>
<path d="M27.446 31.4484C28.0309 32.0591 28.5916 32.6431 29.3398 33.0201C29.5361 33.119 29.7729 33.0025 29.8143 32.7866L31.348 24.7838C31.3871 24.5798 31.2307 24.3906 31.023 24.3906H21.3754C21.2166 24.3906 21.0802 24.5034 21.0504 24.6593L20.0289 29.9892C19.9978 30.1514 20.1815 30.2705 20.315 30.1732C21.0468 29.6399 21.9435 29.2522 23.1922 29.2467C25.3466 29.2561 26.4138 30.3706 27.446 31.4484ZM22.9927 25.7047L22.4833 28.3624C22.4529 28.5211 22.314 28.6316 22.1581 28.6316C22.1328 28.6316 22.107 28.6286 22.0811 28.6225C21.9059 28.5813 21.8012 28.3997 21.8351 28.2229L22.3433 25.5709C22.382 25.3689 22.5966 25.2451 22.7979 25.3277C22.9443 25.3879 23.0225 25.5493 22.9927 25.7047ZM40.4 42.5835C40.234 47.6873 44.4213 51.8745 49.525 51.7085C54.1554 51.5579 57.9133 47.8001 58.0639 43.1697C58.2298 38.0659 54.0426 33.8787 48.9389 34.0446C44.3084 34.1952 40.5506 37.9531 40.4 42.5835ZM48.9004 37.3214C48.9004 37.1276 49.0668 36.9726 49.2645 36.9915C49.4368 37.0079 49.5634 37.1625 49.5634 37.3356V42.7975C49.5634 43.0019 49.729 43.1675 49.9334 43.1675H54.1504C54.3235 43.1675 54.4781 43.2941 54.4945 43.4665C54.5134 43.6642 54.3584 43.8305 54.1646 43.8305H49.2319C49.0488 43.8305 48.9004 43.6821 48.9004 43.499V37.3214Z" fill="white"/>
<path d="M37.9631 31.9064C36.9838 30.8835 36.0588 29.9174 34.1887 29.9092C32.6432 29.916 31.7566 30.5596 30.9195 31.3852C30.7895 31.5135 30.7016 31.6782 30.6672 31.8575L30.044 35.1093C29.6255 37.2931 30.6468 39.4833 32.5855 40.5591C34.5684 41.6596 36.4821 42.5451 37.2556 42.8934C37.4004 42.9586 37.5653 42.9589 37.7101 42.8937C38.0842 42.7253 38.725 42.4313 39.5082 42.0496C39.6739 41.9688 39.7899 41.8106 39.814 41.6279C40.2118 38.611 42.0309 36.0363 44.5743 34.5995C44.7095 34.5231 44.7794 34.3677 44.7502 34.2152L44.7032 33.9701C44.6594 33.7414 44.4138 33.6082 44.2013 33.7035C43.5986 33.974 42.9507 34.1049 42.2164 34.1081C40.0621 34.0987 38.995 32.9842 37.9631 31.9064ZM34.4365 39.1143C34.3773 39.229 34.2613 39.2939 34.1416 39.2939C34.0872 39.2939 34.032 39.2805 33.9811 39.2522C32.2168 38.2731 31.2872 36.2805 31.668 34.2938L32.2458 31.2791C32.2784 31.1091 32.4318 30.9811 32.6041 30.9974C32.8018 31.016 32.936 31.1996 32.8995 31.3899L32.3191 34.4186C31.9931 36.1199 32.7864 37.826 34.2938 38.6675C34.4507 38.7552 34.519 38.9545 34.4365 39.1143ZM50.6961 30.5879C51.0569 29.8072 51.6884 29.1757 52.4691 28.8149C51.6884 28.4541 51.0569 27.8227 50.6961 27.042C50.3353 27.8227 49.7039 28.4541 48.9232 28.8149C49.7039 29.1757 50.3353 29.8072 50.6961 30.5879Z" fill="white"/>
<path d="M47.4111 29.1471C49.0397 29.1471 50.3646 30.4721 50.3646 32.1009C50.3646 32.2839 50.513 32.4323 50.6961 32.4323C50.8791 32.4323 51.0275 32.2839 51.0275 32.1009C51.0275 30.4721 52.3526 29.1471 53.9813 29.1471C54.1643 29.1471 54.3127 28.9987 54.3127 28.8156C54.3127 28.6326 54.1643 28.4842 53.9813 28.4842C52.3526 28.4842 51.0275 27.1593 51.0275 25.5307C51.0275 25.3476 50.8791 25.1992 50.6961 25.1992C50.513 25.1992 50.3646 25.3476 50.3646 25.5307C50.3646 27.1593 49.0397 28.4842 47.4111 28.4842C47.2281 28.4842 47.0797 28.6326 47.0797 28.8156C47.0797 28.9987 47.2281 29.1471 47.4111 29.1471ZM50.6961 27.0427C51.0569 27.8234 51.6884 28.4548 52.4691 28.8156C51.6884 29.1765 51.0569 29.8079 50.6961 30.5887C50.3353 29.8079 49.7039 29.1765 48.9232 28.8156C49.7039 28.4548 50.3353 27.8234 50.6961 27.0427ZM30.7276 51.6156H27.0455C27.0285 51.6156 27.0122 51.6088 27.0001 51.5968C26.9881 51.5848 26.9813 51.5685 26.9813 51.5515V43.9486C26.9813 43.8137 26.9277 43.6878 26.8303 43.5943C26.733 43.5009 26.6049 43.4525 26.4632 43.4581C26.3363 43.4629 26.2163 43.5168 26.1283 43.6084C26.0404 43.7 25.9914 43.8222 25.9917 43.9491V51.5515C25.9917 51.5868 25.963 51.6156 25.9276 51.6156H22.2454C21.9814 51.6156 21.7574 51.8137 21.7354 52.0666C21.7234 52.205 21.7701 52.3428 21.8635 52.4448C21.9099 52.4953 21.9663 52.5356 22.0291 52.5632C22.0919 52.5909 22.1597 52.6052 22.2283 52.6052H30.7448C30.8134 52.6052 30.8812 52.5909 30.944 52.5632C31.0068 52.5356 31.0632 52.4953 31.1096 52.4448C31.203 52.3428 31.2497 52.205 31.2377 52.0666C31.2157 51.8137 30.9917 51.6156 30.7276 51.6156ZM42.2342 52.0666C42.2122 51.8137 41.9882 51.6156 41.7241 51.6156H38.1348C38.0482 51.6156 37.9778 51.5452 37.9778 51.4586V43.9535C37.9778 43.8218 37.9261 43.6983 37.8323 43.6058C37.7385 43.5134 37.6138 43.4635 37.4825 43.4654L37.4691 43.4657C37.2039 43.4695 36.9882 43.6884 36.9882 43.9536V51.4587C36.9882 51.5452 36.9178 51.6156 36.8313 51.6156H33.2419C32.9779 51.6156 32.7539 51.8137 32.7319 52.0666C32.7199 52.205 32.7665 52.3428 32.86 52.4448C32.9064 52.4953 32.9628 52.5356 33.0256 52.5632C33.0884 52.5909 33.1562 52.6052 33.2248 52.6052H41.7413C41.8099 52.6052 41.8777 52.5909 41.9405 52.5632C42.0033 52.5356 42.0597 52.4953 42.1061 52.4448C42.1995 52.3428 42.2462 52.205 42.2342 52.0666Z" fill="white"/>
</svg>
