<svg width="100" height="274" viewBox="0 0 100 274" fill="none" xmlns="http://www.w3.org/2000/svg">
<line x1="51" y1="4.37114e-08" x2="51" y2="174" stroke="url(#paint0_linear_142_1557)" stroke-width="2"/>
<rect x="1" y="175" width="98" height="98" fill="black" fill-opacity="0.14" stroke="#CDA961" stroke-width="2"/>
<path d="M60.2083 203.583C60.2083 201.564 59.6096 199.591 58.4879 197.912C57.3662 196.233 55.7719 194.925 53.9066 194.152C52.0412 193.379 49.9887 193.177 48.0084 193.571C46.0282 193.965 44.2093 194.937 42.7816 196.365C41.354 197.793 40.3817 199.612 39.9878 201.592C39.5939 203.572 39.7961 205.625 40.5687 207.49C41.3414 209.355 42.6498 210.95 44.3285 212.071C46.0073 213.193 47.981 213.792 50 213.792C52.7065 213.789 55.3012 212.712 57.215 210.798C59.1287 208.885 60.2052 206.29 60.2083 203.583ZM42.7083 203.583C42.7083 202.141 43.136 200.731 43.9372 199.532C44.7384 198.333 45.8772 197.399 47.2096 196.847C48.542 196.295 50.0081 196.15 51.4225 196.432C52.837 196.713 54.1362 197.408 55.156 198.427C56.1757 199.447 56.8702 200.746 57.1516 202.161C57.4329 203.575 57.2885 205.041 56.7366 206.374C56.1847 207.706 55.2501 208.845 54.051 209.646C52.8519 210.447 51.4422 210.875 50 210.875C48.0666 210.873 46.2128 210.105 44.8457 208.738C43.4786 207.371 42.7099 205.517 42.7083 203.583ZM62.6992 240.468C62.9726 240.741 63.1261 241.112 63.1261 241.499C63.1261 241.885 62.9726 242.256 62.6992 242.53L51.0325 254.196C50.759 254.47 50.3882 254.623 50.0015 254.623C49.6148 254.623 49.2439 254.47 48.9704 254.196L37.3037 242.53C37.0381 242.255 36.8911 241.886 36.8944 241.504C36.8978 241.121 37.0511 240.756 37.3215 240.485C37.5919 240.215 37.9577 240.062 38.34 240.058C38.7224 240.055 39.0908 240.202 39.3658 240.468L48.5417 249.646V224C48.5417 223.613 48.6953 223.242 48.9688 222.969C49.2423 222.695 49.6132 222.542 50 222.542C50.3868 222.542 50.7577 222.695 51.0312 222.969C51.3047 223.242 51.4583 223.613 51.4583 224V249.646L60.6342 240.47C60.7696 240.335 60.9306 240.227 61.1077 240.153C61.2849 240.08 61.4748 240.042 61.6667 240.042C61.8585 240.042 62.0484 240.08 62.2256 240.153C62.4028 240.227 62.5637 240.332 62.6992 240.468Z" fill="#CDA961"/>
<defs>
<linearGradient id="paint0_linear_142_1557" x1="48.9976" y1="173.223" x2="48.9976" y2="-3.49554" gradientUnits="userSpaceOnUse">
<stop stop-color="#CDA961"/>
<stop offset="0.451619" stop-color="#CDA961" stop-opacity="0.17"/>
<stop offset="0.668826" stop-color="#CDA961" stop-opacity="0"/>
</linearGradient>
</defs>
</svg>
