<svg width="77" height="77" viewBox="0 0 77 77" fill="none" xmlns="http://www.w3.org/2000/svg">
<path d="M0 0H77V77H0V0Z" fill="#2C2C2C"/>
<g clip-path="url(#clip0_142_2535)">
<path d="M25.4604 10.9461V14.6247C25.4604 15.0996 25.845 15.4848 26.3205 15.4848C26.7953 15.4848 27.1807 15.0996 27.1807 14.6247V10.9461C27.1807 10.4713 26.7953 10.0859 26.3205 10.0859C25.845 10.0859 25.4604 10.4713 25.4604 10.9461ZM36.5129 13.5799L34.3054 16.353C34.1686 16.5319 34.1073 16.7574 34.1349 16.9809C34.1625 17.2045 34.2767 17.4083 34.4529 17.5486C34.6292 17.6889 34.8534 17.7544 35.0774 17.7312C35.3015 17.7079 35.5075 17.5977 35.6511 17.4242L37.858 14.6512C37.9542 14.5334 38.0175 14.3921 38.0412 14.2419C38.0649 14.0916 38.0483 13.9378 37.993 13.7961C37.9381 13.6541 37.8464 13.5294 37.7273 13.4346C37.6082 13.3398 37.466 13.2784 37.3154 13.2567C37.1649 13.2347 37.0113 13.253 36.8702 13.3097C36.7291 13.3665 36.6057 13.4597 36.5124 13.5799H36.5129ZM14.9195 13.4427C14.8311 13.513 14.7575 13.6001 14.7027 13.6989C14.648 13.7977 14.6133 13.9063 14.6005 14.0185C14.5878 14.1307 14.5973 14.2444 14.6285 14.3529C14.6597 14.4615 14.7119 14.5628 14.7823 14.6512L16.9893 17.4242C17.1328 17.5984 17.3389 17.7093 17.5634 17.7329C17.7878 17.7566 18.0126 17.691 18.1891 17.5504C18.3657 17.4099 18.48 17.2055 18.5072 16.9815C18.5345 16.7575 18.4727 16.5317 18.335 16.3528L16.128 13.58C16.0577 13.4916 15.9706 13.418 15.8718 13.3632C15.773 13.3085 15.6644 13.2738 15.5522 13.2611C15.44 13.2483 15.3263 13.2578 15.2178 13.289C15.1092 13.3202 15.0079 13.3723 14.9195 13.4427ZM50.6914 30.7979C48.3867 30.7909 46.1071 31.2758 44.0047 32.2202C41.9024 33.1645 40.0258 34.5467 38.5002 36.2742C35.8321 33.268 32.1467 31.3544 28.1528 30.9016L33.7645 25.4865C33.902 25.3541 33.9915 25.1796 34.0187 24.9906C34.046 24.8017 34.0095 24.609 33.9151 24.4431L31.5385 20.2549C31.4633 20.1228 31.3545 20.0129 31.223 19.9365C31.0916 19.8601 30.9423 19.8198 30.7903 19.8198H21.8494C21.6974 19.8198 21.5481 19.8601 21.4167 19.9365C21.2853 20.0129 21.1764 20.1228 21.1013 20.2549L18.7252 24.4426C18.6309 24.6086 18.5945 24.8013 18.6218 24.9903C18.6491 25.1793 18.7385 25.3539 18.8759 25.4865L24.4877 30.9021C17.2587 31.7141 11.4415 37.2161 10.2285 44.3884C9.01501 51.5614 12.6992 58.6699 19.2595 61.8144C25.8193 64.9586 33.6688 63.3778 38.5004 57.9392C43.4821 63.5464 51.6468 65.032 58.2848 61.54C64.923 58.0472 68.3228 50.4779 66.5241 43.1957C64.7253 35.9141 58.1921 30.7981 50.6914 30.7981V30.7979ZM26.3205 61.6951C19.5154 61.6995 13.6114 56.9984 12.091 50.3653C10.5712 43.7321 13.8392 36.9294 19.9667 33.9697C26.0949 31.0108 33.4547 32.6806 37.7045 37.9955C37.7601 38.1159 37.8429 38.2219 37.9464 38.3052C41.2924 42.718 41.8497 48.6456 39.3846 53.6044C36.92 58.5636 31.8584 61.6984 26.3205 61.6951ZM50.6914 61.6951C48.5801 61.7011 46.4929 61.2459 44.5758 60.3613C42.6587 59.4768 40.9579 58.1842 39.5923 56.5739C43.6411 50.9118 43.6411 43.3015 39.5923 37.6394C43.9704 32.5072 51.2967 31.0461 57.3088 34.1059C63.3209 37.1662 66.4508 43.9501 64.8772 50.5097C63.3035 57.0701 57.437 61.6957 50.6914 61.6951Z" fill="white"/>
</g>
<defs>
<clipPath id="clip0_142_2535">
<rect width="57" height="57" fill="white" transform="translate(10 10)"/>
</clipPath>
</defs>
</svg>
