<svg width="20" height="20" viewBox="0 0 20 20" fill="none" xmlns="http://www.w3.org/2000/svg">
<path d="M8.07999 11.0395H6.09999C5.77999 11.0395 5.67999 10.9195 5.67999 10.6195V8.19953C5.67999 7.87953 5.79999 7.77953 6.09999 7.77953H8.07999V6.01953C8.07999 5.21953 8.21999 4.45953 8.61999 3.75953C9.03999 3.03953 9.63999 2.55953 10.4 2.27953C10.9 2.09953 11.4 2.01953 11.94 2.01953H13.9C14.18 2.01953 14.3 2.13953 14.3 2.41953V4.69953C14.3 4.97953 14.18 5.09953 13.9 5.09953C13.36 5.09953 12.82 5.09953 12.28 5.11953C11.74 5.11953 11.46 5.37953 11.46 5.93953C11.44 6.53953 11.46 7.11953 11.46 7.73953H13.78C14.1 7.73953 14.22 7.85953 14.22 8.17953V10.5995C14.22 10.9195 14.12 11.0195 13.78 11.0195H11.46V17.5395C11.46 17.8795 11.36 17.9995 11 17.9995H8.49999C8.19999 17.9995 8.07999 17.8795 8.07999 17.5795V11.0395Z" fill="#5F5F5F"/>
</svg>
