<svg width="77" height="77" viewBox="0 0 77 77" fill="none" xmlns="http://www.w3.org/2000/svg">
<path d="M0 0H77V77H0V0Z" fill="#2C2C2C"/>
<path d="M43.5859 29.4437C43.4941 29.1798 43.3225 28.9511 43.0948 28.7891C42.8671 28.6272 42.5947 28.5402 42.3153 28.54H34.6848C34.4054 28.5402 34.133 28.6273 33.9053 28.7892C33.6777 28.9512 33.5061 29.1799 33.4143 29.4438L21.4795 63.8228C21.4094 64.0255 21.3886 64.242 21.419 64.4543C21.4494 64.6666 21.53 64.8685 21.6542 65.0434C21.7786 65.2181 21.943 65.3604 22.1336 65.4588C22.3242 65.5571 22.5355 65.6084 22.75 65.6086H54.25C54.6844 65.6086 55.0941 65.3973 55.3458 65.0433C55.5975 64.6893 55.6629 64.2332 55.5205 63.8227L43.5859 29.4437ZM22.2892 64.5918C22.2364 64.5185 22.2021 64.4336 22.1893 64.3442C22.1765 64.2548 22.1856 64.1637 22.2157 64.0785L34.1504 29.6993C34.189 29.5883 34.2611 29.4921 34.3569 29.424C34.4526 29.3559 34.5672 29.3193 34.6847 29.3192H35.808L25.8954 64.8293H22.75C22.6596 64.8299 22.5705 64.8085 22.4903 64.7672C22.41 64.7258 22.341 64.6655 22.2891 64.5916L22.2892 64.5918ZM54.7108 64.5918C54.6589 64.6656 54.5898 64.7259 54.5096 64.7673C54.4293 64.8087 54.3402 64.83 54.2499 64.8294H51.1046L41.192 29.3194H42.3153C42.4328 29.3195 42.5474 29.3561 42.6432 29.4242C42.7389 29.4923 42.8111 29.5885 42.8497 29.6995L54.7842 64.0784C54.8143 64.1635 54.8234 64.2547 54.8106 64.3441C54.7978 64.4334 54.7636 64.5184 54.7108 64.5916V64.5918ZM59.1998 29.437V43.4336C59.1998 43.537 59.2408 43.6361 59.3139 43.7091C59.387 43.7822 59.4861 43.8233 59.5894 43.8233C59.6928 43.8233 59.7919 43.7822 59.865 43.7091C59.938 43.6361 59.9791 43.537 59.9791 43.4336V29.437C59.9791 29.3337 59.938 29.2346 59.865 29.1615C59.7919 29.0884 59.6928 29.0474 59.5894 29.0474C59.4861 29.0474 59.387 29.0884 59.3139 29.1615C59.2408 29.2346 59.1998 29.3337 59.1998 29.437ZM17.0207 29.437V43.4336C17.0207 43.537 17.0617 43.6361 17.1348 43.7091C17.2079 43.7822 17.307 43.8233 17.4103 43.8233C17.5137 43.8233 17.6128 43.7822 17.6858 43.7091C17.7589 43.6361 17.8 43.537 17.8 43.4336V29.437C17.8 29.3337 17.7589 29.2346 17.6858 29.1615C17.6128 29.0884 17.5137 29.0474 17.4103 29.0474C17.307 29.0474 17.2079 29.0884 17.1348 29.1615C17.0617 29.2346 17.0207 29.3337 17.0207 29.437Z" fill="white"/>
<path d="M65.1586 51.5262C65.0179 51.4113 64.8533 51.3295 64.6768 51.2867C64.5003 51.2438 64.3164 51.2411 64.1388 51.2786C64.0855 51.2897 64.0319 51.2992 63.9784 51.3097C63.797 50.2773 63.229 49.3834 62.4221 48.7567V23.5041C62.4221 23.4008 62.381 23.3017 62.3079 23.2286C62.2349 23.1555 62.1358 23.1145 62.0324 23.1145C61.9291 23.1145 61.83 23.1555 61.7569 23.2286C61.6838 23.3017 61.6428 23.4008 61.6428 23.5041V48.2722C61.0277 47.9718 60.3293 47.8027 59.5891 47.8027C58.8492 47.8027 58.151 47.9717 57.536 48.2718V22.1854C58.1681 22.5223 58.8734 22.6982 59.5897 22.6975C62.0083 22.6975 63.976 20.7297 63.976 18.311C63.976 15.8923 62.0083 13.9245 59.5897 13.9245C57.1711 13.9245 55.2031 15.8923 55.2031 18.311C55.2031 18.5116 55.2179 18.7088 55.2441 18.9024C54.7554 19.085 54.2638 19.2597 53.7694 19.4263V16.6936C54.3984 16.1377 54.7959 15.326 54.7959 14.4227C54.7959 12.7514 53.4362 11.3916 51.7647 11.3916C50.0935 11.3916 48.7337 12.7514 48.7337 14.4227C48.7337 15.3262 49.1315 16.1381 49.7605 16.6938V20.5829C46.0945 21.4679 42.3268 21.9177 38.5 21.9177C34.6732 21.9177 30.9056 21.4679 27.2395 20.5825V16.694C27.8686 16.1382 28.2665 15.3263 28.2665 14.4227C28.2665 12.7514 26.9067 11.3916 25.2354 11.3916C23.564 11.3916 22.2042 12.7514 22.2042 14.4227C22.2042 15.3259 22.6018 16.1377 23.2307 16.6935V19.4259C22.7363 19.2594 22.2448 19.0847 21.7561 18.902C21.7823 18.7085 21.797 18.5115 21.797 18.311C21.797 15.8923 19.8293 13.9245 17.4106 13.9245C14.9918 13.9245 13.0241 15.8923 13.0241 18.311C13.0241 19.6505 13.6283 20.8509 14.5777 21.6562V48.7561C13.7706 49.3829 13.2022 50.2768 13.0206 51.3095C12.9674 51.2988 12.914 51.2895 12.861 51.2784C12.6833 51.2409 12.4995 51.2438 12.3231 51.2866C12.1466 51.3295 11.982 51.4113 11.8413 51.5261C11.7004 51.6401 11.587 51.7842 11.5091 51.9479C11.4313 52.1115 11.3911 52.2905 11.3915 52.4717V53.0937C11.3902 53.5754 11.5602 54.0419 11.8712 54.4098C12.1822 54.7777 12.6139 55.0231 13.0891 55.102C15.9498 55.5814 18.8703 55.5816 21.7311 55.1027C22.2064 55.0239 22.6383 54.7786 22.9494 54.4106C23.2605 54.0427 23.4306 53.5761 23.4293 53.0942V52.4717C23.4297 52.2905 23.3895 52.1115 23.3116 51.9479C23.2338 51.7843 23.1203 51.6402 22.9795 51.5262C22.8388 51.4114 22.6742 51.3296 22.4977 51.2868C22.3212 51.2439 22.1374 51.2411 21.9598 51.2786C21.9064 51.2897 21.8529 51.2991 21.7994 51.3097C21.618 50.2772 21.05 49.3833 20.2431 48.7567V21.6565L20.2715 21.632C22.2179 23.0256 24.2911 24.1808 26.4602 25.0844V34.9333C26.0712 34.775 25.655 34.694 25.235 34.6948C24.7998 34.6948 24.3856 34.7799 24.0099 34.9334V25.3201C24.0099 25.2167 23.9688 25.1176 23.8957 25.0446C23.8227 24.9715 23.7236 24.9304 23.6202 24.9304C23.5169 24.9304 23.4178 24.9715 23.3447 25.0446C23.2716 25.1176 23.2306 25.2167 23.2306 25.3201V35.3942C22.7329 35.7983 22.3739 36.3525 22.2302 36.9909C22.0971 36.9665 21.9604 36.9712 21.8293 37.0047C21.6983 37.0383 21.5761 37.0999 21.4711 37.1852C21.3628 37.273 21.2756 37.3839 21.2157 37.5098C21.1558 37.6357 21.1249 37.7733 21.1252 37.9127V38.3238C21.1243 38.6734 21.2477 39.012 21.4734 39.2791C21.6992 39.5461 22.0125 39.7242 22.3574 39.7815C24.2626 40.1008 26.2076 40.101 28.1127 39.7819C28.4578 39.7248 28.7713 39.5467 28.9971 39.2796C29.2229 39.0126 29.3464 38.6739 29.3454 38.3241V37.9127C29.3457 37.7734 29.3147 37.6357 29.2549 37.5098C29.195 37.3839 29.1077 37.273 28.9994 37.1853C28.8944 37.0999 28.7721 37.0383 28.641 37.0047C28.5098 36.9712 28.373 36.9665 28.2399 36.9911C28.0963 36.3525 27.7371 35.7982 27.2395 35.3941V25.3953C30.7973 26.7655 34.5961 27.4741 38.5 27.4741C43.6121 27.4741 48.544 26.2598 52.9901 23.9341V34.9336C52.6009 34.7751 52.1846 34.694 51.7644 34.6948C51.3446 34.694 50.9287 34.7749 50.5398 34.933V26.6453C50.5398 26.542 50.4987 26.4429 50.4257 26.3698C50.3526 26.2967 50.2535 26.2557 50.1502 26.2557C50.0468 26.2557 49.9477 26.2967 49.8746 26.3698C49.8016 26.4429 49.7605 26.542 49.7605 26.6453V35.3937C49.2628 35.7978 48.9034 36.3523 48.7597 36.9909C48.6266 36.9664 48.4898 36.9711 48.3588 37.0047C48.2277 37.0383 48.1055 37.0999 48.0006 37.1853C47.8923 37.2731 47.805 37.3839 47.7451 37.5098C47.6853 37.6357 47.6543 37.7734 47.6546 37.9127V38.3238C47.6537 38.6734 47.7771 39.012 48.0029 39.2791C48.2286 39.5461 48.542 39.7242 48.8869 39.7815C50.792 40.1008 52.737 40.101 54.6421 39.7819C54.9872 39.7248 55.3006 39.5467 55.5265 39.2796C55.7523 39.0126 55.8757 38.6739 55.8748 38.3241V37.9127C55.8751 37.7734 55.8441 37.6357 55.7843 37.5098C55.7244 37.3839 55.6372 37.2731 55.5289 37.1853C55.4239 37.0999 55.3016 37.0383 55.1705 37.0047C55.0393 36.9712 54.9025 36.9665 54.7694 36.9911C54.6258 36.3528 54.2667 35.7987 53.7694 35.3946V23.513C54.7899 22.9413 55.7778 22.3132 56.7285 21.6319L56.7567 21.6562V48.7561C55.9496 49.3829 55.3813 50.2768 55.1997 51.3095C55.1466 51.2988 55.0931 51.2895 55.04 51.2784C54.8623 51.241 54.6785 51.2438 54.5021 51.2867C54.3256 51.3295 54.161 51.4113 54.0203 51.5261C53.8795 51.6401 53.766 51.7842 53.6882 51.9479C53.6103 52.1115 53.5701 52.2905 53.5705 52.4717V53.0937C53.5692 53.5754 53.7393 54.0419 54.0503 54.4098C54.3613 54.7778 54.793 55.0231 55.2682 55.102C58.1289 55.5814 61.0494 55.5816 63.9102 55.1027C64.3856 55.0239 64.8174 54.7786 65.1285 54.4106C65.4396 54.0427 65.6097 53.5761 65.6084 53.0942V52.4717C65.6088 52.2905 65.5686 52.1115 65.4907 51.9479C65.4129 51.7843 65.2994 51.6402 65.1586 51.5262ZM13.8034 18.311C13.8034 16.322 15.4216 14.7038 17.4104 14.7038C18.4034 14.7038 19.3037 15.1071 19.9565 15.7583C19.5321 15.522 19.0542 15.3983 18.5685 15.3991C18.5441 15.3991 18.5197 15.3993 18.4952 15.3999C16.3758 15.4415 14.6324 17.1758 14.58 19.295C14.5758 19.465 14.5823 19.6326 14.5987 19.7972C14.6421 20.2316 14.7889 20.6492 15.027 21.0151C14.2774 20.3537 13.8034 19.387 13.8034 18.311ZM19.4638 22.1858V48.2722C18.8487 47.9718 18.1502 47.8027 17.4101 47.8027C16.6701 47.8027 15.972 47.9717 15.357 48.2718V22.1854C15.989 22.5222 16.6944 22.6981 17.4106 22.6975C18.152 22.6975 18.8508 22.5118 19.4638 22.1858ZM22.1187 52.0415C22.1828 52.0279 22.2491 52.0288 22.3128 52.0442C22.3765 52.0595 22.4359 52.0888 22.4868 52.13C22.5378 52.1712 22.5788 52.2233 22.607 52.2824C22.6353 52.3415 22.6499 52.4062 22.65 52.4717V53.0942C22.65 53.7106 22.2091 54.2321 21.6019 54.3342C18.8479 54.7969 15.9685 54.7965 13.2185 54.3335C12.9252 54.2848 12.6587 54.1333 12.4668 53.9061C12.2748 53.679 12.1699 53.391 12.1708 53.0937V52.4717C12.1708 52.4062 12.1854 52.3415 12.2136 52.2823C12.2418 52.2232 12.2828 52.1711 12.3337 52.1298C12.3846 52.0886 12.4441 52.0593 12.5078 52.044C12.5715 52.0286 12.6378 52.0278 12.7019 52.0414C15.7812 52.6833 19.0412 52.6833 22.1187 52.0415ZM21.0329 51.4492C18.6474 51.8396 16.1737 51.8396 13.7872 51.4489C14.0756 49.799 15.5907 48.582 17.4101 48.582C19.2295 48.582 20.7446 49.7991 21.0329 51.4492ZM49.5129 14.4227C49.5129 13.1811 50.5231 12.1709 51.7647 12.1709C52.2374 12.1709 52.6761 12.318 53.0388 12.5678C52.8576 12.517 52.6698 12.4937 52.4817 12.4988C51.081 12.5263 49.9287 13.6725 49.8941 15.0731C49.8913 15.1839 49.8955 15.2947 49.9065 15.405C49.921 15.5449 49.952 15.6826 49.9986 15.8153C49.6955 15.4317 49.513 14.9485 49.513 14.4227H49.5129ZM52.9901 17.1942V19.6806C52.1799 19.9386 51.3628 20.1748 50.5398 20.3888V17.1945C50.9254 17.3658 51.3428 17.4541 51.7647 17.4539C52.2008 17.4539 52.6153 17.3607 52.9901 17.1942ZM22.9835 14.4227C22.9835 13.1811 23.9937 12.1709 25.2354 12.1709C25.7081 12.1709 26.1467 12.318 26.5093 12.5678C26.3281 12.517 26.1403 12.4937 25.9522 12.4988C24.5515 12.5263 23.3992 13.6725 23.3646 15.0731C23.3618 15.1839 23.366 15.2947 23.377 15.405C23.3913 15.5479 23.4239 15.6847 23.4693 15.8154C23.166 15.4317 22.9835 14.9485 22.9835 14.4227ZM26.4602 17.1945V20.3885C25.6372 20.1745 24.8201 19.9384 24.0099 19.6804V17.194C24.3956 17.3656 24.8132 17.4541 25.2354 17.4539C25.6712 17.4539 26.0854 17.3608 26.4602 17.1945ZM28.3739 37.7578C28.3972 37.7527 28.4214 37.753 28.4445 37.7586C28.4677 37.7642 28.4893 37.7749 28.5077 37.7901C28.5261 37.8048 28.5409 37.8235 28.551 37.8447C28.5611 37.866 28.5662 37.8892 28.5661 37.9127V38.3241C28.5661 38.6669 28.3212 38.9567 27.9836 39.0133C26.1781 39.3166 24.2902 39.3166 22.4868 39.0129C22.3238 38.9858 22.1757 38.9016 22.069 38.7753C21.9624 38.6491 21.9041 38.489 21.9045 38.3238V37.9127C21.9043 37.8892 21.9095 37.8659 21.9196 37.8447C21.9296 37.8234 21.9444 37.8047 21.9628 37.7899C21.9812 37.7749 22.0028 37.7641 22.0259 37.7585C22.0491 37.7529 22.0732 37.7526 22.0965 37.7577C24.1491 38.1856 26.3221 38.1857 28.3739 37.7578ZM27.4704 37.1294C25.9888 37.356 24.4814 37.356 22.9998 37.1293C23.2338 36.169 24.1464 35.4741 25.235 35.4741C26.3238 35.4741 27.2363 36.169 27.4704 37.1294ZM54.9034 37.7578C54.9267 37.7527 54.9509 37.7529 54.974 37.7585C54.9972 37.7641 55.0188 37.7749 55.0372 37.7901C55.0556 37.8048 55.0703 37.8235 55.0804 37.8447C55.0905 37.866 55.0956 37.8892 55.0955 37.9127V38.3241C55.0955 38.6669 54.8505 38.9567 54.513 39.0133C52.7076 39.3166 50.8195 39.3165 49.0163 39.0129C48.8532 38.9858 48.7052 38.9016 48.5985 38.7753C48.4918 38.6491 48.4335 38.489 48.434 38.3238V37.9127C48.4338 37.8892 48.439 37.8659 48.4491 37.8447C48.4591 37.8234 48.4739 37.8047 48.4923 37.7899C48.5107 37.7749 48.5323 37.7641 48.5554 37.7585C48.5786 37.753 48.6027 37.7527 48.626 37.7577C50.6785 38.1856 52.8517 38.1858 54.9034 37.7578ZM53.9999 37.1294C52.5183 37.356 51.0109 37.356 49.5293 37.1293C49.7633 36.169 50.6757 35.4741 51.7644 35.4741C52.8531 35.4741 53.7658 36.1691 53.9999 37.1294ZM38.5 26.6948C32.1093 26.6948 26.0064 24.751 20.822 21.0694C21.1589 20.654 21.4165 20.1801 21.5818 19.6714C26.9889 21.6792 32.6785 22.697 38.5 22.697C44.3222 22.697 50.0124 21.6792 55.4194 19.6714C55.4267 19.694 55.4352 19.7162 55.4429 19.7385C55.4544 19.7719 55.4656 19.8053 55.4779 19.8382C55.4961 19.8874 55.5157 19.9361 55.5358 19.9846C55.5408 19.9969 55.5454 20.0096 55.5507 20.0219C55.7098 20.3986 55.9211 20.7511 56.1783 21.069C50.9937 24.7512 44.891 26.6948 38.5 26.6948ZM56.6252 20.3629C56.6134 20.3458 56.6014 20.329 56.59 20.3119C56.5651 20.2747 56.5409 20.237 56.5173 20.1988C56.501 20.1721 56.4853 20.1449 56.4695 20.1178C56.4412 20.0692 56.4141 20.0198 56.3882 19.9699C56.3662 19.9279 56.3451 19.8855 56.3247 19.8426C56.2865 19.7613 56.2513 19.6786 56.2193 19.5946C56.215 19.5835 56.2103 19.5723 56.2061 19.5612C56.1787 19.487 56.1539 19.4119 56.1316 19.336L56.1233 19.3069C56.1011 19.2299 56.0814 19.1521 56.0643 19.0737L56.0641 19.0729C56.0099 18.8226 55.9825 18.5671 55.9824 18.311C55.9824 16.322 57.6006 14.7038 59.5897 14.7038C60.5825 14.7038 61.4828 15.1071 62.1357 15.7583C61.7113 15.5219 61.2333 15.3983 60.7475 15.3991C60.7232 15.3991 60.6987 15.3993 60.6743 15.3999C58.5549 15.4415 56.8114 17.1758 56.759 19.295C56.7549 19.465 56.7613 19.6326 56.7777 19.7972C56.8211 20.2316 56.968 20.6492 57.2061 21.0151C57.113 20.9331 57.0241 20.8464 56.9398 20.7553C56.9309 20.7457 56.922 20.7363 56.9131 20.7265C56.8786 20.6883 56.8449 20.6494 56.812 20.6099C56.8045 20.6008 56.7973 20.5914 56.7899 20.5822C56.7322 20.5112 56.6774 20.438 56.6252 20.3629ZM59.5891 48.582C61.4085 48.582 62.9236 49.7991 63.2121 51.4491C60.8263 51.8397 58.3527 51.8396 55.9662 51.4489C56.2547 49.799 57.7697 48.582 59.5891 48.582ZM64.8291 53.0941C64.8291 53.7106 64.3882 54.2321 63.7809 54.3342C61.0274 54.7968 58.1477 54.7965 55.3975 54.3335C55.1042 54.2847 54.8377 54.1332 54.6458 53.9061C54.4539 53.679 54.349 53.391 54.3499 53.0937V52.4717C54.3499 52.4062 54.3646 52.3415 54.3928 52.2824C54.421 52.2233 54.462 52.1712 54.5129 52.1299C54.5638 52.0887 54.6233 52.0594 54.687 52.044C54.7507 52.0287 54.817 52.0278 54.881 52.0414C57.9602 52.6833 61.2201 52.6832 64.298 52.0414C64.3623 52.0278 64.4288 52.0287 64.4927 52.0442C64.5566 52.0597 64.6162 52.0893 64.6671 52.1309C64.7178 52.172 64.7587 52.224 64.7867 52.2829C64.8148 52.3419 64.8292 52.4064 64.8291 52.4717V53.0942V53.0941Z" fill="white"/>
</svg>
