<svg width="18" height="18" viewBox="0 0 18 18" fill="none" xmlns="http://www.w3.org/2000/svg">
<g clip-path="url(#clip0_142_2026)">
<path d="M14.2323 3.33203C13.9914 3.33203 13.7953 3.5281 13.7953 3.76902C13.7953 4.00995 13.9914 4.20602 14.2323 4.20602C14.4733 4.20602 14.6693 4.00998 14.6693 3.76902C14.6693 3.52806 14.4733 3.33203 14.2323 3.33203ZM8.99999 5.12729C6.86383 5.12729 5.12592 6.8652 5.12592 9.00136C5.12592 11.1375 6.86383 12.8755 8.99999 12.8755C11.1362 12.8755 12.8741 11.1376 12.8741 9.0014C12.8741 6.86523 11.1362 5.12729 8.99999 5.12729Z" fill="#5F5F5F"/>
<path d="M13.0656 0H4.93443C2.21358 0 0 2.21358 0 4.93446V13.0656C0 15.7865 2.21358 18 4.93443 18H13.0656C15.7865 18 18 15.7864 18 13.0656V4.93446C18 2.21358 15.7865 0 13.0656 0ZM9 13.9371C6.27768 13.9371 4.06297 11.7223 4.06297 9C4.06297 6.27768 6.27771 4.06301 9 4.06301C11.7223 4.06301 13.9371 6.27771 13.9371 9C13.9371 11.7223 11.7223 13.9371 9 13.9371ZM14.2323 5.26767C13.4053 5.26767 12.7324 4.59478 12.7324 3.7677C12.7324 2.94061 13.4053 2.26768 14.2323 2.26768C15.0594 2.26768 15.7323 2.94057 15.7323 3.76766C15.7323 4.59475 15.0594 5.26767 14.2323 5.26767Z" fill="#5F5F5F"/>
</g>
<defs>
<clipPath id="clip0_142_2026">
<rect width="18" height="18" fill="white"/>
</clipPath>
</defs>
</svg>
