<svg width="139" height="36" viewBox="0 0 139 36" fill="none" xmlns="http://www.w3.org/2000/svg">
<g clip-path="url(#clip0_163_1113)">
<path d="M138.338 18.5825H110.969C110.644 18.5825 110.381 18.3207 110.381 17.9967C110.381 17.6726 110.644 17.4108 110.969 17.4108H136.916L133.345 13.8555C133.115 13.6266 133.115 13.255 133.345 13.0261C133.574 12.7973 133.948 12.7973 134.178 13.0261L138.756 17.5829C138.925 17.7513 138.975 18.0022 138.883 18.2218C138.791 18.4397 138.575 18.5825 138.338 18.5825Z" fill="#CDA961"/>
<path d="M133.754 23.1445C133.603 23.1445 133.452 23.0878 133.338 22.9724C133.109 22.7436 133.109 22.3719 133.338 22.1431L137.922 17.5808C138.152 17.352 138.525 17.352 138.755 17.5808C138.985 17.8097 138.985 18.1813 138.755 18.4102L134.172 22.9724C134.056 23.0878 133.905 23.1445 133.754 23.1445Z" fill="#CDA961"/>
</g>
<path d="M125.037 7.8529V1H1V35.2645H125.037V28.4116" stroke="#CDA961" stroke-width="1.37058"/>
<path d="M29.926 23.2236V13.3816H31.83V23.2236H29.926ZM31.326 23.2236V21.5296H36.338V23.2236H31.326ZM40.5095 23.3636C39.8282 23.3636 39.2122 23.2096 38.6615 22.9016C38.1202 22.5843 37.6862 22.1596 37.3595 21.6276C37.0422 21.0863 36.8835 20.4843 36.8835 19.8216C36.8835 19.159 37.0422 18.5663 37.3595 18.0436C37.6769 17.5116 38.1109 17.0916 38.6615 16.7836C39.2122 16.4663 39.8235 16.3076 40.4955 16.3076C41.1862 16.3076 41.8022 16.4663 42.3435 16.7836C42.8942 17.0916 43.3282 17.5116 43.6455 18.0436C43.9629 18.5663 44.1215 19.159 44.1215 19.8216C44.1215 20.4843 43.9629 21.0863 43.6455 21.6276C43.3282 22.1596 42.8942 22.5843 42.3435 22.9016C41.8022 23.2096 41.1909 23.3636 40.5095 23.3636ZM40.4955 21.6556C40.8409 21.6556 41.1442 21.581 41.4055 21.4316C41.6762 21.273 41.8815 21.0583 42.0215 20.7876C42.1709 20.5076 42.2455 20.1903 42.2455 19.8356C42.2455 19.481 42.1709 19.1683 42.0215 18.8976C41.8722 18.627 41.6669 18.417 41.4055 18.2676C41.1442 18.109 40.8409 18.0296 40.4955 18.0296C40.1595 18.0296 39.8609 18.109 39.5995 18.2676C39.3382 18.417 39.1329 18.627 38.9835 18.8976C38.8342 19.1683 38.7595 19.481 38.7595 19.8356C38.7595 20.1903 38.8342 20.5076 38.9835 20.7876C39.1329 21.0583 39.3382 21.273 39.5995 21.4316C39.8609 21.581 40.1595 21.6556 40.4955 21.6556ZM48.1302 23.3636C47.5142 23.3636 46.9589 23.2096 46.4642 22.9016C45.9696 22.5936 45.5822 22.1736 45.3022 21.6416C45.0222 21.1096 44.8822 20.5123 44.8822 19.8496C44.8822 19.1776 45.0222 18.5756 45.3022 18.0436C45.5822 17.5116 45.9696 17.0916 46.4642 16.7836C46.9589 16.4756 47.5142 16.3216 48.1302 16.3216C48.6156 16.3216 49.0496 16.4196 49.4322 16.6156C49.8149 16.8116 50.1182 17.087 50.3422 17.4416C50.5756 17.787 50.7016 18.179 50.7202 18.6176V21.0536C50.7016 21.5016 50.5756 21.8983 50.3422 22.2436C50.1182 22.589 49.8149 22.8643 49.4322 23.0696C49.0496 23.2656 48.6156 23.3636 48.1302 23.3636ZM48.4662 21.6696C48.9796 21.6696 49.3949 21.5016 49.7122 21.1656C50.0296 20.8203 50.1882 20.377 50.1882 19.8356C50.1882 19.481 50.1136 19.1683 49.9642 18.8976C49.8242 18.6176 49.6236 18.403 49.3622 18.2536C49.1102 18.095 48.8116 18.0156 48.4662 18.0156C48.1302 18.0156 47.8316 18.095 47.5702 18.2536C47.3182 18.403 47.1176 18.6176 46.9682 18.8976C46.8282 19.1683 46.7582 19.481 46.7582 19.8356C46.7582 20.1996 46.8282 20.5216 46.9682 20.8016C47.1176 21.0723 47.3182 21.287 47.5702 21.4456C47.8316 21.595 48.1302 21.6696 48.4662 21.6696ZM50.0902 23.2236V21.4036L50.3842 19.7516L50.0902 18.1276V16.4616H51.9102V23.2236H50.0902ZM56.3887 23.3636C55.7634 23.3636 55.2034 23.2096 54.7087 22.9016C54.214 22.5936 53.822 22.1736 53.5327 21.6416C53.2527 21.1096 53.1127 20.5123 53.1127 19.8496C53.1127 19.1776 53.2527 18.5756 53.5327 18.0436C53.822 17.5116 54.2094 17.0916 54.6947 16.7836C55.1894 16.4756 55.754 16.3216 56.3887 16.3216C56.874 16.3216 57.308 16.4196 57.6907 16.6156C58.0827 16.8116 58.3954 17.087 58.6287 17.4416C58.8714 17.787 59.002 18.179 59.0207 18.6176V21.0256C59.002 21.4643 58.876 21.861 58.6427 22.2156C58.4094 22.5703 58.0967 22.8503 57.7047 23.0556C57.3127 23.261 56.874 23.3636 56.3887 23.3636ZM56.6967 21.6696C57.042 21.6696 57.3407 21.595 57.5927 21.4456C57.854 21.287 58.0547 21.0723 58.1947 20.8016C58.344 20.5216 58.4187 20.1996 58.4187 19.8356C58.4187 19.481 58.344 19.1683 58.1947 18.8976C58.0547 18.6176 57.854 18.403 57.5927 18.2536C57.3407 18.095 57.0467 18.0156 56.7107 18.0156C56.3654 18.0156 56.062 18.095 55.8007 18.2536C55.5487 18.4123 55.348 18.627 55.1987 18.8976C55.0587 19.1683 54.9887 19.481 54.9887 19.8356C54.9887 20.1996 55.0587 20.5216 55.1987 20.8016C55.348 21.0723 55.5534 21.287 55.8147 21.4456C56.076 21.595 56.37 21.6696 56.6967 21.6696ZM60.1407 23.2236H58.3207V21.4036L58.6147 19.7516L58.3067 18.1276V13.1016H60.1407V23.2236ZM64.6935 23.2236V13.3816H66.0375L70.0275 19.7656H69.2575L73.2335 13.3816H74.5775V23.2236H72.6875V16.6436L73.0515 16.7556L70.2795 21.2076H68.9915L66.2195 16.7556L66.5975 16.6436V23.2236H64.6935ZM79.5701 23.3636C78.8887 23.3636 78.2727 23.2096 77.7221 22.9016C77.1807 22.5843 76.7467 22.1596 76.4201 21.6276C76.1027 21.0863 75.9441 20.4843 75.9441 19.8216C75.9441 19.159 76.1027 18.5663 76.4201 18.0436C76.7374 17.5116 77.1714 17.0916 77.7221 16.7836C78.2727 16.4663 78.8841 16.3076 79.5561 16.3076C80.2467 16.3076 80.8627 16.4663 81.4041 16.7836C81.9547 17.0916 82.3887 17.5116 82.7061 18.0436C83.0234 18.5663 83.1821 19.159 83.1821 19.8216C83.1821 20.4843 83.0234 21.0863 82.7061 21.6276C82.3887 22.1596 81.9547 22.5843 81.4041 22.9016C80.8627 23.2096 80.2514 23.3636 79.5701 23.3636ZM79.5561 21.6556C79.9014 21.6556 80.2047 21.581 80.4661 21.4316C80.7367 21.273 80.9421 21.0583 81.0821 20.7876C81.2314 20.5076 81.3061 20.1903 81.3061 19.8356C81.3061 19.481 81.2314 19.1683 81.0821 18.8976C80.9327 18.627 80.7274 18.417 80.4661 18.2676C80.2047 18.109 79.9014 18.0296 79.5561 18.0296C79.2201 18.0296 78.9214 18.109 78.6601 18.2676C78.3987 18.417 78.1934 18.627 78.0441 18.8976C77.8947 19.1683 77.8201 19.481 77.8201 19.8356C77.8201 20.1903 77.8947 20.5076 78.0441 20.7876C78.1934 21.0583 78.3987 21.273 78.6601 21.4316C78.9214 21.581 79.2201 21.6556 79.5561 21.6556ZM84.3628 23.2236V16.4616H86.1968V23.2236H84.3628ZM86.1968 19.4856L85.4828 19.0096C85.5668 18.179 85.8094 17.5256 86.2108 17.0496C86.6121 16.5643 87.1908 16.3216 87.9468 16.3216C88.2734 16.3216 88.5674 16.3776 88.8288 16.4896C89.0901 16.5923 89.3281 16.765 89.5428 17.0076L88.3948 18.3236C88.2921 18.2116 88.1661 18.1276 88.0168 18.0716C87.8768 18.0156 87.7134 17.9876 87.5268 17.9876C87.1348 17.9876 86.8128 18.1136 86.5608 18.3656C86.3181 18.6083 86.1968 18.9816 86.1968 19.4856ZM93.2296 23.3636C92.5203 23.3636 91.8903 23.2143 91.3396 22.9156C90.7889 22.6076 90.3503 22.1876 90.0236 21.6556C89.7063 21.1236 89.5476 20.517 89.5476 19.8356C89.5476 19.1636 89.7016 18.5663 90.0096 18.0436C90.3269 17.5116 90.7563 17.0916 91.2976 16.7836C91.8389 16.4663 92.4409 16.3076 93.1036 16.3076C93.7569 16.3076 94.3309 16.457 94.8256 16.7556C95.3296 17.045 95.7216 17.4463 96.0016 17.9596C96.2909 18.4636 96.4356 19.0376 96.4356 19.6816C96.4356 19.803 96.4263 19.929 96.4076 20.0596C96.3983 20.181 96.3749 20.321 96.3376 20.4796L90.6536 20.4936V19.1216L95.4836 19.1076L94.7416 19.6816C94.7229 19.2803 94.6483 18.9443 94.5176 18.6736C94.3963 18.403 94.2143 18.1976 93.9716 18.0576C93.7383 17.9083 93.4489 17.8336 93.1036 17.8336C92.7396 17.8336 92.4223 17.9176 92.1516 18.0856C91.8809 18.2443 91.6709 18.473 91.5216 18.7716C91.3816 19.061 91.3116 19.4063 91.3116 19.8076C91.3116 20.2183 91.3863 20.5776 91.5356 20.8856C91.6943 21.1843 91.9183 21.4176 92.2076 21.5856C92.4969 21.7443 92.8329 21.8236 93.2156 21.8236C93.5609 21.8236 93.8736 21.7676 94.1536 21.6556C94.4336 21.5343 94.6763 21.357 94.8816 21.1236L95.9596 22.2016C95.6329 22.5843 95.2316 22.8736 94.7556 23.0696C94.2889 23.2656 93.7803 23.3636 93.2296 23.3636Z" fill="#CDA961"/>
<defs>
<clipPath id="clip0_163_1113">
<rect width="28.6931" height="28.56" fill="white" transform="translate(110.307 3.7207)"/>
</clipPath>
</defs>
</svg>
