<svg width="16" height="20" viewBox="0 0 16 20" fill="none" xmlns="http://www.w3.org/2000/svg">
<path d="M8 0C6.01169 0.00264579 4.10557 0.793672 2.69962 2.19962C1.29367 3.60557 0.502646 5.51169 0.5 7.5C0.5 12.8844 7.4875 19.6281 7.78437 19.9125C7.84212 19.9686 7.91947 20 8 20C8.08053 20 8.15788 19.9686 8.21562 19.9125C8.5125 19.6281 15.5 12.8844 15.5 7.5C15.4974 5.51169 14.7063 3.60557 13.3004 2.19962C11.8944 0.793672 9.98831 0.00264579 8 0ZM8 10.9375C7.32013 10.9375 6.65552 10.7359 6.09023 10.3582C5.52493 9.98046 5.08434 9.4436 4.82416 8.81547C4.56399 8.18735 4.49591 7.49619 4.62855 6.82938C4.76119 6.16257 5.08858 5.55006 5.56932 5.06932C6.05006 4.58858 6.66257 4.26119 7.32938 4.12855C7.99619 3.99591 8.68735 4.06399 9.31547 4.32416C9.9436 4.58434 10.4805 5.02493 10.8582 5.59023C11.2359 6.15552 11.4375 6.82013 11.4375 7.5C11.4369 8.4115 11.0746 9.28551 10.43 9.93004C9.78551 10.5746 8.9115 10.9369 8 10.9375Z" fill="#7F7F7F"/>
</svg>
