<svg width="30" height="30" viewBox="0 0 30 30" fill="none" xmlns="http://www.w3.org/2000/svg">
<circle cx="15" cy="15" r="14.5" stroke="white"/>
<g clip-path="url(#clip0_163_2263)">
<path d="M15 7.5C13.5088 7.50198 12.0792 8.09525 11.0247 9.14972C9.97025 10.2042 9.37698 11.6338 9.375 13.125C9.375 17.1633 14.6156 22.2211 14.8383 22.4344C14.8816 22.4765 14.9396 22.5 15 22.5C15.0604 22.5 15.1184 22.4765 15.1617 22.4344C15.3844 22.2211 20.625 17.1633 20.625 13.125C20.623 11.6338 20.0297 10.2042 18.9753 9.14972C17.9208 8.09525 16.4912 7.50198 15 7.5ZM15 15.7031C14.4901 15.7031 13.9916 15.5519 13.5677 15.2686C13.1437 14.9853 12.8133 14.5827 12.6181 14.1116C12.423 13.6405 12.3719 13.1221 12.4714 12.622C12.5709 12.1219 12.8164 11.6625 13.177 11.302C13.5375 10.9414 13.9969 10.6959 14.497 10.5964C14.9971 10.4969 15.5155 10.548 15.9866 10.7431C16.4577 10.9383 16.8603 11.2687 17.1436 11.6927C17.4269 12.1166 17.5781 12.6151 17.5781 13.125C17.5777 13.8086 17.3059 14.4641 16.8225 14.9475C16.3391 15.4309 15.6836 15.7027 15 15.7031Z" fill="white"/>
</g>
<defs>
<clipPath id="clip0_163_2263">
<rect width="15" height="15" fill="white" transform="translate(7.5 7.5)"/>
</clipPath>
</defs>
</svg>
