<svg width="30" height="30" viewBox="0 0 30 30" fill="none" xmlns="http://www.w3.org/2000/svg">
<circle cx="15" cy="15" r="14.5" stroke="white"/>
<g clip-path="url(#clip0_163_2320)">
<path d="M17.2187 15.623L15.9624 16.8836C15.4529 17.3948 14.5566 17.4058 14.0361 16.8836L12.7798 15.623L8.26758 20.1499C8.43554 20.2275 8.62072 20.2739 8.8176 20.2739H21.1809C21.3778 20.2739 21.5629 20.2276 21.7308 20.1499L17.2187 15.623Z" fill="white"/>
<path d="M21.1816 9.72656H8.81836C8.62148 9.72656 8.4363 9.77291 8.2684 9.85058L13.09 14.6882C13.0903 14.6885 13.0907 14.6885 13.091 14.6889C13.0912 14.6891 13.0913 14.6893 13.0914 14.6896L14.6592 16.2626C14.8257 16.4291 15.1744 16.4291 15.3409 16.2626L16.9083 14.6899C16.9083 14.6899 16.9087 14.6892 16.909 14.6889C16.909 14.6889 16.9097 14.6885 16.9101 14.6882L21.7315 9.85055C21.5636 9.77285 21.3785 9.72656 21.1816 9.72656ZM7.64021 10.4652C7.55332 10.6409 7.5 10.836 7.5 11.0449V18.9551C7.5 19.164 7.55326 19.3591 7.64019 19.5348L12.1602 15.0001L7.64021 10.4652ZM22.3598 10.4651L17.8398 15.0001L22.3598 19.5349C22.4467 19.3591 22.5 19.1641 22.5 18.9551V11.0449C22.5 10.8359 22.4467 10.6409 22.3598 10.4651Z" fill="white"/>
</g>
<defs>
<clipPath id="clip0_163_2320">
<rect width="15" height="15" fill="white" transform="translate(7.5 7.5)"/>
</clipPath>
</defs>
</svg>
