<svg width="20" height="16" viewBox="0 0 20 16" fill="none" xmlns="http://www.w3.org/2000/svg">
<path d="M12.9592 8.83008L11.2841 10.5108C10.6049 11.1924 9.40973 11.2071 8.71578 10.5108L7.04066 8.83008L1.02441 14.8659C1.24836 14.9694 1.49527 15.0312 1.75777 15.0312H18.2421C18.5046 15.0312 18.7515 14.9695 18.9754 14.8659L12.9592 8.83008Z" fill="#7F7F7F"/>
<path d="M18.2422 0.96875H1.75781C1.49531 0.96875 1.2484 1.03055 1.02453 1.1341L7.45332 7.58422C7.45375 7.58465 7.45426 7.58473 7.45469 7.58516C7.45495 7.58544 7.45513 7.58579 7.4552 7.58617L9.54555 9.68344C9.76758 9.90547 10.2325 9.90547 10.4545 9.68344L12.5445 7.58652C12.5445 7.58652 12.545 7.58559 12.5454 7.58516C12.5454 7.58516 12.5463 7.58465 12.5468 7.58422L18.9754 1.13406C18.7515 1.03047 18.5047 0.96875 18.2422 0.96875ZM0.186953 1.95359C0.0710937 2.18789 0 2.44797 0 2.72656V13.2734C0 13.552 0.0710156 13.8121 0.186914 14.0464L6.21359 8.0002L0.186953 1.95359ZM19.813 1.95352L13.7864 8.0002L19.813 14.0465C19.9289 13.8122 20 13.5521 20 13.2734V2.72656C20 2.44789 19.9289 2.18781 19.813 1.95352Z" fill="#7F7F7F"/>
</svg>
