<svg width="38" height="30" viewBox="0 0 38 30" fill="none" xmlns="http://www.w3.org/2000/svg">
<path fill-rule="evenodd" clip-rule="evenodd" d="M37.75 2.50033C37.75 1.94779 37.5305 1.41789 37.1398 1.02719C36.7491 0.636486 36.2192 0.416992 35.6667 0.416992H2.33334C1.7808 0.416992 1.2509 0.636486 0.860195 1.02719C0.469494 1.41789 0.25 1.94779 0.25 2.50033C0.25 3.05286 0.469494 3.58276 0.860195 3.97346C1.2509 4.36417 1.7808 4.58366 2.33334 4.58366H35.6667C36.2192 4.58366 36.7491 4.36417 37.1398 3.97346C37.5305 3.58276 37.75 3.05286 37.75 2.50033ZM37.75 15.0003C37.75 14.4478 37.5305 13.9179 37.1398 13.5272C36.7491 13.1365 36.2192 12.917 35.6667 12.917H14.8333C14.2808 12.917 13.7509 13.1365 13.3602 13.5272C12.9695 13.9179 12.75 14.4478 12.75 15.0003C12.75 15.5529 12.9695 16.0828 13.3602 16.4735C13.7509 16.8642 14.2808 17.0837 14.8333 17.0837H35.6667C36.2192 17.0837 36.7491 16.8642 37.1398 16.4735C37.5305 16.0828 37.75 15.5529 37.75 15.0003ZM37.75 27.5003C37.75 26.9478 37.5305 26.4179 37.1398 26.0272C36.7491 25.6365 36.2192 25.417 35.6667 25.417H25.25C24.6975 25.417 24.1676 25.6365 23.7769 26.0272C23.3862 26.4179 23.1667 26.9478 23.1667 27.5003C23.1667 28.0529 23.3862 28.5828 23.7769 28.9735C24.1676 29.3642 24.6975 29.5837 25.25 29.5837H35.6667C36.2192 29.5837 36.7491 29.3642 37.1398 28.9735C37.5305 28.5828 37.75 28.0529 37.75 27.5003Z" fill="#CDA961"/>
</svg>
