<svg width="77" height="77" viewBox="0 0 77 77" fill="none" xmlns="http://www.w3.org/2000/svg">
<path d="M0 0H77V77H0V0Z" fill="#2C2C2C"/>
<g clip-path="url(#clip0_142_1669)">
<path d="M19.1974 56.5527C19.1974 57.4762 18.4487 58.225 17.5251 58.225C16.6014 58.225 15.8528 57.4763 15.8528 56.5527C15.8528 54.2969 15.9141 52.136 16.037 50.0958C15.2567 50.3175 14.4678 50.5082 13.6724 50.6673C12.7668 50.8485 11.8858 50.2611 11.7046 49.3555C11.5236 48.4499 12.1109 47.5688 13.0165 47.3878C14.1386 47.1632 15.2454 46.8684 16.3305 46.5051C16.6907 43.0827 17.2549 40.1108 18.0253 37.7447C19.8671 32.0876 23.1597 29.4902 27.4703 31.6454C31.7767 33.7987 31.8981 38.2919 28.5467 42.4476C26.4661 45.0275 23.2629 47.3029 19.4723 48.8934C19.2899 51.2597 19.1974 53.8314 19.1974 56.5527ZM25.9433 40.348C28.1075 37.6645 28.0537 35.6763 25.9747 34.6368C23.9729 33.6359 22.5027 34.7957 21.2056 38.7801C20.6481 40.492 20.2039 42.6015 19.8765 45.0238C22.4139 43.7332 24.5258 42.1058 25.9433 40.348ZM43.5885 33.1372L58.6387 18.087C59.9448 16.7809 62.0625 16.7809 63.3686 18.087L66.0205 20.7388C67.3265 22.0449 67.3265 24.1625 66.0205 25.4687L50.9701 40.5189C50.3429 41.1461 49.4922 41.4985 48.6052 41.4985H44.281C43.3575 41.4985 42.6087 40.7498 42.6087 39.8262V35.5021C42.6089 34.6151 42.9613 33.7644 43.5885 33.1372ZM48.6052 38.154L58.6386 28.1205L55.9868 25.4687L45.9532 35.5022V38.154H48.6052ZM63.6555 23.1038L61.0037 20.4519L58.3518 23.1038L61.0037 25.7556L63.6555 23.1038ZM28.8172 50.9648C28.209 51.6598 27.1525 51.7303 26.4575 51.1221C25.7625 50.514 25.692 49.4575 26.3002 48.7625L30.9254 43.4765C31.8377 42.434 33.4223 42.3283 34.465 43.2405C34.9279 43.6456 35.2258 44.2067 35.3022 44.8172L35.468 46.1442L36.5106 45.0439C37.4634 44.0382 39.051 43.9954 40.0566 44.9482C40.1785 45.0637 40.2885 45.1912 40.385 45.3287L41.6228 47.0935L47.1679 45.5151C48.0562 45.2623 48.9812 45.7773 49.234 46.6656C49.4869 47.5538 48.9718 48.479 48.0835 48.7318L41.9665 50.4731C41.4653 50.6157 40.9321 50.5988 40.441 50.4246C39.9499 50.2503 39.5253 49.9275 39.2261 49.5009L38.2345 48.0871L36.6787 49.7291C36.2791 50.1509 35.7454 50.4209 35.1689 50.4929C33.7943 50.6647 32.5406 49.6897 32.3687 48.315L32.2146 47.0818L28.8172 50.9648ZM58.4953 39.8262C58.4953 38.9027 59.2439 38.1539 60.1676 38.1539C61.0912 38.1539 61.8399 38.9025 61.8399 39.8262V54.8764C61.8399 57.6471 59.5938 59.8932 56.8231 59.8932H24.2141C23.2906 59.8932 22.5418 59.1445 22.5418 58.2209C22.5418 57.2974 23.2906 56.5486 24.2141 56.5486H56.823C57.7465 56.5486 58.4953 55.7999 58.4953 54.8763V39.8262ZM45.9533 21.4315C46.8769 21.4315 47.6256 22.1801 47.6256 23.1038C47.6256 24.0274 46.877 24.7761 45.9533 24.7761H15.0168C14.0932 24.7761 13.3445 25.5247 13.3445 26.4484V39.8264C13.3445 40.7499 12.5958 41.4987 11.6722 41.4987C10.7485 41.4987 10 40.7498 10 39.8262V26.4483C10 23.6775 12.2461 21.4315 15.0168 21.4315H45.9533Z" fill="white"/>
</g>
<defs>
<clipPath id="clip0_142_1669">
<rect width="57" height="57" fill="white" transform="translate(10 10)"/>
</clipPath>
</defs>
</svg>
