<svg width="104" height="104" viewBox="0 0 104 104" fill="none" xmlns="http://www.w3.org/2000/svg">
<circle cx="52" cy="52" r="50.5" fill="#4C4C4C" stroke="#CDA961" stroke-width="3"/>
<path d="M66.2137 48.3576L46.047 36.98C45.3884 36.6036 44.6419 36.4084 43.8833 36.4142C43.1248 36.42 42.3814 36.6266 41.7286 37.013C41.0926 37.3767 40.5643 37.9023 40.1972 38.5363C39.8301 39.1703 39.6374 39.8902 39.6386 40.6228V63.3781C39.6374 64.1108 39.8301 64.8307 40.1972 65.4647C40.5643 66.0987 41.0926 66.6243 41.7286 66.988C42.3814 67.3742 43.1249 67.5807 43.8833 67.5865C44.6418 67.5923 45.3883 67.3972 46.047 67.021L66.2137 55.6433C66.8641 55.283 67.4062 54.7552 67.7836 54.1146C68.1611 53.474 68.3601 52.744 68.3601 52.0005C68.3601 51.257 68.1611 50.527 67.7836 49.8864C67.4062 49.2458 66.8641 48.7179 66.2137 48.3576Z" fill="white"/>
</svg>
