<svg width="139" height="36" viewBox="0 0 139 36" fill="none" xmlns="http://www.w3.org/2000/svg">
<g clip-path="url(#clip0_148_110)">
<path d="M138.338 18.5825H110.969C110.644 18.5825 110.381 18.3207 110.381 17.9967C110.381 17.6726 110.644 17.4108 110.969 17.4108H136.916L133.344 13.8555C133.114 13.6266 133.114 13.255 133.344 13.0261C133.574 12.7973 133.948 12.7973 134.178 13.0261L138.756 17.5829C138.925 17.7513 138.974 18.0022 138.883 18.2218C138.791 18.4397 138.575 18.5825 138.338 18.5825Z" fill="#CDA961"/>
<path d="M133.754 23.1445C133.604 23.1445 133.453 23.0878 133.339 22.9724C133.109 22.7436 133.109 22.3719 133.339 22.1431L137.922 17.5808C138.152 17.352 138.526 17.352 138.755 17.5808C138.985 17.8097 138.985 18.1813 138.755 18.4102L134.172 22.9724C134.056 23.0878 133.905 23.1445 133.754 23.1445Z" fill="#CDA961"/>
</g>
<path d="M125.037 7.8529V1H1V35.2645H125.037V28.4116" stroke="#CDA961" stroke-width="1.37058"/>
<path d="M31.539 19.1076V17.6236H33.821C34.2876 17.6236 34.647 17.507 34.899 17.2736C35.1603 17.031 35.291 16.6996 35.291 16.2796C35.291 15.897 35.1603 15.5796 34.899 15.3276C34.647 15.0663 34.2876 14.9356 33.821 14.9356H31.539V13.3816H33.989C34.6236 13.3816 35.179 13.5076 35.655 13.7596C36.1403 14.0023 36.5136 14.3383 36.775 14.7676C37.0456 15.197 37.181 15.6916 37.181 16.2516C37.181 16.8303 37.0456 17.3343 36.775 17.7636C36.5136 18.1836 36.1403 18.515 35.655 18.7576C35.1696 18.991 34.605 19.1076 33.961 19.1076H31.539ZM30.139 23.2236V13.3816H32.043V23.2236H30.139ZM35.515 23.2236L32.267 18.9676L34.017 18.4216L37.825 23.2236H35.515ZM41.7492 23.3636C41.0399 23.3636 40.4099 23.2143 39.8592 22.9156C39.3086 22.6076 38.8699 22.1876 38.5432 21.6556C38.2259 21.1236 38.0672 20.517 38.0672 19.8356C38.0672 19.1636 38.2212 18.5663 38.5292 18.0436C38.8466 17.5116 39.2759 17.0916 39.8172 16.7836C40.3586 16.4663 40.9606 16.3076 41.6232 16.3076C42.2766 16.3076 42.8506 16.457 43.3452 16.7556C43.8492 17.045 44.2412 17.4463 44.5212 17.9596C44.8106 18.4636 44.9552 19.0376 44.9552 19.6816C44.9552 19.803 44.9459 19.929 44.9272 20.0596C44.9179 20.181 44.8946 20.321 44.8572 20.4796L39.1732 20.4936V19.1216L44.0032 19.1076L43.2612 19.6816C43.2426 19.2803 43.1679 18.9443 43.0372 18.6736C42.9159 18.403 42.7339 18.1976 42.4912 18.0576C42.2579 17.9083 41.9686 17.8336 41.6232 17.8336C41.2592 17.8336 40.9419 17.9176 40.6712 18.0856C40.4006 18.2443 40.1906 18.473 40.0412 18.7716C39.9012 19.061 39.8312 19.4063 39.8312 19.8076C39.8312 20.2183 39.9059 20.5776 40.0552 20.8856C40.2139 21.1843 40.4379 21.4176 40.7272 21.5856C41.0166 21.7443 41.3526 21.8236 41.7352 21.8236C42.0806 21.8236 42.3932 21.7676 42.6732 21.6556C42.9532 21.5343 43.1959 21.357 43.4012 21.1236L44.4792 22.2016C44.1526 22.5843 43.7512 22.8736 43.2752 23.0696C42.8086 23.2656 42.2999 23.3636 41.7492 23.3636ZM48.9175 23.3636C48.3015 23.3636 47.7461 23.2096 47.2515 22.9016C46.7568 22.5936 46.3695 22.1736 46.0895 21.6416C45.8095 21.1096 45.6695 20.5123 45.6695 19.8496C45.6695 19.1776 45.8095 18.5756 46.0895 18.0436C46.3695 17.5116 46.7568 17.0916 47.2515 16.7836C47.7461 16.4756 48.3015 16.3216 48.9175 16.3216C49.4028 16.3216 49.8368 16.4196 50.2195 16.6156C50.6021 16.8116 50.9055 17.087 51.1295 17.4416C51.3628 17.787 51.4888 18.179 51.5075 18.6176V21.0536C51.4888 21.5016 51.3628 21.8983 51.1295 22.2436C50.9055 22.589 50.6021 22.8643 50.2195 23.0696C49.8368 23.2656 49.4028 23.3636 48.9175 23.3636ZM49.2535 21.6696C49.7668 21.6696 50.1821 21.5016 50.4995 21.1656C50.8168 20.8203 50.9755 20.377 50.9755 19.8356C50.9755 19.481 50.9008 19.1683 50.7515 18.8976C50.6115 18.6176 50.4108 18.403 50.1495 18.2536C49.8975 18.095 49.5988 18.0156 49.2535 18.0156C48.9175 18.0156 48.6188 18.095 48.3575 18.2536C48.1055 18.403 47.9048 18.6176 47.7555 18.8976C47.6155 19.1683 47.5455 19.481 47.5455 19.8356C47.5455 20.1996 47.6155 20.5216 47.7555 20.8016C47.9048 21.0723 48.1055 21.287 48.3575 21.4456C48.6188 21.595 48.9175 21.6696 49.2535 21.6696ZM50.8775 23.2236V21.4036L51.1715 19.7516L50.8775 18.1276V16.4616H52.6975V23.2236H50.8775ZM57.1759 23.3636C56.5506 23.3636 55.9906 23.2096 55.4959 22.9016C55.0013 22.5936 54.6093 22.1736 54.3199 21.6416C54.0399 21.1096 53.8999 20.5123 53.8999 19.8496C53.8999 19.1776 54.0399 18.5756 54.3199 18.0436C54.6093 17.5116 54.9966 17.0916 55.4819 16.7836C55.9766 16.4756 56.5413 16.3216 57.1759 16.3216C57.6613 16.3216 58.0953 16.4196 58.4779 16.6156C58.8699 16.8116 59.1826 17.087 59.4159 17.4416C59.6586 17.787 59.7893 18.179 59.8079 18.6176V21.0256C59.7893 21.4643 59.6633 21.861 59.4299 22.2156C59.1966 22.5703 58.8839 22.8503 58.4919 23.0556C58.0999 23.261 57.6613 23.3636 57.1759 23.3636ZM57.4839 21.6696C57.8293 21.6696 58.1279 21.595 58.3799 21.4456C58.6413 21.287 58.8419 21.0723 58.9819 20.8016C59.1313 20.5216 59.2059 20.1996 59.2059 19.8356C59.2059 19.481 59.1313 19.1683 58.9819 18.8976C58.8419 18.6176 58.6413 18.403 58.3799 18.2536C58.1279 18.095 57.8339 18.0156 57.4979 18.0156C57.1526 18.0156 56.8493 18.095 56.5879 18.2536C56.3359 18.4123 56.1353 18.627 55.9859 18.8976C55.8459 19.1683 55.7759 19.481 55.7759 19.8356C55.7759 20.1996 55.8459 20.5216 55.9859 20.8016C56.1353 21.0723 56.3406 21.287 56.6019 21.4456C56.8633 21.595 57.1573 21.6696 57.4839 21.6696ZM60.9279 23.2236H59.1079V21.4036L59.4019 19.7516L59.0939 18.1276V13.1016H60.9279V23.2236ZM65.4808 23.2236V13.3816H66.8248L70.8148 19.7656H70.0448L74.0208 13.3816H75.3648V23.2236H73.4748V16.6436L73.8388 16.7556L71.0668 21.2076H69.7788L67.0068 16.7556L67.3848 16.6436V23.2236H65.4808ZM80.3573 23.3636C79.676 23.3636 79.06 23.2096 78.5093 22.9016C77.968 22.5843 77.534 22.1596 77.2073 21.6276C76.89 21.0863 76.7313 20.4843 76.7313 19.8216C76.7313 19.159 76.89 18.5663 77.2073 18.0436C77.5246 17.5116 77.9586 17.0916 78.5093 16.7836C79.06 16.4663 79.6713 16.3076 80.3433 16.3076C81.034 16.3076 81.65 16.4663 82.1913 16.7836C82.742 17.0916 83.176 17.5116 83.4933 18.0436C83.8106 18.5663 83.9693 19.159 83.9693 19.8216C83.9693 20.4843 83.8106 21.0863 83.4933 21.6276C83.176 22.1596 82.742 22.5843 82.1913 22.9016C81.65 23.2096 81.0386 23.3636 80.3573 23.3636ZM80.3433 21.6556C80.6886 21.6556 80.992 21.581 81.2533 21.4316C81.524 21.273 81.7293 21.0583 81.8693 20.7876C82.0186 20.5076 82.0933 20.1903 82.0933 19.8356C82.0933 19.481 82.0186 19.1683 81.8693 18.8976C81.72 18.627 81.5146 18.417 81.2533 18.2676C80.992 18.109 80.6886 18.0296 80.3433 18.0296C80.0073 18.0296 79.7086 18.109 79.4473 18.2676C79.186 18.417 78.9806 18.627 78.8313 18.8976C78.682 19.1683 78.6073 19.481 78.6073 19.8356C78.6073 20.1903 78.682 20.5076 78.8313 20.7876C78.9806 21.0583 79.186 21.273 79.4473 21.4316C79.7086 21.581 80.0073 21.6556 80.3433 21.6556ZM85.15 23.2236V16.4616H86.984V23.2236H85.15ZM86.984 19.4856L86.27 19.0096C86.354 18.179 86.5967 17.5256 86.998 17.0496C87.3993 16.5643 87.978 16.3216 88.734 16.3216C89.0607 16.3216 89.3547 16.3776 89.616 16.4896C89.8773 16.5923 90.1153 16.765 90.33 17.0076L89.182 18.3236C89.0793 18.2116 88.9533 18.1276 88.804 18.0716C88.664 18.0156 88.5007 17.9876 88.314 17.9876C87.922 17.9876 87.6 18.1136 87.348 18.3656C87.1053 18.6083 86.984 18.9816 86.984 19.4856ZM94.0168 23.3636C93.3075 23.3636 92.6775 23.2143 92.1268 22.9156C91.5762 22.6076 91.1375 22.1876 90.8108 21.6556C90.4935 21.1236 90.3348 20.517 90.3348 19.8356C90.3348 19.1636 90.4888 18.5663 90.7968 18.0436C91.1142 17.5116 91.5435 17.0916 92.0848 16.7836C92.6262 16.4663 93.2282 16.3076 93.8908 16.3076C94.5442 16.3076 95.1182 16.457 95.6128 16.7556C96.1168 17.045 96.5088 17.4463 96.7888 17.9596C97.0782 18.4636 97.2228 19.0376 97.2228 19.6816C97.2228 19.803 97.2135 19.929 97.1948 20.0596C97.1855 20.181 97.1622 20.321 97.1248 20.4796L91.4408 20.4936V19.1216L96.2708 19.1076L95.5288 19.6816C95.5102 19.2803 95.4355 18.9443 95.3048 18.6736C95.1835 18.403 95.0015 18.1976 94.7588 18.0576C94.5255 17.9083 94.2362 17.8336 93.8908 17.8336C93.5268 17.8336 93.2095 17.9176 92.9388 18.0856C92.6682 18.2443 92.4582 18.473 92.3088 18.7716C92.1688 19.061 92.0988 19.4063 92.0988 19.8076C92.0988 20.2183 92.1735 20.5776 92.3228 20.8856C92.4815 21.1843 92.7055 21.4176 92.9948 21.5856C93.2842 21.7443 93.6202 21.8236 94.0028 21.8236C94.3482 21.8236 94.6608 21.7676 94.9408 21.6556C95.2208 21.5343 95.4635 21.357 95.6688 21.1236L96.7468 22.2016C96.4202 22.5843 96.0188 22.8736 95.5428 23.0696C95.0762 23.2656 94.5675 23.3636 94.0168 23.3636Z" fill="#CDA961"/>
<defs>
<clipPath id="clip0_148_110">
<rect width="28.6931" height="28.56" fill="white" transform="translate(110.307 3.7207)"/>
</clipPath>
</defs>
</svg>
