<svg width="28" height="12" viewBox="0 0 28 12" fill="none" xmlns="http://www.w3.org/2000/svg">
<path d="M27.3538 6.57078H0.646136C0.328444 6.57078 0.0717773 6.31412 0.0717773 5.99642C0.0717773 5.67873 0.328444 5.42207 0.646136 5.42207H25.9664L22.4808 1.93642C22.2564 1.71207 22.2564 1.34771 22.4808 1.12335C22.7051 0.898988 23.0695 0.898988 23.2938 1.12335L27.7613 5.59078C27.9264 5.75591 27.9749 6.00181 27.8851 6.21719C27.7954 6.43078 27.5854 6.57078 27.3538 6.57078Z" fill="white"/>
<path d="M22.881 11.0438C22.7339 11.0438 22.5867 10.9881 22.4754 10.8751C22.251 10.6507 22.251 10.2863 22.4754 10.062L26.9482 5.58917C27.1726 5.36481 27.5369 5.36481 27.7613 5.58917C27.9857 5.81353 27.9857 6.17789 27.7613 6.40225L23.2885 10.8751C23.1754 10.9881 23.0282 11.0438 22.881 11.0438Z" fill="white"/>
</svg>
