<svg width="77" height="77" viewBox="0 0 77 77" fill="none" xmlns="http://www.w3.org/2000/svg">
<path d="M0 0H77V77H0V0Z" fill="#2C2C2C"/>
<path d="M65.2187 44.7344C65.216 45.8388 64.8724 46.9155 64.2348 47.8173C63.5971 48.719 62.6966 49.4019 61.6562 49.7726V57.2031C61.6548 58.3837 61.1852 59.5156 60.3504 60.3504C59.5156 61.1852 58.3837 61.6548 57.2031 61.6562H35.8281C34.6475 61.6548 33.5157 61.1852 32.6808 60.3504C31.846 59.5156 31.3764 58.3837 31.375 57.2031V49.7726C30.4513 49.4461 29.6352 48.8719 29.0159 48.1128C28.3965 47.3538 27.9978 46.4391 27.8632 45.4687C27.7286 44.4983 27.8633 43.5096 28.2527 42.6106C28.6421 41.7116 29.2711 40.937 30.071 40.3714C30.8709 39.8058 31.8109 39.4709 32.7882 39.4034C33.7656 39.336 34.7426 39.5385 35.6127 39.9888C36.4827 40.4392 37.2122 41.12 37.7214 41.9569C38.2306 42.7939 38.5 43.7547 38.5 44.7344V52.75H54.5312V44.7344C54.5312 43.3171 55.0942 41.9579 56.0964 40.9558C57.0985 39.9536 58.4577 39.3906 59.875 39.3906C61.2922 39.3906 62.6514 39.9536 63.6536 40.9558C64.6557 41.9579 65.2187 43.3171 65.2187 44.7344ZM41.1719 47.4062C40.8727 47.4041 40.5741 47.434 40.2812 47.4953V50.9688H52.75V47.4953C52.4571 47.434 52.1586 47.4041 51.8594 47.4062H41.1719ZM34.9375 63.3662V64.3281C34.9382 64.5641 35.0323 64.7902 35.1991 64.9571C35.366 65.124 35.5921 65.218 35.8281 65.2188H38.5C38.6647 65.2195 38.8263 65.174 38.9665 65.0874C39.1066 65.0008 39.2196 64.8766 39.2926 64.7289L39.9428 63.4375H35.8281C35.5297 63.4407 35.2316 63.4169 34.9375 63.3662ZM53.0973 63.4375L53.7386 64.7289C53.8116 64.8766 53.9246 65.0008 54.0647 65.0874C54.2049 65.174 54.3665 65.2195 54.5312 65.2188H57.2031C57.4391 65.218 57.6652 65.124 57.8321 64.9571C57.999 64.7902 58.093 64.5641 58.0937 64.3281V63.3662C57.7996 63.4169 57.5015 63.4407 57.2031 63.4375H53.0973ZM29.4601 32.7332C29.5401 32.6043 29.5858 32.4571 29.5928 32.3056C29.5998 32.154 29.568 32.0032 29.5002 31.8675C28.0848 28.9638 27.0038 25.9086 26.2779 22.7609C26.1467 22.1696 25.8167 21.6412 25.3429 21.2639C24.8691 20.8865 24.2803 20.6831 23.6746 20.6875H17.6994C17.0939 20.6833 16.5053 20.8868 16.0317 21.2641C15.5581 21.6415 15.2282 22.1697 15.097 22.7609C14.3712 25.9086 13.2901 28.9637 11.8748 31.8675C11.8069 32.0033 11.7749 32.1542 11.7817 32.3059C11.7886 32.4576 11.8341 32.605 11.914 32.7341C11.9939 32.8632 12.1054 32.9698 12.2381 33.0437C12.3707 33.1176 12.52 33.1563 12.6719 33.1562H28.7031C28.8549 33.1561 29.0041 33.1171 29.1366 33.0431C29.2691 32.9691 29.3805 32.8624 29.4601 32.7332ZM24.25 61.6562H17.125C16.4166 61.657 15.7374 61.9387 15.2365 62.4396C14.7355 62.9405 14.4538 63.6197 14.4531 64.3281C14.4531 64.5643 14.5469 64.7909 14.714 64.9579C14.881 65.1249 15.1075 65.2188 15.3437 65.2188H26.0312C26.2674 65.2188 26.494 65.1249 26.661 64.9579C26.828 64.7909 26.9219 64.5643 26.9219 64.3281C26.9212 63.6197 26.6394 62.9405 26.1385 62.4396C25.6376 61.9387 24.9584 61.657 24.25 61.6562ZM21.5781 59.875V34.9375H19.7969V59.875H21.5781ZM25.1406 40.2812C25.3766 40.2805 25.6027 40.1865 25.7696 40.0196C25.9365 39.8527 26.0305 39.6266 26.0312 39.3906V34.9375H24.25V39.3906C24.2507 39.6266 24.3448 39.8527 24.5116 40.0196C24.6785 40.1865 24.9046 40.2805 25.1406 40.2812ZM36.7187 25.1406V12.6719C36.7194 12.4359 36.8135 12.2098 36.9804 12.0429C37.1472 11.876 37.3734 11.782 37.6094 11.7812H55.4219C55.6579 11.782 55.884 11.876 56.0509 12.0429C56.2177 12.2098 56.3118 12.4359 56.3125 12.6719V25.1406C56.3118 25.3766 56.2177 25.6027 56.0509 25.7696C55.884 25.9365 55.6579 26.0305 55.4219 26.0312H37.6094C37.3734 26.0305 37.1472 25.9365 36.9804 25.7696C36.8135 25.6027 36.7194 25.3766 36.7187 25.1406ZM38.5 18.5411L41.4301 15.602C41.5983 15.4352 41.8256 15.3415 42.0625 15.3415C42.2994 15.3415 42.5267 15.4352 42.6948 15.602L47.4062 20.3223L50.3364 17.3833C50.5046 17.2164 50.7318 17.1228 50.9687 17.1228C51.2056 17.1228 51.4329 17.2164 51.6011 17.3833L54.5312 20.3223V13.5625H38.5V18.5411ZM47.4062 17.125C47.5824 17.125 47.7546 17.0728 47.901 16.9749C48.0475 16.877 48.1617 16.7379 48.2291 16.5752C48.2965 16.4125 48.3141 16.2334 48.2798 16.0606C48.2454 15.8879 48.1606 15.7292 48.036 15.6046C47.9114 15.4801 47.7528 15.3952 47.58 15.3609C47.4072 15.3265 47.2281 15.3441 47.0654 15.4115C46.9027 15.479 46.7636 15.5931 46.6657 15.7396C46.5678 15.886 46.5156 16.0582 46.5156 16.2344C46.5156 16.4706 46.6094 16.6971 46.7765 16.8641C46.9435 17.0312 47.17 17.125 47.4062 17.125ZM33.1562 37.6094C32.8586 37.6091 32.5611 37.627 32.2656 37.6628V35.8281C32.2675 34.1752 32.9249 32.5906 34.0937 31.4218C35.2625 30.2531 36.8471 29.5956 38.5 29.5938H54.5312C56.1841 29.5956 57.7688 30.2531 58.9375 31.4218C60.1063 32.5906 60.7637 34.1752 60.7656 35.8281V37.6628C60.4701 37.627 60.1727 37.6091 59.875 37.6094C57.986 37.6117 56.1751 38.3632 54.8395 39.6988C53.5038 41.0345 52.7523 42.8454 52.75 44.7344V45.6873C52.4551 45.6441 52.1574 45.6233 51.8594 45.625H41.1719C40.8738 45.6233 40.5761 45.6441 40.2812 45.6873V44.7344C40.2789 42.8454 39.5275 41.0345 38.1918 39.6988C36.8561 38.3632 35.0452 37.6117 33.1562 37.6094ZM52.75 36.7188C52.75 36.8949 52.8022 37.0671 52.9001 37.2136C52.9979 37.36 53.137 37.4742 53.2998 37.5416C53.4625 37.609 53.6416 37.6266 53.8144 37.5923C53.9871 37.5579 54.1458 37.4731 54.2704 37.3485C54.3949 37.224 54.4798 37.0653 54.5141 36.8925C54.5485 36.7197 54.5308 36.5407 54.4634 36.3779C54.396 36.2152 54.2819 36.0761 54.1354 35.9782C53.989 35.8804 53.8168 35.8281 53.6406 35.8281C53.4044 35.8281 53.1779 35.922 53.0108 36.089C52.8438 36.256 52.75 36.4825 52.75 36.7188ZM49.1875 42.0625C49.1875 42.2386 49.2397 42.4108 49.3376 42.5573C49.4354 42.7038 49.5745 42.8179 49.7373 42.8853C49.9 42.9527 50.0791 42.9704 50.2519 42.936C50.4246 42.9016 50.5833 42.8168 50.7079 42.6923C50.8324 42.5677 50.9173 42.409 50.9516 42.2363C50.986 42.0635 50.9683 41.8844 50.9009 41.7217C50.8335 41.5589 50.7194 41.4198 50.5729 41.322C50.4265 41.2241 50.2543 41.1719 50.0781 41.1719C49.8419 41.1719 49.6154 41.2657 49.4483 41.4327C49.2813 41.5998 49.1875 41.8263 49.1875 42.0625ZM45.625 36.7188C45.625 36.8949 45.6772 37.0671 45.7751 37.2136C45.8729 37.36 46.012 37.4742 46.1748 37.5416C46.3375 37.609 46.5166 37.6266 46.6894 37.5923C46.8621 37.5579 47.0208 37.4731 47.1454 37.3485C47.2699 37.224 47.3548 37.0653 47.3891 36.8925C47.4235 36.7197 47.4058 36.5407 47.3384 36.3779C47.271 36.2152 47.1569 36.0761 47.0104 35.9782C46.864 35.8804 46.6918 35.8281 46.5156 35.8281C46.2794 35.8281 46.0529 35.922 45.8858 36.089C45.7188 36.256 45.625 36.4825 45.625 36.7188ZM42.0625 42.0625C42.0625 42.2386 42.1147 42.4108 42.2126 42.5573C42.3104 42.7038 42.4495 42.8179 42.6123 42.8853C42.775 42.9527 42.9541 42.9704 43.1269 42.936C43.2996 42.9016 43.4583 42.8168 43.5829 42.6923C43.7074 42.5677 43.7923 42.409 43.8266 42.2363C43.861 42.0635 43.8433 41.8844 43.7759 41.7217C43.7085 41.5589 43.5944 41.4198 43.4479 41.322C43.3015 41.2241 43.1293 41.1719 42.9531 41.1719C42.7169 41.1719 42.4904 41.2657 42.3233 41.4327C42.1563 41.5998 42.0625 41.8263 42.0625 42.0625ZM38.5 36.7188C38.5 36.8949 38.5522 37.0671 38.6501 37.2136C38.7479 37.36 38.887 37.4742 39.0498 37.5416C39.2125 37.609 39.3916 37.6266 39.5644 37.5923C39.7371 37.5579 39.8958 37.4731 40.0204 37.3485C40.1449 37.224 40.2298 37.0653 40.2641 36.8925C40.2985 36.7197 40.2808 36.5407 40.2134 36.3779C40.146 36.2152 40.0319 36.0761 39.8854 35.9782C39.739 35.8804 39.5668 35.8281 39.3906 35.8281C39.1544 35.8281 38.9279 35.922 38.7608 36.089C38.5938 36.256 38.5 36.4825 38.5 36.7188Z" fill="white"/>
</svg>
