<svg width="77" height="77" viewBox="0 0 77 77" fill="none" xmlns="http://www.w3.org/2000/svg">
<path d="M0 0H77V77H0V0Z" fill="#2C2C2C"/>
<g clip-path="url(#clip0_142_2552)">
<path d="M23.3543 35.0393C24.3721 34.7645 24.647 35.0393 28.7489 37.3396L33.2173 34.8866L30.3571 33.4107C30.1148 33.2856 29.9001 33.1131 29.7257 32.9034C29.5513 32.6937 29.4209 32.4511 29.3421 32.19C29.2633 31.9289 29.2378 31.6547 29.267 31.3835C29.2962 31.1124 29.3797 30.8499 29.5123 30.6116C32.4946 25.1864 27.4563 19.1607 20.1786 19.1607C14.5702 19.1607 10 22.8148 10 27.3036C10 33.0443 17.125 36.7289 23.3543 35.0393ZM20.1786 21.1964C24.5961 21.1964 28.3214 23.9955 28.3214 27.3036C28.3214 30.6116 24.5961 33.4107 20.1786 33.4107C15.7611 33.4107 12.0357 30.6116 12.0357 27.3036C12.0357 23.9955 15.7611 21.1964 20.1786 21.1964ZM46.938 28.0568C49.6964 30.2146 57.1166 34.7746 56.8316 38.2354C56.8316 39.2532 57.198 40.4848 53.9307 43.5282L61.3611 47.5182C63.9464 44.6071 65.0966 41.6248 64.9643 38.5C65.1882 32.5964 60.7605 28.1077 55.997 24.5961C52.8111 22.2448 49.8898 20.372 48.5361 17.9393C47.1823 15.5066 46.8057 11.5573 46.7039 10L43.5893 11.883C43.2798 12.0617 42.9288 12.1558 42.5714 12.1558C42.2141 12.1558 41.863 12.0617 41.5536 11.883L38.5611 10.1323C38.6586 14.2022 39.6269 18.204 41.4009 21.8682C42.7948 24.2947 44.6809 26.4027 46.938 28.0568ZM62.0227 27.1713C67.2443 24.0363 66.7354 24.4027 66.6743 24.25C66.0738 22.8963 63.1627 22.8963 58.7655 24.1991C59.9127 25.1203 61.0005 26.113 62.0227 27.1713Z" fill="white"/>
<path d="M20.1786 57.8394C27.497 57.8394 32.4641 51.7933 29.4818 46.3987C29.3486 46.1581 29.2655 45.8931 29.2376 45.6195C29.2096 45.3459 29.2374 45.0695 29.3192 44.807C29.401 44.5445 29.5351 44.3012 29.7135 44.092C29.8919 43.8827 30.1109 43.7117 30.3571 43.5894L50.4496 33.2174C48.9839 32.0774 47.8847 31.3548 46.2154 30.0723C21.4916 43.6403 60.8114 22.1126 24.8404 41.798C23.6393 42.4596 23.2321 41.5537 20.1786 41.5537C14.5702 41.5537 10 45.2078 10 49.6966C10 54.1853 14.5702 57.8394 20.1786 57.8394ZM35.4464 37.4823C35.7164 37.4823 35.9753 37.5895 36.1662 37.7804C36.3571 37.9713 36.4643 38.2302 36.4643 38.5001C36.4643 38.7701 36.3571 39.029 36.1662 39.2199C35.9753 39.4107 35.7164 39.518 35.4464 39.518C35.1765 39.518 34.9176 39.4107 34.7267 39.2199C34.5358 39.029 34.4286 38.7701 34.4286 38.5001C34.4286 38.2302 34.5358 37.9713 34.7267 37.7804C34.9176 37.5895 35.1765 37.4823 35.4464 37.4823ZM20.1786 43.5894C24.25 43.5894 28.3214 46.0628 28.3214 49.6966C28.3214 53.0046 24.5961 55.8037 20.1786 55.8037C15.7611 55.8037 12.0357 53.0046 12.0357 49.6966C12.0357 46.3885 15.7611 43.5894 20.1786 43.5894Z" fill="white"/>
<path d="M65.7687 53.5136C65.9635 53.4542 66.1441 53.3559 66.2998 53.2247C66.4555 53.0935 66.583 52.9321 66.6746 52.7502C66.6746 52.6484 68.5576 53.6866 42.4292 39.6504L37.5537 42.1747L53.0964 50.7145C56.038 52.0072 62.7559 54.674 65.7687 53.5136ZM46.4192 49.3506C44.3809 50.9271 42.6753 52.8921 41.4012 55.132C39.6268 58.7888 38.6584 62.7841 38.5614 66.8475L41.5539 65.107C41.8705 64.9168 42.2329 64.8163 42.6023 64.8163C42.9716 64.8163 43.3341 64.9168 43.6507 65.107L46.7042 66.9697C46.7959 65.4225 47.1623 61.5343 48.5364 58.9999C49.7578 56.7707 52.2617 55.0506 54.4603 53.4525C51.9971 52.4957 52.5773 52.7502 46.4192 49.3506Z" fill="white"/>
</g>
<defs>
<clipPath id="clip0_142_2552">
<rect width="57" height="57" fill="white" transform="translate(10 10)"/>
</clipPath>
</defs>
</svg>
