<svg width="18" height="16" viewBox="0 0 18 16" fill="none" xmlns="http://www.w3.org/2000/svg">
<path fill-rule="evenodd" clip-rule="evenodd" d="M16.9592 7.35825C17.3124 7.7115 17.3124 8.28806 16.9592 8.6413L10.04 15.5603C9.68618 15.9141 9.11067 15.9141 8.75692 15.5603L8.36989 15.1733C8.01579 14.8192 8.01571 14.244 8.36985 13.8898L13.6187 8.64146C13.9729 8.28736 13.9729 7.71204 13.6187 7.35794L8.36989 2.10958C8.01571 1.75544 8.01575 1.18029 8.36993 0.826147L8.75696 0.439116C9.1102 0.0858742 9.68677 0.0858742 10.04 0.439116L16.9592 7.35825ZM2.71145 0.439038C2.35786 0.0854053 1.78181 0.0854444 1.42821 0.439038L1.04118 0.826069C0.687742 1.17951 0.687704 1.75607 1.04118 2.10955L6.28974 7.35794C6.64388 7.71208 6.64388 8.28732 6.28974 8.64146L1.04114 13.8898C0.68755 14.2434 0.687588 14.8197 1.04114 15.1733L1.42817 15.5603C1.78192 15.9141 2.35766 15.9141 2.71141 15.5603L9.01602 9.25552C10.7845 11.0223 10.3372 10.5742 9.01731 9.25423L9.6302 8.6413C9.98368 8.28783 9.98364 7.71169 9.6302 7.35822L2.71145 0.439038Z" fill="url(#paint0_linear_149_566)"/>
<defs>
<linearGradient id="paint0_linear_149_566" x1="19.0001" y1="7.99967" x2="-0.666584" y2="7.99967" gradientUnits="userSpaceOnUse">
<stop stop-color="#CDA961"/>
<stop offset="1" stop-color="#CDA961" stop-opacity="0"/>
</linearGradient>
</defs>
</svg>
