<svg width="20" height="20" viewBox="0 0 20 20" fill="none" xmlns="http://www.w3.org/2000/svg">
<path d="M14.1667 2.91602H5.83335C3.33335 2.91602 1.66669 4.16602 1.66669 7.08268V12.916C1.66669 15.8327 3.33335 17.0827 5.83335 17.0827H14.1667C16.6667 17.0827 18.3334 15.8327 18.3334 12.916V7.08268C18.3334 4.16602 16.6667 2.91602 14.1667 2.91602ZM14.5584 7.99102L11.95 10.0743C11.4 10.516 10.7 10.7327 10 10.7327C9.30002 10.7327 8.59169 10.516 8.05002 10.0743L5.44169 7.99102C5.17502 7.77435 5.13335 7.37435 5.34169 7.10768C5.55835 6.84102 5.95002 6.79102 6.21669 7.00768L8.82502 9.09102C9.45835 9.59935 10.5334 9.59935 11.1667 9.09102L13.775 7.00768C14.0417 6.79102 14.4417 6.83268 14.65 7.10768C14.8667 7.37435 14.825 7.77435 14.5584 7.99102Z" fill="#5F5F5F"/>
</svg>
