<svg width="10" height="10" viewBox="0 0 10 10" fill="none" xmlns="http://www.w3.org/2000/svg">
<path d="M9.73458 3.57677L6.66042 3.10719L5.2825 0.172187C5.17958 -0.0469792 4.82 -0.0469792 4.71708 0.172187L3.33958 3.10719L0.265416 3.57677C0.208656 3.58549 0.155397 3.60968 0.111485 3.64669C0.0675734 3.68369 0.0347077 3.73208 0.0164966 3.78654C-0.00171461 3.84101 -0.00456705 3.89943 0.00825242 3.95541C0.0210719 4.01138 0.0490675 4.06275 0.0891655 4.10385L2.3225 6.39302L1.79458 9.62927C1.78516 9.68715 1.7922 9.74651 1.81492 9.80057C1.83764 9.85463 1.87511 9.90121 1.92305 9.93498C1.97099 9.96875 2.02746 9.98835 2.08602 9.99154C2.14457 9.99473 2.20284 9.98138 2.25417 9.95302L5 8.43552L7.74583 9.95344C7.79716 9.9818 7.85543 9.99515 7.91398 9.99196C7.97253 9.98877 8.02901 9.96917 8.07695 9.9354C8.12489 9.90163 8.16236 9.85505 8.18508 9.80099C8.20779 9.74693 8.21484 9.68756 8.20542 9.62969L7.6775 6.39344L9.91083 4.10427C9.95105 4.06318 9.97915 4.01178 9.99203 3.95575C10.0049 3.89971 10.0021 3.8412 9.98388 3.78667C9.96566 3.73213 9.93274 3.68368 9.88876 3.64665C9.84477 3.60962 9.79143 3.58544 9.73458 3.57677Z" fill="#D99C00"/>
</svg>
