<svg width="171" height="52" viewBox="0 0 171 52" fill="none" xmlns="http://www.w3.org/2000/svg">
<path d="M170.031 26.8552H129.969C129.493 26.8552 129.108 26.4702 129.108 25.9937C129.108 25.5171 129.493 25.1321 129.969 25.1321H167.95L162.721 19.9037C162.385 19.5671 162.385 19.0206 162.721 18.684C163.058 18.3475 163.604 18.3475 163.941 18.684L170.642 25.3852C170.89 25.6329 170.962 26.0017 170.828 26.3248C170.693 26.6452 170.378 26.8552 170.031 26.8552Z" fill="#CDA961"/>
<path d="M163.322 33.5652C163.101 33.5652 162.88 33.4817 162.713 33.3121C162.377 32.9756 162.377 32.429 162.713 32.0925L169.422 25.3833C169.759 25.0467 170.305 25.0467 170.642 25.3833C170.978 25.7198 170.978 26.2663 170.642 26.6029L163.933 33.3121C163.763 33.4817 163.542 33.5652 163.322 33.5652Z" fill="#CDA961"/>
<path d="M150 11V1H1V51H150V41" stroke="#CDA961" stroke-width="2"/>
<path d="M51.6255 33.2C50.4921 33.2 49.5188 33.0067 48.7055 32.62C47.9055 32.2333 47.1788 31.6533 46.5255 30.88L48.3255 29.08C48.7388 29.6267 49.2188 30.0533 49.7655 30.36C50.3121 30.6533 50.9788 30.8 51.7655 30.8C52.4721 30.8 53.0321 30.66 53.4455 30.38C53.8721 30.1 54.0855 29.7133 54.0855 29.22C54.0855 28.7933 53.9655 28.4467 53.7255 28.18C53.4855 27.9133 53.1655 27.6867 52.7655 27.5C52.3788 27.3133 51.9455 27.1467 51.4655 27C50.9988 26.84 50.5255 26.66 50.0455 26.46C49.5788 26.26 49.1455 26.0133 48.7455 25.72C48.3588 25.4133 48.0455 25.0267 47.8055 24.56C47.5655 24.08 47.4455 23.48 47.4455 22.76C47.4455 21.9067 47.6521 21.18 48.0655 20.58C48.4788 19.98 49.0455 19.52 49.7655 19.2C50.4855 18.88 51.2988 18.72 52.2055 18.72C53.1655 18.72 54.0321 18.9 54.8055 19.26C55.5788 19.62 56.2121 20.0867 56.7055 20.66L54.9055 22.46C54.4921 22.0067 54.0655 21.6733 53.6255 21.46C53.1988 21.2467 52.7121 21.14 52.1655 21.14C51.5388 21.14 51.0455 21.26 50.6855 21.5C50.3255 21.74 50.1455 22.0867 50.1455 22.54C50.1455 22.9267 50.2655 23.24 50.5055 23.48C50.7455 23.72 51.0588 23.9267 51.4455 24.1C51.8455 24.2733 52.2788 24.44 52.7455 24.6C53.2255 24.76 53.6988 24.94 54.1655 25.14C54.6455 25.34 55.0788 25.6 55.4655 25.92C55.8655 26.24 56.1855 26.6533 56.4255 27.16C56.6655 27.6533 56.7855 28.2667 56.7855 29C56.7855 30.3067 56.3255 31.3333 55.4055 32.08C54.4855 32.8267 53.2255 33.2 51.6255 33.2ZM62.7722 33.2C61.9189 33.2 61.1589 33.02 60.4922 32.66C59.8389 32.3 59.3255 31.8 58.9522 31.16C58.5789 30.52 58.3922 29.78 58.3922 28.94V23.34H61.0322V28.88C61.0322 29.28 61.0989 29.6267 61.2322 29.92C61.3655 30.2 61.5655 30.4133 61.8322 30.56C62.0989 30.7067 62.4122 30.78 62.7722 30.78C63.3189 30.78 63.7455 30.6133 64.0522 30.28C64.3589 29.9467 64.5122 29.48 64.5122 28.88V23.34H67.1322V28.94C67.1322 29.7933 66.9455 30.54 66.5722 31.18C66.2122 31.82 65.6989 32.32 65.0322 32.68C64.3789 33.0267 63.6255 33.2 62.7722 33.2ZM74.5786 33.2C73.8853 33.2 73.2586 33.0533 72.6986 32.76C72.1386 32.4667 71.6919 32.0667 71.3586 31.56C71.0253 31.0533 70.8453 30.4867 70.8186 29.86V26.42C70.8453 25.7933 71.0253 25.2333 71.3586 24.74C71.7053 24.2333 72.1586 23.84 72.7186 23.56C73.2786 23.28 73.8986 23.14 74.5786 23.14C75.4719 23.14 76.2719 23.36 76.9786 23.8C77.6853 24.24 78.2386 24.84 78.6386 25.6C79.0519 26.36 79.2586 27.22 79.2586 28.18C79.2586 29.1267 79.0519 29.98 78.6386 30.74C78.2386 31.5 77.6853 32.1 76.9786 32.54C76.2719 32.98 75.4719 33.2 74.5786 33.2ZM74.1386 30.78C74.6186 30.78 75.0386 30.6733 75.3986 30.46C75.7719 30.2333 76.0586 29.9267 76.2586 29.54C76.4719 29.14 76.5786 28.68 76.5786 28.16C76.5786 27.6533 76.4719 27.2067 76.2586 26.82C76.0586 26.42 75.7719 26.1133 75.3986 25.9C75.0253 25.6733 74.5986 25.56 74.1186 25.56C73.6386 25.56 73.2119 25.6733 72.8386 25.9C72.4786 26.1133 72.1919 26.42 71.9786 26.82C71.7786 27.2067 71.6786 27.6533 71.6786 28.16C71.6786 28.68 71.7786 29.14 71.9786 29.54C72.1919 29.9267 72.4853 30.2333 72.8586 30.46C73.2319 30.6733 73.6586 30.78 74.1386 30.78ZM69.2186 33V18.54H71.8386V25.72L71.3986 28.04L71.8186 30.4V33H69.2186ZM80.9764 33V23.34H83.5964V33H80.9764ZM87.2764 33V27.3C87.2764 26.74 87.0964 26.3067 86.7364 26C86.3897 25.68 85.9564 25.52 85.4364 25.52C85.0897 25.52 84.7764 25.5933 84.4964 25.74C84.2164 25.8733 83.9964 26.0733 83.8364 26.34C83.6764 26.6067 83.5964 26.9267 83.5964 27.3L82.5764 26.8C82.5764 26.0533 82.7364 25.4067 83.0564 24.86C83.3897 24.3133 83.8364 23.8933 84.3964 23.6C84.9564 23.2933 85.5897 23.14 86.2964 23.14C86.9631 23.14 87.5697 23.2933 88.1164 23.6C88.6631 23.8933 89.0964 24.3133 89.4164 24.86C89.7364 25.3933 89.8964 26.04 89.8964 26.8V33H87.2764ZM93.5764 33V27.3C93.5764 26.74 93.3964 26.3067 93.0364 26C92.6897 25.68 92.2564 25.52 91.7364 25.52C91.4031 25.52 91.0897 25.5933 90.7964 25.74C90.5164 25.8733 90.2964 26.0733 90.1364 26.34C89.9764 26.6067 89.8964 26.9267 89.8964 27.3L88.3964 26.94C88.4497 26.1667 88.6564 25.5 89.0164 24.94C89.3764 24.3667 89.8497 23.9267 90.4364 23.62C91.0231 23.3 91.6764 23.14 92.3964 23.14C93.1164 23.14 93.7631 23.2933 94.3364 23.6C94.9097 23.8933 95.3631 24.32 95.6964 24.88C96.0297 25.44 96.1964 26.1067 96.1964 26.88V33H93.5764ZM98.3202 33V23.34H100.96V33H98.3202ZM99.6402 21.78C99.2135 21.78 98.8602 21.64 98.5802 21.36C98.3002 21.0667 98.1602 20.7067 98.1602 20.28C98.1602 19.8667 98.3002 19.5133 98.5802 19.22C98.8602 18.9267 99.2135 18.78 99.6402 18.78C100.08 18.78 100.433 18.9267 100.7 19.22C100.98 19.5133 101.12 19.8667 101.12 20.28C101.12 20.7067 100.98 21.0667 100.7 21.36C100.433 21.64 100.08 21.78 99.6402 21.78ZM104.701 33V19.32H107.321V33H104.701ZM102.441 25.64V23.34H109.581V25.64H102.441Z" fill="#CDA961"/>
</svg>
