<svg width="77" height="77" viewBox="0 0 77 77" fill="none" xmlns="http://www.w3.org/2000/svg">
<path d="M0 0H77V77H0V0Z" fill="#2C2C2C"/>
<g clip-path="url(#clip0_142_1652)">
<path d="M36.4248 33.4902L33.4902 36.4248V40.5752L36.4251 43.5098H40.5749L43.5098 40.5752V36.4248L40.5752 33.4902H36.4248ZM16.5154 53.3996L18.2865 58.7135L23.6004 60.4846L30.1504 53.9345V46.8496H23.0655L16.5154 53.3996ZM33.4902 55.3179V64.5811L38.5 67L43.5098 64.5811V55.3179L38.5 50.3081L33.4902 55.3179ZM40.8616 47.9465L43.5098 50.5947V46.8496H41.9585L40.8616 47.9465ZM41.9585 30.1504H43.5098V26.4053L40.8616 29.0535L41.9585 30.1504ZM29.0535 36.1384L30.1504 35.0415V33.4902H26.4053L29.0535 36.1384ZM26.6919 38.5L21.6821 33.4902H12.4189L10 38.5L12.4189 43.5098H21.6821L26.6919 38.5ZM18.2865 18.2865L16.5154 23.6004L23.0655 30.1504H30.1504V23.0655L23.6004 16.5154L18.2865 18.2865ZM35.0415 46.8496H33.4902V50.5947L36.1384 47.9465L35.0415 46.8496ZM26.4053 43.5098H30.1504V41.9585L29.0535 40.8616L26.4053 43.5098ZM46.8496 46.8496V53.9345L53.3996 60.4846L58.7135 58.7135L60.4846 53.3996L53.9345 46.8496H46.8496ZM60.4846 23.6004L58.7135 18.2865L53.3996 16.5154L46.8496 23.0655V30.1504H53.9345L60.4846 23.6004ZM33.4902 12.4189V21.6821L38.5 26.6919L43.5098 21.6821V12.4189L38.5 10L33.4902 12.4189ZM36.1384 29.0535L33.4902 26.4053V30.1504H35.0415L36.1384 29.0535ZM64.5811 33.4902H55.3179L50.3081 38.5L55.3179 43.5098H64.5811L67 38.5L64.5811 33.4902ZM50.5947 33.4902H46.8496V35.0415L47.9465 36.1384L50.5947 33.4902ZM47.9465 40.8616L46.8496 41.9585V43.5098H50.5947L47.9465 40.8616Z" fill="white"/>
</g>
<defs>
<clipPath id="clip0_142_1652">
<rect width="57" height="57" fill="white" transform="translate(10 10)"/>
</clipPath>
</defs>
</svg>
