<svg width="20" height="20" viewBox="0 0 20 20" fill="none" xmlns="http://www.w3.org/2000/svg">
<path d="M3.05436 9.25979C2.70919 9.26076 2.37134 9.35944 2.07991 9.5444C1.78848 9.72937 1.55537 9.99306 1.40755 10.305C1.25973 10.6169 1.20325 10.9643 1.24463 11.307C1.28602 11.6497 1.42358 11.9736 1.6414 12.2414L6.28486 17.9296C6.45042 18.1352 6.66265 18.2983 6.9039 18.4054C7.14516 18.5125 7.40849 18.5605 7.67201 18.5454C8.23563 18.5151 8.74448 18.2136 9.0689 17.7179L18.7146 2.18356C18.7161 2.18097 18.7178 2.1784 18.7195 2.17587C18.81 2.03691 18.7806 1.76152 18.5938 1.58852C18.5425 1.54102 18.482 1.50452 18.416 1.48127C18.3501 1.45803 18.2801 1.44854 18.2103 1.45338C18.1405 1.45822 18.0725 1.47729 18.0104 1.50941C17.9483 1.54154 17.8934 1.58604 17.8491 1.64018C17.8457 1.64444 17.8421 1.64863 17.8384 1.65276L8.11067 12.6437C8.07365 12.6855 8.0287 12.7196 7.97841 12.7439C7.92812 12.7682 7.87351 12.7822 7.81774 12.7852C7.76197 12.7883 7.70615 12.7802 7.65354 12.7614C7.60092 12.7427 7.55256 12.7137 7.51124 12.6761L4.28278 9.73818C3.94748 9.43081 3.50923 9.26014 3.05436 9.25979Z" fill="#CDA961"/>
</svg>
