<svg width="209" height="52" viewBox="0 0 209 52" fill="none" xmlns="http://www.w3.org/2000/svg">
<path d="M188 11V1H1V51H188V41" stroke="#CDA961" stroke-width="2"/>
<path d="M52.2955 33L46.7555 18.94H49.6955L53.9755 30.32H52.8355L57.1555 18.94H60.0555L54.4555 33H52.2955ZM61.617 33V23.34H64.257V33H61.617ZM62.937 21.78C62.5104 21.78 62.157 21.64 61.877 21.36C61.597 21.0667 61.457 20.7067 61.457 20.28C61.457 19.8667 61.597 19.5133 61.877 19.22C62.157 18.9267 62.5104 18.78 62.937 18.78C63.377 18.78 63.7304 18.9267 63.997 19.22C64.277 19.5133 64.417 19.8667 64.417 20.28C64.417 20.7067 64.277 21.0667 63.997 21.36C63.7304 21.64 63.377 21.78 62.937 21.78ZM71.198 33.2C70.1846 33.2 69.2846 32.9867 68.498 32.56C67.7113 32.12 67.0846 31.52 66.618 30.76C66.1646 30 65.938 29.1333 65.938 28.16C65.938 27.2 66.158 26.3467 66.598 25.6C67.0513 24.84 67.6646 24.24 68.438 23.8C69.2113 23.3467 70.0713 23.12 71.018 23.12C71.9513 23.12 72.7713 23.3333 73.478 23.76C74.198 24.1733 74.758 24.7467 75.158 25.48C75.5713 26.2 75.778 27.02 75.778 27.94C75.778 28.1133 75.7646 28.2933 75.738 28.48C75.7246 28.6533 75.6913 28.8533 75.638 29.08L67.518 29.1V27.14L74.418 27.12L73.358 27.94C73.3313 27.3667 73.2246 26.8867 73.038 26.5C72.8646 26.1133 72.6046 25.82 72.258 25.62C71.9246 25.4067 71.5113 25.3 71.018 25.3C70.498 25.3 70.0446 25.42 69.658 25.66C69.2713 25.8867 68.9713 26.2133 68.758 26.64C68.558 27.0533 68.458 27.5467 68.458 28.12C68.458 28.7067 68.5646 29.22 68.778 29.66C69.0046 30.0867 69.3246 30.42 69.738 30.66C70.1513 30.8867 70.6313 31 71.178 31C71.6713 31 72.118 30.92 72.518 30.76C72.918 30.5867 73.2646 30.3333 73.558 30L75.098 31.54C74.6313 32.0867 74.058 32.5 73.378 32.78C72.7113 33.06 71.9846 33.2 71.198 33.2ZM79.8611 33L76.2411 23.34H78.8811L81.2411 30.36L80.4411 30.38L82.8611 23.34H84.7611L87.1811 30.38L86.3811 30.36L88.7411 23.34H91.3811L87.7811 33H85.8811L83.4411 26.32H84.1811L81.7411 33H79.8611ZM96.8384 33V18.94H98.7584L104.458 28.06H103.358L109.038 18.94H110.958V33H108.258V23.6L108.778 23.76L104.818 30.12H102.978L99.0184 23.76L99.5584 23.6V33H96.8384ZM118.091 33.2C117.117 33.2 116.237 32.98 115.451 32.54C114.677 32.0867 114.057 31.48 113.591 30.72C113.137 29.9467 112.911 29.0867 112.911 28.14C112.911 27.1933 113.137 26.3467 113.591 25.6C114.044 24.84 114.664 24.24 115.451 23.8C116.237 23.3467 117.111 23.12 118.071 23.12C119.057 23.12 119.937 23.3467 120.711 23.8C121.497 24.24 122.117 24.84 122.571 25.6C123.024 26.3467 123.251 27.1933 123.251 28.14C123.251 29.0867 123.024 29.9467 122.571 30.72C122.117 31.48 121.497 32.0867 120.711 32.54C119.937 32.98 119.064 33.2 118.091 33.2ZM118.071 30.76C118.564 30.76 118.997 30.6533 119.371 30.44C119.757 30.2133 120.051 29.9067 120.251 29.52C120.464 29.12 120.571 28.6667 120.571 28.16C120.571 27.6533 120.464 27.2067 120.251 26.82C120.037 26.4333 119.744 26.1333 119.371 25.92C118.997 25.6933 118.564 25.58 118.071 25.58C117.591 25.58 117.164 25.6933 116.791 25.92C116.417 26.1333 116.124 26.4333 115.911 26.82C115.697 27.2067 115.591 27.6533 115.591 28.16C115.591 28.6667 115.697 29.12 115.911 29.52C116.124 29.9067 116.417 30.2133 116.791 30.44C117.164 30.6533 117.591 30.76 118.071 30.76ZM124.937 33V23.34H127.557V33H124.937ZM127.557 27.66L126.537 26.98C126.657 25.7933 127.004 24.86 127.577 24.18C128.151 23.4867 128.977 23.14 130.057 23.14C130.524 23.14 130.944 23.22 131.317 23.38C131.691 23.5267 132.031 23.7733 132.337 24.12L130.697 26C130.551 25.84 130.371 25.72 130.157 25.64C129.957 25.56 129.724 25.52 129.457 25.52C128.897 25.52 128.437 25.7 128.077 26.06C127.731 26.4067 127.557 26.94 127.557 27.66ZM137.604 33.2C136.591 33.2 135.691 32.9867 134.904 32.56C134.118 32.12 133.491 31.52 133.024 30.76C132.571 30 132.344 29.1333 132.344 28.16C132.344 27.2 132.564 26.3467 133.004 25.6C133.458 24.84 134.071 24.24 134.844 23.8C135.618 23.3467 136.478 23.12 137.424 23.12C138.358 23.12 139.178 23.3333 139.884 23.76C140.604 24.1733 141.164 24.7467 141.564 25.48C141.978 26.2 142.184 27.02 142.184 27.94C142.184 28.1133 142.171 28.2933 142.144 28.48C142.131 28.6533 142.098 28.8533 142.044 29.08L133.924 29.1V27.14L140.824 27.12L139.764 27.94C139.738 27.3667 139.631 26.8867 139.444 26.5C139.271 26.1133 139.011 25.82 138.664 25.62C138.331 25.4067 137.918 25.3 137.424 25.3C136.904 25.3 136.451 25.42 136.064 25.66C135.678 25.8867 135.378 26.2133 135.164 26.64C134.964 27.0533 134.864 27.5467 134.864 28.12C134.864 28.7067 134.971 29.22 135.184 29.66C135.411 30.0867 135.731 30.42 136.144 30.66C136.558 30.8867 137.038 31 137.584 31C138.078 31 138.524 30.92 138.924 30.76C139.324 30.5867 139.671 30.3333 139.964 30L141.504 31.54C141.038 32.0867 140.464 32.5 139.784 32.78C139.118 33.06 138.391 33.2 137.604 33.2Z" fill="#CDA961"/>
<path d="M208.031 26.8562H167.969C167.493 26.8562 167.108 26.4712 167.108 25.9946C167.108 25.5181 167.493 25.1331 167.969 25.1331H205.95L200.721 19.9046C200.385 19.5681 200.385 19.0216 200.721 18.685C201.058 18.3485 201.604 18.3485 201.941 18.685L208.642 25.3862C208.89 25.6339 208.962 26.0027 208.828 26.3258C208.693 26.6462 208.378 26.8562 208.031 26.8562Z" fill="#CDA961"/>
<path d="M201.322 33.5652C201.101 33.5652 200.88 33.4817 200.713 33.3121C200.377 32.9756 200.377 32.429 200.713 32.0925L207.422 25.3833C207.759 25.0467 208.305 25.0467 208.642 25.3833C208.978 25.7198 208.978 26.2663 208.642 26.6029L201.933 33.3121C201.763 33.4817 201.542 33.5652 201.322 33.5652Z" fill="#CDA961"/>
</svg>
